<?xml version="1.0" encoding="UTF-8" standalone="no"?><svg xmlns="http://www.w3.org/2000/svg" xmlns:xlink="http://www.w3.org/1999/xlink" contentScriptType="text/ecmascript" fill="#000000" width="229.3" zoomAndPan="magnify" contentStyleType="text/css" viewBox="97.9 82.8 229.3 258.4" height="258.4" preserveAspectRatio="xMidYMid meet" version="1"><g id="change1_1"><path fill="#feeb73" d="M187.4,288.52c-1.99-14.42-6.73-32.24-16.17-50.05c-7.01-13.22-15.98-25.39-22.18-39.02 s-9.45-29.49-4.33-43.55c1.75-4.81,4.42-9.24,7.48-13.33c11.22-15.01,28.29-25.79,46.85-28.32s38.36,3.55,51.52,16.89 c5.77,5.85,10.2,12.9,14,20.19c9.73,18.71,15.27,42.1,4.88,60.45c-4.49,7.92-11.5,14.06-17.11,21.24 c-10.82,13.84-16.23,31.79-14.87,49.3"/></g><g id="change2_1"><path fill="#bddbdd" d="M200.66,263.18c9.03-0.16,18.07-0.33,27.1-0.49c5.69-0.1,11.51-0.19,16.76,1.42 c5.25,1.61,8.99,2.42,9.62,7.28c0.35,2.67,1.06,6.14-1.1,8.2c-2.5,2.38-5.15,3.01-8.26,3.12c-6.89,0.24-5.58,8.05-5.72,11.98 c-0.16,4.5,0.01,8.99-0.3,13.5c-0.48,7.02-2.27,14.38-7.52,20.02c-2.45,2.64-5.55,4.77-8.78,6.67c-3.6,2.11-7.47,3.98-11.63,4.8 c-8.05,1.6-16.4-0.97-22.18-5.61c-5.78-4.64-9.25-11.13-11.27-17.85c-1.46-4.84-2.23-9.87-2.29-14.95 c-0.09-7.15,0.11-13.69-5.51-19.06c-1.1-1.05-2.33-2-3.25-3.18c-3.64-4.64-1.03-11.73,4.64-14.83c3.01-1.65,6.62-1.57,9.9-1.31 C187.43,263.4,194.04,263.3,200.66,263.18z"/></g><g id="change3_1"><path fill="#27348b" d="M198.63,259.79c-0.95,0-1.8-0.68-1.97-1.66l-9.84-56.18c-0.68-3.91-1.39-7.94-1.8-11.97 c-0.09-0.93-0.25-2.5,0.42-3.94c1.24-2.67,4.37-3.29,5.87-3.59c3.7-0.73,7.45-1.23,10.82-0.63c2.6-2.74,6.36-4.58,10.46-4.92 c2.91-0.24,5.67,0.24,7.98,1.4c1.5,0.76,2.77,1.76,3.84,2.92c0.34-0.08,0.68-0.16,1.01-0.23c6.99-1.46,12.2-0.76,15.93,2.15 c1.38,1.08,2.31,2.31,2.76,3.67c0.71,2.14,0.16,4.3-0.32,5.74c-1.03,3.11-2.68,5.89-4.27,8.58c-1.35,2.29-2.63,4.45-3.54,6.77 c-1.47,3.72-1.98,7.89-2.47,11.91l-3.83,31.4c-0.13,1.1-1.14,1.87-2.23,1.74c-1.1-0.13-1.88-1.13-1.74-2.23l3.83-31.4 c0.52-4.28,1.06-8.7,2.72-12.9c1.03-2.61,2.45-5.01,3.82-7.34c1.55-2.63,3.02-5.11,3.92-7.82c0.48-1.43,0.58-2.45,0.32-3.21 c-0.2-0.59-0.69-1.21-1.43-1.79c-2.64-2.06-6.56-2.56-11.97-1.53c1.21,2.22,1.98,4.58,2.46,6.64c0.84,3.58,0.3,6.2-1.59,7.8 c-2.45,2.07-6.07,1.2-8.01-0.79c-1.86-1.89-2.43-4.44-2.73-6.45c-0.28-1.9-0.45-4.36,0.78-6.53c0.63-1.11,1.5-1.94,2.49-2.58 c-0.48-0.38-0.99-0.71-1.55-0.99c-1.65-0.83-3.67-1.17-5.84-0.99c-2.42,0.2-4.71,1.11-6.53,2.49c0.6,0.36,1.18,0.79,1.73,1.28 c2.32,2.09,3.76,5.18,4.4,9.45c0.49,3.26-0.46,6.86-3.66,7.57c-0.88,0.19-1.83,0.11-2.91-0.24c-2.61-0.86-4.78-2.82-6.1-5.52 c-1.45-2.95-1.68-6.48-0.62-9.43c0.11-0.31,0.23-0.61,0.36-0.9c-2.33-0.1-4.92,0.29-7.5,0.81c-1.23,0.24-2.68,0.62-3.03,1.36 c-0.19,0.41-0.14,1.14-0.07,1.84c0.39,3.89,1.08,7.84,1.75,11.66l9.84,56.2c0.19,1.09-0.54,2.12-1.63,2.31 C198.86,259.78,198.74,259.79,198.63,259.79z M203.64,186.44c-0.25,0.44-0.47,0.9-0.64,1.38c-0.7,1.96-0.53,4.32,0.45,6.33 c0.84,1.72,2.18,2.96,3.75,3.48c0.51,0.17,0.73,0.15,0.81,0.13c0.45-0.1,0.79-1.49,0.56-3.07c-0.49-3.31-1.51-5.62-3.12-7.06 C204.9,187.13,204.3,186.74,203.64,186.44z M222.99,185.94c-0.72,0.37-1.32,0.85-1.68,1.48c-0.63,1.11-0.49,2.71-0.3,3.97 c0.31,2.09,0.81,3.4,1.63,4.24c0.73,0.75,2,1.01,2.58,0.53c0.62-0.53,0.72-1.92,0.28-3.83 C225.02,190.33,224.25,187.98,222.99,185.94z"/></g><g id="change3_2"><path fill="#27348b" d="M140.17,241.56c-0.33,0-0.68-0.08-0.99-0.26c-0.73-0.42-1.17-1.16-1.18-1.99c-0.02-1.19,0.83-2.12,1.55-2.56 c3.33-2.02,6.78-3.95,10.23-5.74c0.98-0.51,2.19-0.12,2.7,0.86c0.51,0.98,0.12,2.19-0.86,2.7c-3.2,1.65-6.38,3.43-9.47,5.29 c-0.04,0.24-0.11,0.48-0.24,0.7C141.54,241.19,140.87,241.56,140.17,241.56z"/></g><g id="change3_3"><path fill="#27348b" d="M100.13,195.73c-0.91,0-1.74-0.63-1.95-1.56c-0.24-1.08,0.43-2.15,1.51-2.39 c9.67-2.19,19.52-4.11,29.29-5.72c1.1-0.17,2.12,0.56,2.3,1.65c0.18,1.09-0.56,2.12-1.65,2.3c-9.69,1.59-19.47,3.5-29.06,5.67 C100.43,195.71,100.28,195.73,100.13,195.73z"/></g><g id="change3_4"><path fill="#27348b" d="M137.06,141.81c-0.2,0-0.4-0.03-0.6-0.09c-4.6-1.45-9.33-2.67-14.06-3.63c-1.08-0.22-1.78-1.28-1.56-2.36 s1.27-1.78,2.36-1.56c4.87,0.99,9.73,2.25,14.46,3.73c1.05,0.33,1.64,1.45,1.31,2.51C138.7,141.26,137.91,141.81,137.06,141.81z"/></g><g id="change3_5"><path fill="#27348b" d="M161.56,110.55c-0.34,0-0.69-0.08-0.99-0.25c-0.51-0.29-0.86-0.78-1-1.34c-7.81-7.26-15.5-14.84-22.87-22.53 c-0.76-0.8-0.74-2.06,0.06-2.83c0.8-0.76,2.06-0.74,2.83,0.06c7.49,7.81,15.31,15.51,23.25,22.87c0.55,0.51,0.87,1.19,0.86,1.87 c0,0.62-0.27,1.21-0.73,1.62C162.59,110.37,162.08,110.55,161.56,110.55z"/></g><g id="change3_6"><path fill="#27348b" d="M193.36,106.31c-0.75,0-1.47-0.42-1.81-1.14c-2.13-4.49-3.99-9.18-5.53-13.92 c-0.14-0.44-0.32-1.31,0.14-2.16c0.3-0.55,0.8-0.94,1.41-1.1c1.07-0.28,2.16,0.36,2.44,1.43c0.1,0.38,0.08,0.76-0.03,1.1 c1.45,4.41,3.19,8.76,5.17,12.94c0.47,1,0.05,2.19-0.95,2.66C193.94,106.25,193.65,106.31,193.36,106.31z"/></g><g id="change3_7"><path fill="#27348b" d="M229.24,107.06c-0.25,0-0.51-0.05-0.76-0.15c-1.02-0.42-1.51-1.59-1.09-2.61l7.75-18.87 c0.75-1.83,2-2.12,2.68-2.13c1.15,0,2.01,0.86,2.03,1.97c0.01,0.78-0.42,1.46-1.07,1.8l-7.7,18.75 C230.77,106.6,230.03,107.06,229.24,107.06z"/></g><g id="change3_8"><path fill="#27348b" d="M244.08,112.04c-0.37,0-0.74-0.1-1.07-0.31c-0.93-0.59-1.2-1.83-0.61-2.76c2.33-3.65,4.99-7.13,7.9-10.34 c0.74-0.82,2.01-0.88,2.83-0.14c0.82,0.74,0.88,2.01,0.14,2.83c-2.76,3.04-5.28,6.34-7.49,9.81 C245.39,111.72,244.74,112.04,244.08,112.04z"/></g><g id="change3_9"><path fill="#27348b" d="M266.54,129.42c-0.89,0-1.7-0.59-1.93-1.49c-0.28-1.07,0.36-2.16,1.42-2.44 c8.23-2.17,15.39-6.71,22.96-11.53c6.41-4.07,13.05-8.29,20.37-10.89c0.82-0.29,1.74-0.02,2.27,0.68c0.53,0.7,0.54,1.65,0.04,2.36 l-1.25,1.76c-0.64,0.9-1.89,1.11-2.79,0.47c-0.08-0.06-0.16-0.13-0.23-0.2c-5.67,2.46-11.03,5.87-16.25,9.19 c-7.5,4.76-15.25,9.69-24.09,12.02C266.88,129.4,266.71,129.42,266.54,129.42z"/></g><g id="change3_10"><path fill="#27348b" d="M287.97,170.54c-0.76,0-1.49-0.44-1.83-1.18c-0.45-1.01,0-2.19,1.01-2.64l9.52-4.27 c0.55-0.24,1.17-0.23,1.71,0.04c0.54,0.27,0.92,0.76,1.06,1.34l0.17,0.71c0.25,1.08-0.42,2.15-1.5,2.4 c-0.46,0.11-0.93,0.04-1.33-0.15l-7.99,3.58C288.52,170.48,288.24,170.54,287.97,170.54z"/></g><g id="change3_11"><path fill="#27348b" d="M288.37,197.47c-1.03,0-1.91-0.79-1.99-1.84c-0.09-1.1,0.73-2.07,1.83-2.16c12.19-1,24.46-2.77,36.45-5.25 c1-0.21,1.99,0.37,2.31,1.34c0.31,0.97-0.15,2.02-1.08,2.44l-1.23,0.55c-0.5,0.22-1.04,0.23-1.51,0.05 c-11.41,2.27-23.04,3.9-34.61,4.85C288.48,197.47,288.43,197.47,288.37,197.47z"/></g><g id="change3_12"><path fill="#27348b" d="M268.23,237.7c-1.07,0-1.96-0.85-2-1.93c-0.04-1.1,0.82-2.03,1.93-2.07l13.11-0.48 c1.15-0.03,2.03,0.82,2.07,1.93c0.04,1.1-0.82,2.03-1.93,2.07l-13.12,0.48C268.28,237.7,268.25,237.7,268.23,237.7z"/></g></svg>