<?xml version="1.0" encoding="UTF-8" standalone="no"?><svg xmlns="http://www.w3.org/2000/svg" xmlns:xlink="http://www.w3.org/1999/xlink" contentScriptType="text/ecmascript" fill="#000000" width="3203.5" zoomAndPan="magnify" contentStyleType="text/css" viewBox="475.5 986.1 3203.5 2476.9" height="2476.9" preserveAspectRatio="xMidYMid meet" version="1"><g><g><g id="change1_17"><path fill="#300000" d="M3365.2,2642.8c12.1,8.7,23.7,18,34.8,27.9c5.4,4.9,10.8,9.8,16,15c2.5,2.5,5,5,7.4,7.5 c1.2,1.3,2.4,2.5,3.7,3.8c1.4,1.5-0.4-0.5-0.6-0.6c0.9,0.9,1.7,1.8,2.6,2.8c19.9,21.7,37.7,45.3,53.2,70.3 c3.8,6.2,7.5,12.5,11.1,18.9c0.6,1,2.7,4.9,1.1,1.9c0.8,1.6,1.7,3.1,2.5,4.7c1.8,3.3,3.5,6.7,5.2,10.1c6.6,13.3,12.6,27,18,40.9 c5.4,13.9,10.1,28,14.2,42.4c1,3.4,1.9,6.8,2.8,10.2c0.4,1.5,0.8,2.9,1.1,4.4c0.8,3.3,0.2,0.6,0,0c0.3,1.2,0.6,2.5,0.9,3.7 c1.7,7.1,3.2,14.3,4.5,21.5c3.1,16.4,5.3,33,6.7,49.6c0.7,8.1,1.1,16.2,1.3,24.3c0.1,4.3,0.2,8.6,0.2,12.9c0,2,0,4.1,0,6.1 c0,2.1,0-0.6,0-0.8c0,1.5-0.1,3-0.1,4.6c-0.3,9.3,4.7,19.3,15.1,20.4c8.7,0.9,20.1-5.1,20.4-15.1c1.7-63-8-125.6-29.2-185 c-20.6-57.8-52-112.3-92.3-158.5c-23.2-26.6-49.1-50.8-77.7-71.5c-7.6-5.5-19.2-5.6-25.2,2.5 C3357.1,2624.9,3357,2636.9,3365.2,2642.8L3365.2,2642.8z"/></g><g><g><g id="change1_10"><path fill="#300000" d="M3559.8,3044.1c4.8,0.4,9.3,1.3,13.7,2.7c4.3,1.4,8.4,3.3,12.3,5.7c20.9,14.2,37.6,36.9,35.6,64.6 c-0.3,4.2-1,8.4-2.1,12.4c-4.9,26.3-30.6,44.6-55.5,40.3c-39.1-7.3-47-56.9-31-90.4c2.4-5.7,5.3-11.1,8.8-16 c3.3-4.6,7-8.9,11.4-12.7C3554.9,3048.8,3557.3,3046.6,3559.8,3044.1z"/></g><g id="change1_3"><path fill="#300000" d="M3557.5,3060.1c3.5,0.3,7,0.8,10.4,1.7c-2.9-0.8,2.4,0.9,2.3,0.9c1.6,0.6,3.1,1.3,4.6,2.1 c0.4,0.2,4.9,3.1,1.8,0.9c1.1,0.7,2.1,1.5,3.1,2.3c2.1,1.6,4.1,3.2,6,4.9c1,0.9,1.9,1.7,2.9,2.7c0.5,0.4,3.4,3.6,0.8,0.7 c1.7,1.9,3.4,3.9,5,6c1.3,1.7,2.5,3.5,3.7,5.3c0.7,1.1,1.4,2.2,2,3.3c-2-3.4,0.6,1.5,0.9,2.2c1.1,2.4,2,4.8,2.7,7.3 c0.3,0.8,0.5,1.7,0.7,2.5c-1-3.7,0,0.6,0.1,1.2c0.5,2.6,0.7,5.3,0.9,8c0,0.6-0.2,5,0,1.4c-0.2,2.1-0.3,4.1-0.6,6.1 c-0.4,2.6-1,5.1-1.5,7.7c-0.3,1.3-0.5,2.6-0.9,3.9c1.1-4-0.2,0.1-0.4,0.8c-0.9,2.4-2.1,4.7-3.4,7c2-3.7-0.1-0.1-0.5,0.6 c-0.7,1-1.5,2-2.4,3c-0.8,1-1.7,1.9-2.6,2.8c-2.8,3,2.6-1.9-0.7,0.6c-2,1.5-4,3-6.1,4.4c-3.3,2.3,3-1.2-0.7,0.4 c-0.9,0.4-1.9,0.9-2.8,1.3c-1,0.4-1.9,0.8-2.9,1.1c-0.8,0.3-1.6,0.5-2.4,0.7c2-0.5,2.1-0.5,0.4-0.1c-2.5,0.4-4.9,0.7-7.4,0.8 c-4,0.3,3.2,0.6-0.8-0.1c-1-0.2-2.1-0.2-3.1-0.4c-1-0.2-2-0.4-3.1-0.6c-4-0.8,3.2,1.4-0.5-0.2c-1.6-0.7-6.5-1.8-7.3-3.4 c0.6,0.4,1.2,0.7,1.8,1.1c-0.6-0.4-1.2-0.8-1.8-1.3c-0.9-0.7-1.8-1.4-2.6-2.1c-0.6-0.5-1.1-1-1.6-1.5c-2.8-2.4,2.1,2.8-0.2-0.2 c-1.4-1.8-2.7-3.5-3.9-5.3c-0.6-0.9-2.8-3.3-0.3-0.2c-0.9-1.1-1.4-2.8-1.9-4.1c-0.7-1.8-1.4-3.5-2-5.4c-0.3-1.1-0.7-2.2-1-3.3 c1.1,4,0.1,0.2,0-0.6c-0.9-4.7-1.2-9.5-1.3-14.2c0.1,4.2,0,0.1,0.1-0.7c0.1-1.6,0.2-3.2,0.4-4.8c0.3-2.8,0.8-5.6,1.4-8.4 c0.2-0.8,0.4-1.6,0.6-2.4c0.2-0.8,0.4-1.6,0.6-2.3c-0.6,2.2-0.7,2.4-0.1,0.7c1-2.6,1.9-5.2,3.1-7.8c1.5-3.4,3.1-6.8,4.9-10.1 c0.2-0.4,1.7-2.7,0.3-0.6c1.2-1.9,2.5-3.7,3.9-5.4c5.4-7,9.5-10,16.3-16.6c6.1-5.8,4.1-17.9-2.3-22.7c-7.7-5.7-16.1-4-22.7,2.3 c-0.6,0.6-1.3,1.2-1.9,1.8c-2,1.9,1.4-1.3-0.4,0.4c-1.5,1.4-2.9,2.7-4.4,4.1c-3.4,3.2-6.7,6.5-9.6,10.2 c-5.3,6.8-9.6,14.5-13.1,22.3c-4.9,11-8.2,22.9-8.9,35c-1.3,24.6,5.7,52.4,27.1,67.3c23.2,16.1,54.7,14.6,76.1-4.1 c23-20,30.1-53,21.6-81.8c-9.2-31-39.2-58.2-71.7-61.1c-8.4-0.8-17.4,4.6-18.3,13.6C3543.1,3050,3548.5,3059.3,3557.5,3060.1z"/></g></g><g id="change1_13"><path fill="#300000" d="M3515.7,3077.3c-1.4,2.2-2.7,4.5-4.3,6.5c-0.4,0.6-0.9,1.2-1.4,1.8c0.3-0.3,0.7-0.6,1-1 c0.9-0.1,5.6-1.7,5.9-0.9c-0.5,0-1-0.1-1.5-0.2c-0.9-0.2-0.7-0.1,0.5,0.2c1.2,0.4,1.4,0.4,0.5,0.1c-0.5-0.2-1-0.4-1.5-0.6 c-2.6-0.9,1.1,0.3,0.9,0.6c-0.3-0.2-0.6-0.4-0.9-0.6c-1-0.9-1.1-0.9-0.1,0.1c0.8,0.9,0.9,1,0.4,0.4c-0.3-0.4-0.6-0.8-0.9-1.2 c0.7-0.1,1.5,3.6,1.6,4.1c-0.4-2.8,0.3,2.8,0.1,0.9c-0.1-1.1-0.8,1.6,0,0.1c0.6-1.1,1-2.3,1.5-3.4c0.6-1.3,0.8-1.6-0.1-0.2 c1.3-2.1,2.9-3.9,4.5-5.8c0.8-1,1.3-1.4,0.1-0.3c0.9-0.9,1.9-1.6,2.8-2.4c1.8-1.4,3.6-2.7,5.5-3.9c0.8-0.5,1.7-1,2.6-1.5 c-2.4,1.4,0.5-0.2,1-0.5c2-1,4.1-1.8,6.1-2.7c9.3-4,18.8-7.5,28.7-10c-3.9-10-7.7-20-11.6-30c-13,3.4-24.7,13.1-31.2,24.7 c-3,5.4-6.1,10.8-8.7,16.4c-1.1,2.3-2.1,4.6-3,7c-1.8,4.7-2,9.1-1.9,14.1c0.2,8.4,9.7,15.5,17.8,14.2 c9.2-1.4,14.5-8.8,14.2-17.8c-0.1-4-0.6,2.6-0.7,2.5c-0.1-0.1,1.1-2.5,1.1-2.8c0.9-2.1,1.9-4.3,2.9-6.4 c2.1-4.3,4.5-8.6,6.9-12.7c-0.9,1.5-0.2,0.3,0.4-0.4c0.7-0.8,1.3-1.6,2-2.4c0.8-0.9,1.4-1.6,0.1-0.3c0.7-0.7,1.4-1.3,2.2-1.8 c0.8-0.6,1.5-1.1,2.3-1.7c3.2-2.3-1.3,0.2,0.8-0.5c2.1-0.7,4.2-1.6,6.4-2.2c8.2-2.1,12.4-13.5,9.2-20.8 c-3.8-8.8-12.1-11.4-20.8-9.2c-12.8,3.3-25.7,7.9-37.5,14c-13.6,7.1-25.8,17.2-32.2,31.5c-3.2,7.4-5,15.3-2.2,23.1 c2.6,7.2,8.2,12.3,14.7,16.1c6.3,3.7,15.3,5.5,22.3,3c8.7-3.1,13.6-9.6,18.4-17c4.6-7,5.2-17.1-2.3-22.7 C3532,3070.3,3520.7,3069.7,3515.7,3077.3z"/></g></g></g><g id="change2_1"><path fill="#111111" opacity="0.05" d="M1471.1,3375.1c-6.4,51.1,75,59.1,106.3,65.4c111,22.5,223.9,4.3,334.7-10.4c12.5-2.6,25.1-5.1,37.7-7.2 c115.7-19.3,229,14.7,344.5,18.6c95.9,3.2,192.4,1.5,288.1-12c15.2-2.1,41.6-4.4,51.2-24.8c9.7-20.5-0.4-36.2-14.5-43.2 c-68.2-33.6-142.4-33.7-213.7-37.2c-145.1-7.2-288.3,40.4-432.9,28.5c-32.2-2.6-64-9.8-95.9-16.5c-10.6-2.2-21.2-4.4-31.9-6.4 c-60.7-11.2-122.8-13.1-184.2-9.2c-31.4,2-62.7,5-93.8,9.5c-25.7,3.8-60.2,4.3-82,20.9C1476.6,3357.4,1472.2,3366,1471.1,3375.1z"/></g><g><g id="change1_6"><path fill="#300000" d="M2309.5,2753.8c-1.2,16.7-2.2,33.5-4.3,50.3v-1c0,2.1,0,5.2-0.4,7.7c-1.9,19.7-4.1,39.4-6.4,58.9 c-4.7,39.7-10.3,79.2-16.4,118.6c-12.1,78.3-26.3,155.8-40.9,233.2c-8.3,43.8-16.6,87.6-24.8,131.5c-2.7,14.4,3.4,31.7,13.9,35.2 c10.5,3.4,21.6-4.5,24.5-20c29.2-156.6,61.1-312.6,80.8-472.4c2.9-23.4,5.5-46.9,7.8-70.4c2.3-23.5,4.4-47.2,6.1-71.1 c1.1-15.1-9.9-29.9-19.9-29.4C2317.7,2725.4,2310.7,2737.4,2309.5,2753.8L2309.5,2753.8z"/></g><g><g id="change1_2"><path fill="#300000" d="M2234.4,3373c4.5,2.6,9.2,5,14.1,7.2s9.9,4.1,15,5.8c18.6,4,42.9,9.6,65.2,8.8c5.6-0.2,11-0.8,16.2-2 c3.8-0.8,7.9-1.8,12.1-3.2c4.1-1.4,8.2-3.2,11.7-5.4c11.7-6.1,11.7-19.7,6.9-30.4c-6.8-11.7-14.6-21.4-26.3-27.1 c-3.1-1.6-6.3-2.9-9.5-4c-29.1-9.7-63.2,0-85.7,23.7c-2,2-3.9,4-5.8,6.1c-2.2,5.5-8.1,8.4-10.4,13.9 C2236.6,3368.5,2235.5,3370.7,2234.4,3373z"/></g><g id="change1_16"><path fill="#300000" d="M2225.8,3387.8c12.7,7.2,26.3,13.2,40.5,16.3c14.3,3,28.6,5.8,43.2,7.1c15.1,1.4,30.3,0.7,44.9-3.1 c13.8-3.5,29.8-9.9,36.9-23.2c13.8-26-7.3-57.3-29.5-70.9c-22.8-13.9-52.6-15.5-77.4-6.7c-14.6,5.2-27.8,13.1-39.1,23.7 c-2.3,2.2-4.5,4.5-6.7,6.8c-1.7,1.9-3.6,3.8-4.9,5.9c-0.3,0.8-0.8,1.6-1.3,2.4c1.3-1.7,1.4-1.8,0.1-0.3 c-5.5,5.4-9.5,11.7-12.8,18.6C2215.9,3372.5,2217.2,3383.2,2225.8,3387.8c7.6,4,19.2,2.5,23.3-6.1c1.1-2.3,2.3-4.5,3.5-6.7 c0.4-0.8,2.8-4,0.3-1c0.6-0.7,1.2-1.3,1.8-2c2.2-2.4,4.4-4.7,6.3-7.4c0,0,2.1-3.7,1-1.7c-0.9,0.9-0.6,0.6,0.7-0.7 c0.8-0.8,1.5-1.6,2.3-2.4c1.8-1.9,3.6-3.7,5.5-5.5c0.7-0.7,1.5-1.4,2.3-2c-0.1,0.1,3.7-3,1.8-1.5c-1.9,1.5,2-1.4,1.9-1.3 c1-0.7,2.1-1.4,3.1-2.1c2.3-1.5,4.7-2.8,7.1-4.1c1.3-0.7,2.7-1.3,4-1.9c-0.6,0.3-3.1,1.2,0,0c2.3-0.9,4.6-1.7,6.9-2.4 c2.3-0.7,4.7-1.3,7.1-1.8c0.9-0.2,1.9-0.3,2.8-0.5c2-0.3,1.9-0.3-0.2,0c1-0.1,1.9-0.2,2.9-0.3c4.3-0.3,8.6-0.3,12.9,0 c0.8,0.1,5.3,0.9,1.1,0.1c0.9,0.2,1.9,0.3,2.8,0.5c2.8,0.6,5.6,1.3,8.3,2.2c-0.4-0.1,4.8,1.8,2.8,1c-2-0.8,3.1,1.5,2.7,1.3 c2.2,1.1,4.3,2.4,6.3,3.7c2.7,1.8,0.5,0.4,0,0c1.1,0.9,2.2,1.9,3.2,2.9c0.7,0.7,1.4,1.4,2,2.1c0.4,0.4,3.6,4.2,2.4,2.7 c-1.5-1.9,1.4,2,1.3,1.9c0.6,0.8,1.1,1.7,1.7,2.5c0.8,1.3,1.6,2.6,2.4,3.9c1.9,2.8,0.3,0.4,0-0.4c0.4,1.1,2.2,4.8,1.7,6.1 c-0.1-0.7-0.2-1.4-0.3-2.1c0.1,0.8,0.1,1.6,0.1,2.5c0,0.4,0,0.8,0,1.2c-0.2,1.9-0.1,1.6,0.1-1c-0.2-0.1-0.3,2.2-0.6,2.3 c0.3-0.6,0.5-1.3,0.8-1.9c-0.4,0.7-0.8,1.4-1.2,2c1.5-2.9,0.9-1.6,0.3-0.7c0.5-0.3,1-0.7,1.5-1c-0.7,0.5-1.5,1-2.3,1.4 c-0.9,0.5-1.8,1.1-2.8,1.6c-0.2,0.1-5,2.3-1.8,1c-2.7,1.1-5.5,2-8.4,2.8c-2.8,0.8-5.7,1.4-8.5,2c0,0-5.7,0.8-2.6,0.5 c-1.2,0.1-2.4,0.2-3.6,0.3c-6.4,0.5-12.9,0.3-19.4-0.2c-3.2-0.2-6.4-0.6-9.7-1c-3.3-0.4,4,0.7-1.6-0.2c-1.7-0.3-3.4-0.5-5.2-0.8 c-6.6-1.1-13.2-2.4-19.7-3.8c-6-1.3-11.6-2.8-17.4-5c-5.3-2,1.4,0.7-1.7-0.7c-1.9-0.8-3.8-1.7-5.6-2.6c-3.1-1.5-6.2-3.2-9.3-4.9 c-7.7-4.4-19-2.1-23.3,6.1C2215.4,3372.5,2217.5,3383,2225.8,3387.8z"/></g></g></g><g><g id="change1_5"><path fill="#300000" d="M1731.9,2754.6c0.7,9.9,1.5,19.8,2.3,29.6c0.4,4.7,0.8,9.3,1.2,14c0.2,2.1,0.4,4.1,0.6,6.2 c-0.4-3.8,0.5,5.3,0.6,6.4c1.9,19.7,4.1,39.3,6.4,58.9c4.7,39.7,10.3,79.2,16.4,118.6c12.1,78.3,26.3,155.8,40.9,233.2 c8.3,43.8,16.6,87.6,24.8,131.5c2.7,14.4-3.4,31.7-13.9,35.2c-10.5,3.4-21.6-4.5-24.5-20c-29.2-156.6-61.1-312.6-80.8-472.4 c-2.9-23.4-5.5-46.9-7.8-70.4c-2.3-23.5-4.3-47.1-6.1-70.8c-1.1-14.9,9.9-29.3,19.8-28.6 C1723.6,2726.7,1730.7,2738.5,1731.9,2754.6L1731.9,2754.6z"/></g><g><g id="change1_9"><path fill="#300000" d="M1807,3373c-4.5,2.6-9.2,5-14.1,7.2c-4.9,2.2-9.9,4.1-15,5.8c-18.6,4-42.9,9.6-65.2,8.8 c-5.6-0.2-11-0.8-16.2-2c-3.8-0.8-7.9-1.8-12.1-3.2c-4.1-1.4-8.2-3.2-11.7-5.4c-11.7-6.1-11.7-19.7-6.9-30.4 c6.8-11.7,14.6-21.4,26.3-27.1c3.1-1.6,6.3-2.9,9.5-4c29.1-9.7,63.2,0,85.7,23.7c2,2,3.9,4,5.8,6.1c2.2,5.5,8.1,8.4,10.4,13.9 C1804.8,3368.5,1806,3370.7,1807,3373z"/></g><g id="change1_8"><path fill="#300000" d="M1815.6,3387.8c-12.7,7.2-26.3,13.2-40.5,16.3c-14.3,3-28.6,5.8-43.2,7.1c-15.1,1.4-30.3,0.7-44.9-3.1 c-13.8-3.5-29.8-9.9-36.9-23.2c-13.8-26,7.3-57.3,29.5-70.9c22.8-13.9,52.6-15.5,77.4-6.7c14.6,5.2,27.8,13.1,39.1,23.7 c2.3,2.2,4.6,4.5,6.7,6.8c1.7,1.9,3.6,3.8,4.9,5.9c0.3,0.8,0.8,1.6,1.3,2.4c-1.3-1.7-1.4-1.8-0.1-0.3 c5.5,5.4,9.5,11.7,12.8,18.6C1825.6,3372.5,1824.2,3383.2,1815.6,3387.8c-7.6,4-19.2,2.5-23.3-6.1c-1.1-2.3-2.3-4.5-3.5-6.7 c-0.4-0.8-2.8-4-0.3-1c-0.6-0.7-1.2-1.3-1.8-2c-2.2-2.4-4.4-4.7-6.3-7.4c0,0-2.1-3.7-1-1.7c0.9,0.9,0.6,0.6-0.7-0.7 c-0.8-0.8-1.5-1.6-2.3-2.4c-1.8-1.9-3.6-3.7-5.5-5.5c-0.7-0.7-1.5-1.4-2.3-2c0.1,0.1-3.7-3-1.8-1.5c1.9,1.5-2-1.4-1.9-1.3 c-1-0.7-2.1-1.4-3.1-2.1c-2.3-1.5-4.7-2.8-7.1-4.1c-1.3-0.7-2.7-1.3-4-1.9c0.6,0.3,3.1,1.2,0,0c-2.3-0.9-4.6-1.7-6.9-2.4 c-2.3-0.7-4.7-1.3-7.1-1.8c-0.9-0.2-1.9-0.3-2.8-0.5c-2-0.3-1.9-0.3,0.2,0c-1-0.1-1.9-0.2-2.9-0.3c-4.3-0.3-8.6-0.3-12.9,0 c-0.7,0.1-5.3,0.9-1.1,0.1c-0.9,0.2-1.9,0.3-2.8,0.5c-2.8,0.6-5.6,1.3-8.3,2.2c0.4-0.1-4.8,1.8-2.8,1c2-0.8-3.1,1.5-2.7,1.3 c-2.2,1.1-4.3,2.4-6.3,3.7c-2.7,1.8-0.5,0.4,0,0c-1.1,0.9-2.2,1.9-3.2,2.9c-0.7,0.7-1.4,1.4-2,2.1c-0.4,0.4-3.6,4.2-2.4,2.7 c1.5-1.9-1.4,2-1.3,1.9c-0.6,0.8-1.1,1.7-1.7,2.5c-0.8,1.3-1.6,2.6-2.4,3.9c-1.9,2.8-0.3,0.4,0-0.4c-0.4,1.1-2.2,4.8-1.7,6.1 c0.1-0.7,0.2-1.4,0.3-2.1c-0.1,0.8-0.1,1.6-0.1,2.5c0,0.4,0,0.8,0,1.2c0.2,1.9,0.1,1.6-0.1-1c0.2-0.1,0.3,2.2,0.6,2.3 c-0.3-0.6-0.5-1.3-0.8-1.9c0.4,0.7,0.8,1.4,1.2,2c-1.5-2.9-0.9-1.6-0.3-0.7c-0.5-0.3-1-0.7-1.5-1c0.7,0.5,1.5,1,2.3,1.4 c0.9,0.5,1.8,1.1,2.8,1.6c0.2,0.1,5,2.3,1.8,1c2.7,1.1,5.5,2,8.4,2.8c2.8,0.8,5.7,1.4,8.5,2c0,0,5.7,0.8,2.6,0.5 c1.2,0.1,2.4,0.2,3.6,0.3c6.4,0.5,12.9,0.3,19.4-0.2c3.2-0.2,6.4-0.6,9.7-1c3.3-0.4-4,0.7,1.6-0.2c1.7-0.3,3.4-0.5,5.2-0.8 c6.6-1.1,13.1-2.4,19.7-3.8c6-1.3,11.6-2.8,17.4-5c5.3-2-1.4,0.7,1.7-0.7c1.9-0.8,3.8-1.7,5.6-2.6c3.1-1.5,6.2-3.2,9.3-4.9 c7.7-4.4,19-2.1,23.3,6.1C1826,3372.5,1823.9,3383,1815.6,3387.8z"/></g></g></g><g id="change3_1"><path fill="#ff97a4" d="M3614.2,2296.2c-26-96-87.4-178.3-169.2-234.2c-75.4-51.6-165.9-78.8-256.7-76.6c-3.4,0.1-5.3-4-2.9-6.5 c36.9-39.1,58.4-93.5,64.5-145.9c8.5-72.3-11-147.4-44.7-211.2c-71.2-134.8-213.9-226.7-367.7-225c-49.2,0.5-97,10.2-136.6,34.1 c-2.8,1.7-6.3-0.7-5.8-3.9c6.2-37,2-76.1-9.3-112.5c-23.6-76.2-71.6-140.4-139.6-182.4c-131.6-81.3-317.5-71.4-423.5,48.4 c-27.8,31.5-49,69.1-60.1,109.7c0,0,0,0.1,0,0.1c-1,3.5-5.7,3.9-7.2,0.7c-48.4-102.4-174.2-165.8-284-174 c-114.4-8.6-235.4,38.6-294.3,141c-8.2,14.2-15.2,29.2-21.2,44.7c-4.5,11.8-8.4,23.8-11.5,36c-8.5,33.5-11.3,68.6-9.4,102.6 c0.2,2.8-2.7,4.8-5.3,3.8c-90.9-36.4-194.4-34.9-286.2-2c-18.4,6.6-36.2,14.4-53.5,23.5c-200.4,111.8-301.9,393-182.5,595.9 c-29.5-3.9-57.8-3.9-86.9-0.5c-28.7,3.7-57,11.4-84.1,23.7c-17.8,7.9-34.8,17.8-50.7,29.7c-12.7,8.8-24.9,18.4-36.6,28.6 c-46.7,40.9-84.5,92.3-108,149.3c-65.7,159.8-7.6,360.7,131.3,462.5c92.3,67.7,221.1,82,325.3,35.3c2.4-1.1,5.1,0.4,5.4,3 c22.1,162.3,226.1,259.8,375.9,236.7c41.5-6.4,80.5-22.3,114.8-45.9c2.1-1.4,5-0.5,5.8,2c29,86.4,117.2,133.7,203.6,151.7 c85.3,17.8,186.6,18.4,267.4-17.5c33.3-14.8,60.9-37.7,79.3-67.5c1.6-2.5,5.2-2.5,6.7,0.1c14.7,26.9,39.4,48.3,68.2,59.5 c52.9,20.6,114.7,28.2,171.2,25.3c88.3-4.5,182.5-40.3,240.7-109.1c18.6-22,32.4-46.7,40.9-73.3c1-3.1,5.1-3.7,6.9-1 c31.7,48.2,88,78.3,147.3,79.8c46.3,1.2,90.3-18,131-38.2c47.2-23.4,94.2-54.7,127.5-96.1c26.7-33.2,43.9-73.5,46.2-115.6 c0.2-2.9,3.3-4.6,5.8-3.1c88,53.4,196.6,63.6,295.4,33.2c108.8-33.5,199.6-110.7,248.4-213.6 C3631.2,2507.2,3641.6,2397.3,3614.2,2296.2z"/></g><g id="change4_7"><path fill="#ff7d99" d="M2750.7,1409.9c-19.6,5.2-38.9,11.6-53,25.7c1-6.7,1.7-13.5,2.1-20.2c3-45.3-4.7-90.2-22.8-131.2 c-3.7-8.7-7.8-17.1-12.4-25.3c-31.9-57.1-84.1-101.5-140.3-134.1c22,18.9,40.8,40.6,56.4,64.4c5.2,7.9,10,16.1,14.5,24.4 c4.5,7.8,8.5,15.8,12.2,23.9c37.7,86.3,33.9,183.9,13.3,273.5c-2,7.5-4.2,15.1-5.8,22.2c-3.2,14.3-3.8,26.8,4.5,33.2 c20.5,14.1,46.2-32.1,71.5-47.6c4.2-3.6,8.3-7.3,12.5-11c13.8-12.4,29.1-23.5,43.9-34.9c3.7-2.9,7.4-5.8,11-8.7 c21.5-17.2,43.3-37.7,49.7-66c-14.1,2.6-29.5,5.1-44,8.6C2759.6,1407.9,2755.1,1408.9,2750.7,1409.9z"/></g><g id="change4_8"><path fill="#ff7d99" d="M3614.2,2296.2c-26-96-87.4-178.3-169.2-234.2c-39.1-26.7-82.1-46.9-127.2-59.8c-15-4.3-30.3-7.8-45.7-10.5 c-31.2-3.8-60.8-10.2-91.6-3.8c70.6-73.2,86-182.4,60.4-279.9c-25.7-99.5-92.4-179.4-175.3-233.6c-16.6-10.8-33.8-20.7-51.5-29.4 c-96.8-47.7-221.4-68.3-317.7-7.9c155.4-6.4,308.2,97.6,350.5,247.9c4.7,17,7.8,34.6,9.1,52.5c7.7,129.7-86,227.3-172.1,315.9 c-16.7,16.7-18,44.9-2.6,64.2c12.2,15.4,27.9,24.7,45.3,30c17.3,5.3,36.3,6.6,54.9,5.9c3.9,0,9,5.1,12.8,5.1 c132.7,0,245.1,34.5,342,126.6c43,40.9,81.6,109,50.8,167.7c-20.5,39.1-40.5,78.3-66.7,114c-14.1,19.3-34.7,36-57.8,48.8 c-61.6,36-131,3.9-193.9-11.6c0-1.3,1.3-2.6,1.3-3.9c-23.1-5.1-44.9-15.4-66.8-25.7c-19.3-7.7-42.4-15.4-62.6-6 c-1.6-0.4-4.2-0.4-5.5,0.9c0,1.3,1.3,3.9,1.3,5.1c-15.4,3.9-25.7,16.7-30.8,29.5c-30.8,71.9-50.1,173.4-141.3,190.1 c-71.9,12.8-129.7-27-190.1-57.8c-14.8-7.1-31.1-9-46.7-6.3c-18.8,2.4-34.2,14-47,28.1c-47.5,53.9-77,120.7-141.3,156.7 c-33.4,18-65.2,20.5-95.7,13.8c-10.2-2.2-20.2-5.5-30.1-9.6c-52.7-20.9-95.1-58.1-145.1-85.1c-5.1-2.6-11.6-6.4-16.7-2.6 c-48.8,30.8-84.8,73.2-141.7,86.8c-16.5,5-33.6,8.7-50.8,10.9c-25.8,3.2-51.8,3-77-1c-8.4-1.4-16.7-3.1-24.9-5.4 c-38.4-8.9-68.7-29.2-92.8-55.7c-6-6.6-11.7-13.6-17-21c-5.2-7.4-9.9-15.1-14.2-23.1c-4.3-8-8.3-16.2-12.2-24.5 c-21.8-41.5-30.3-131.6-80.9-109c-61.9,28.1-115.4,95.7-189.4,105.7c-9.4,0.7-19,0.6-28.7-0.3c-19.5-1.8-39.6-7-60.4-16.2 c-7.3-2.3-14.6-5.2-21.9-8.5s-14.4-7.3-21.6-11.8c-61.6-38.5-73.2-107.9-113-165.7c-10.3-16.7-32.1-15.4-50.1-14.1 c-11.8,1.3-23.5,3-35.1,4.9c-58.3,9.6-115.3,24.4-173.7,17c-16.4-2.1-32.6-5.7-48.5-11.4c-15.9-5.7-31.6-13.3-47-23.4 c-124.6-82.2-128.4-259.4-45.7-369.4c9.3-13.6,19.5-26.4,30.6-38.3c55.5-59.5,133.1-97.8,214.2-103.4 c-186.2-33.4-378.8,106.6-425.9,285.9c-4.3,16.6-7.4,33.6-9,50.9c-1.7,19.4-1.9,39-0.9,58.6c5.5,117,60.8,235.1,157,305 c15.9,11.6,32.9,21.9,51,30.6c17.4,8.4,35.6,15.2,54.2,20.4c62,17.3,129.1,16.8,190.3-2.9c12.2-3.9,24.2-8.6,35.9-14.1 c2.3,20.7,7.6,40.3,15.3,58.8c54,129.6,228.8,203.5,361.3,183c43.2-6.7,83.7-23.6,119-48.8c27.2,89.5,117.2,138.3,205.2,156.7 c85.3,17.8,186.6,18.4,267.4-17.5c35.5-15.7,64.5-40.8,82.8-73.5c14.2,29.7,40.4,53.5,71.3,65.6c52.9,20.6,114.7,28.2,171.2,25.3 c88.3-4.5,182.5-40.3,240.7-109.1c20.5-24.2,35.2-51.8,43.3-81.5c15.3,26.2,37.7,47.6,64.1,62.6c13.2,7.5,27.3,13.4,42.1,17.6 c85.9,23,170.7-18.1,245.1-65.6c64.2-41.1,106.6-106.6,107.9-181.1c14.1,7.7,28.3,15.4,44,21.8c15.7,6.7,32.1,12.4,48.8,16.8 c66.8,17.8,138.6,15.9,205.8-4.8c108.8-33.5,199.6-110.7,248.4-213.6C3631.2,2507.2,3641.6,2397.3,3614.2,2296.2z"/></g><g id="change4_5"><path fill="#ff7d99" d="M2372.9,1402.6c-24.6-26.5-60.4-37.1-96.9-32.6c-45.2,5.6-78.7,36.4-97.5,74.7 c-17.1,34.3-30.1,72.7-22.3,112.9c0.6,3,1.3,6.3,2.1,9.7c0.4,1.7,0.9,3.4,1.4,5.1c1,2.4,2,5.2,3.1,8.2c2.9,9.9,8,18.9,18.3,22.7 c11.6,2.6,19.3-9,23-19c1-2.5,1.9-5.1,2.6-7.8c3.1-10.7,4.9-22.6,8.5-33.5c0.7-3.1,1.4-6,2-9c7-32,14.3-64.4,39.1-88.1 c33-29.8,79-23.2,117.8-38.7C2373.9,1405.9,2373.5,1404.3,2372.9,1402.6z"/></g><g id="change4_4"><path fill="#ff7d99" d="M2787.6,2321.7c-2.2,34.3,13.9,66.1,40.8,88.3c33.4,27.6,76.6,30.6,115.4,18.6c34.9-10.6,69.9-26.8,92.7-58.4 c11.1-15.1,25.7-41.6,7.9-53.9c-6.4-5.4-17.7,3.2-27.4,6.7c-39.9,18-75.7,53.3-123.2,50.8c-42.2-3.3-67.6-39.4-103.8-56.2 C2789.2,2318.8,2788.4,2320.1,2787.6,2321.7z"/></g><g id="change4_2"><path fill="#ff7d99" d="M1506.4,1791.9c-2.2,34.3,13.9,66.1,40.8,88.3c33.4,27.6,76.6,30.6,115.4,18.6c34.9-10.6,69.9-26.8,92.7-58.4 c11.1-15.1,25.7-41.6,7.9-53.9c-6.4-5.4-17.7,3.2-27.4,6.7c-39.9,18-75.7,53.3-123.2,50.8c-42.2-3.3-67.6-39.4-103.8-56.2 C1508.1,1789,1507.3,1790.4,1506.4,1791.9z"/></g><g id="change4_3"><path fill="#ff7d99" d="M2538.5,1731.6c-2.2,34.3,13.9,66.1,40.8,88.3c33.4,27.6,76.6,30.6,115.4,18.6c34.9-10.6,69.9-26.8,92.7-58.4 c11.1-15.1,25.7-41.6,7.9-53.9c-6.4-5.4-17.7,3.2-27.4,6.7c-39.9,18-75.7,53.3-123.2,50.8c-42.2-3.3-67.6-39.4-103.8-56.2 C2540.1,1728.7,2539.3,1730,2538.5,1731.6z"/></g><g id="change4_1"><path fill="#ff7d99" d="M2962.4,1529.1c-11.6-34.3-34.8-65.2-62-90.5c-5.1-4.2-10.3-8-15.8-11.6c-5.9-3.9-11.9-7.5-18-10.8 c-7.8-4.3-15.8-7.7-23.9-10.2c-40.5-12.8-83.5-5-120.3,14.8c-39.8,21-78.5,48.9-98.6,92.5c-9.9,20.9-21.4,56.4,3,67.2 c9,5,20.7-8,31.7-14.6c29.5-20.8,54.9-50.5,85.8-70.3c7.7-5,15.8-9.3,24.4-12.8c15.4-5.6,31.1-8.3,46.9-8.6 c7.9-0.2,15.8,0.2,23.8,1.1c7.9,0.3,15.5,1.4,22.9,3.2c7.4,1.8,14.6,4.3,21.6,7.2c28.6,11.7,54.2,31,78.9,49.4 C2962.6,1533.3,2962.5,1531.3,2962.4,1529.1z"/></g><g id="change4_9"><path fill="#ff7d99" d="M2197.4,1598.8c4.3-10.8-2.1-21.1-1.4-30.7c-0.8-2.6-1.6-5.2-2.6-7.8c-8.5-23-23.7-43.7-43.6-60.3 c-41.9-34.9-96.2-38.9-145.1-23.9c-43.9,13.2-88.1,33.3-116.9,73c-14,19-32.6,52.2-10.2,67.7c8,6.8,22.3-3.9,34.6-8.4 c50.3-22.4,95.5-66.7,155.2-63.2c33.5,2.8,58.5,21.9,83.8,41c2.3,1.7,4.6,3.5,6.9,5.2c10.2,8.2,23.1,12,36.3,10.7 C2195.2,1601.1,2196.2,1600,2197.4,1598.8z"/></g><g id="change4_6"><path fill="#ff7d99" d="M950.2,2248.3c-7.8,13.3-7.9,26.5-3.4,38.9c8.9,24.8,36,46.8,55.6,61.2c3.1,2.1,6.2,4,9.3,5.9 c3.1,1.9,6.3,3.6,9.4,5.3c72.6,28.9,157.3,0.6,212.6-52c19.3-18,37.2-39.8,37.2-66.8c-1.3-10.3-9-23.1-20.5-19.3 c-32.1,11.6-59.1,30.8-88.6,51.4c-60.4,41.1-127.1,23.1-175.9-24.4c-7.7-7.7-20.5-7.7-31.5-3.2 C953,2246.1,951.7,2247.1,950.2,2248.3z"/></g><g><g><g><g id="change5_2"><path fill="#ffffff" d="M2265.1,2310.9c-0.7-13.4,0.3-26.9,3-40.1c14.2-70.9,77.7-125.2,148.3-134.7 c117.5-15.8,220,108.7,174.4,220.6c-42.4,103.9-192.3,131.9-275.5,60.8C2284.1,2390.8,2267.1,2351.3,2265.1,2310.9z"/></g></g></g></g><g><g><g><g id="change1_1"><path fill="#300000" d="M2321.8,2304.3c-1.8-18.9,1-38.1,8.9-55.4c19-41.8,62-64.3,106.4-65.7c4.4-0.1,9.4,0.6,12.8,3.7 c8.2,7.7-2.1,18.7-7.4,24.6c-14.4,15.9-16.1,34.8-5.6,53.4c9.2,16.5,27,30.1,46.7,28.1c7-0.7,13.6-3.4,19.4-7.4 c6.9-4.8,10.5-10.6,13.7-18.1c2.6-6.1,5.6-15.5,14.2-13.3c6.7,1.7,11.5,11.7,13,17.7c4.2,16.5,0.3,34.9-4.1,50.9 c-6.5,23.5-20.3,45.8-39.8,60.7c-39.1,30.1-98.7,29.5-137.2-1.2C2339,2363.5,2324.6,2334.4,2321.8,2304.3z"/></g></g></g></g><g><g><g><g id="change5_3"><path fill="#ffffff" d="M1506.4,2310.9c-0.7-13.4,0.3-26.9,3-40.1c14.2-70.9,77.7-125.2,148.3-134.7 c117.5-15.8,220,108.7,174.4,220.6c-42.4,103.9-192.3,131.9-275.5,60.8C1525.4,2390.8,1508.4,2351.3,1506.4,2310.9z"/></g></g></g></g><g><g><g><g id="change1_14"><path fill="#300000" d="M1563.1,2304.3c-1.8-18.9,1-38.1,8.9-55.4c19-41.8,62-64.3,106.4-65.7c4.4-0.1,9.4,0.6,12.8,3.7 c8.2,7.7-2.1,18.7-7.4,24.6c-14.4,15.9-16.1,34.8-5.6,53.4c9.2,16.5,27,30.1,46.7,28.1c7-0.7,13.6-3.4,19.4-7.4 c6.9-4.8,10.5-10.6,13.7-18.1c2.6-6.1,5.6-15.5,14.2-13.3c6.7,1.7,11.5,11.7,13,17.7c4.2,16.5,0.3,34.9-4.1,50.9 c-6.5,23.5-20.3,45.8-39.8,60.7c-39.1,30.1-98.7,29.5-137.2-1.2C1580.2,2363.5,1565.9,2334.4,1563.1,2304.3z"/></g></g></g></g><g><g id="change6_2"><path fill="#f94675" d="M2582.3,2543.7c9.2,65.7-55.4,99.9-111.5,106.2c-71.7,8.1-176-32.9-176-118.2c0-51.5,45.5-81.5,91-91.6 c70.3-15.6,162.7,4.2,190.4,79.4C2579.2,2528.1,2581.3,2536.1,2582.3,2543.7z"/></g></g><g><g id="change6_1"><path fill="#f94675" d="M1525.7,2543.7c-9.2,65.7,55.4,99.9,111.5,106.2c71.7,8.1,176-32.9,176-118.2c0-51.5-45.5-81.5-91-91.6 c-70.3-15.6-162.7,4.2-190.4,79.4C1528.8,2528.1,1526.8,2536.1,1525.7,2543.7z"/></g></g><g><g><g id="change5_1"><path fill="#ffffff" d="M1218.7,1523.7c-61.9,5.7-115.9,53.2-137.7,109.7c-14.1,38.5-11.6,100.2,30.8,111.7 c68.4,20.2,144-27.4,181.3-91.6c4.1-7.1,7.8-14.4,10.9-21.8c14.5-33,17.1-80.5-21.2-96.7c-5-2.6-10.3-4.7-15.6-6.4 c-5.3-1.7-10.7-2.9-15.9-3.7C1240.4,1523.1,1229.1,1522.8,1218.7,1523.7z"/></g></g><g><g id="change5_4"><path fill="#ffffff" d="M1016.7,1784.1c-39.6,17.5-54.5,69-42.5,108.8c9.1,27.9,35.7,48.3,65.6,45.7c39.1-4.3,68-40.4,67.6-79.1 c-1-32.3-18.7-66.1-50.9-76C1041.7,1778.4,1028.3,1779.2,1016.7,1784.1z"/></g></g></g><g id="change1_12"><path fill="#300000" d="M2132.8,2421.9c-55.3,7.9-110,13.1-165.8,14.1c-36.2,0.7-36.3,57.1,0,56.4c60.9-1.1,120.5-7.6,180.8-16.1 c15.1-2.1,23.3-21.3,19.7-34.7C2163,2425.4,2147.9,2419.7,2132.8,2421.9L2132.8,2421.9z"/></g><g><g id="change7_1"><path fill="#48d0ff" d="M3338.2,1550.1c-1.9,0.8-3.9,1.5-5.8,2.3c-4.6,1.6-8.5,4.2-11.7,7.8c-3.9,3.1-6.7,7-8.6,11.7 c-2.2,4.6-3.1,9.3-2.8,14.3c-0.5,4.8,0.3,9.4,2.2,13.9c1.5,2.7,3,5.5,4.5,8.2c3.9,5.3,8.9,9.3,15,12c3.2,0.9,6.3,1.8,9.5,2.7 c6.4,0.9,12.6,0.2,18.7-2.2c1.9-0.8,3.9-1.5,5.8-2.3c4.6-1.6,8.5-4.2,11.7-7.8c3.9-3.1,6.7-7,8.6-11.7c2.2-4.6,3.1-9.3,2.8-14.3 c0.5-4.8-0.3-9.4-2.2-13.9c-1.5-2.7-3-5.5-4.5-8.2c-3.9-5.3-8.9-9.3-15-12c-3.2-0.9-6.3-1.8-9.5-2.7 C3350.4,1547,3344.2,1547.8,3338.2,1550.1L3338.2,1550.1z"/></g><g id="change7_2"><path fill="#48d0ff" d="M3433.7,1174.7c9.4-6.4,17.3-15.4,22.9-24.5c23.9-39.4,72.5-71.4,115.1-35.4c39.3,36.1-2,86.6-32.6,115.3 c-4.1,3.7-8.2,7.3-12.4,10.8c-29.4,24.9-61.6,47-89,74.1c-44.8,44.3-75.9,102-78.5,165.7c1.1,20,17.2,19.9,32.4,16 c11.4-2.9,19.9-17.2,25.5-26.8c18.7-53.4,52.8-94.4,95.2-123.8c58.8-40.7,127.4-83.7,151.8-155c14.4-42.1,7.2-88.8-15.5-126.6 c-27-45-65.4-60.2-113.6-74.6c-6-0.9-12.2-1.5-18.4-1.6c-75.6-2.2-189,71.1-158.9,158.8c7.3,21.2,27.8,38.8,50.1,37.3 C3417.2,1183.6,3426,1180,3433.7,1174.7z"/></g></g><g><g id="change1_7"><path fill="#300000" d="M3408.4,1817c-1.2,0-2.4,0-3.6,0.1c-2.8-0.1-5.5,0.6-7.9,1.9c-2.7,0.9-5,2.4-7,4.6c-2.1,2-3.6,4.4-4.4,7.1 c-1.2,2.5-1.7,5.1-1.6,8c0.3,1.8,0.5,3.6,0.8,5.4c1,3.7,2.9,6.9,5.7,9.5c1.5,1.1,3.1,2.3,4.6,3.4c3.3,1.8,6.8,2.6,10.5,2.6 c1.2,0,2.4,0,3.6-0.1c2.8,0.1,5.5-0.6,7.9-1.9c2.7-0.9,5-2.4,7-4.6c2.1-2,3.6-4.4,4.4-7.1c1.2-2.5,1.7-5.1,1.6-8 c-0.3-1.8-0.5-3.6-0.8-5.4c-1-3.7-2.9-6.9-5.7-9.5c-1.5-1.1-3.1-2.3-4.6-3.4C3415.6,1817.8,3412.1,1816.9,3408.4,1817 L3408.4,1817z"/></g><g id="change1_4"><path fill="#300000" d="M3535.9,1633.5c6.4-1.6,12.5-4.8,17.3-8.6c20.9-16.4,53.6-23.9,69.4,4.2c13.9,27.4-18.6,46.4-40.9,55.7 c-2.9,1.2-5.9,2.3-8.9,3.3c-20.9,7.5-42.8,12.9-63,22c-33.2,14.9-61.6,39.7-75.9,73.6c-3.5,11,5.3,14.2,14.3,15.2 c6.7,0.7,14.2-5.3,19.2-9.3c20.9-25,47.6-40.4,76.5-47.6c40-10.1,85.7-19.4,113.3-53.1c16.3-19.8,21.8-46.5,17.2-71.5 c-5.5-29.8-23.2-45.7-46.3-63.3c-3.1-1.7-6.3-3.3-9.6-4.6c-40.4-16.5-116.5,0.2-118,53.7c-0.4,12.9,7.2,26.6,19.5,30.3 C3525.2,1635,3530.7,1634.8,3535.9,1633.5z"/></g></g><g><g id="change1_15"><path fill="#300000" d="M1532.3,2750.1c25.8,63.3,84.3,101.5,149.5,116c70.6,15.7,144.5,5.8,208.2-28.7 c40.1-21.7,75.5-52,104.2-87.3c6.4-7.9,7.6-18.7,0-26.5c-6.5-6.7-20.1-7.8-26.5,0c-44.8,55.1-106.2,97.5-177.2,109.3 c-53.9,8.9-114.2,1-161.8-26.7c-26.3-15.2-48.8-37.6-60.4-66.1c-3.8-9.3-12.5-16-23-13.1 C1536.6,2729.6,1528.5,2740.7,1532.3,2750.1L1532.3,2750.1z"/></g><g id="change1_11"><path fill="#300000" d="M2025.1,2611.2c-23.9,0.8-43.7,17-56.6,36.2c-3.2-1.2-6.5-1.9-9.6-2.1c-7.6-0.4-15.2,0.9-21.5,5.6 c-6.8,5.1-9.7,12.8-11,20.9c-2.3,13.8,1.3,27.7,7.4,40c24,48.5,85.7,62.3,127.1,27c23.3-19.8,35.5-52,26.9-81.9 C2080,2629.1,2053.9,2610.2,2025.1,2611.2z"/></g></g></g></svg>