<?xml version="1.0" encoding="UTF-8" standalone="no"?><svg xmlns="http://www.w3.org/2000/svg" xmlns:xlink="http://www.w3.org/1999/xlink" contentScriptType="text/ecmascript" fill="#000000" width="431.8" zoomAndPan="magnify" contentStyleType="text/css" viewBox="2.0 0.1 431.8 298.1" height="298.1" preserveAspectRatio="xMidYMid meet" version="1"><g id="change1_1"><path fill="#efd916" opacity="0.75" d="M261.8 198.7L277.4 188.7 283.3 173.2 281.1 171.5 271.6 171.5 264.6 175.7 257.8 184.6z"/></g><g id="change1_2"><path fill="#efd916" opacity="0.75" d="M390.5,221l11.3-53.2l-17.5-50.2L324,73.6L243.1,70l-88.7,50.5l-22.6,68.7l26.6,69.4 l45.7,29.3l93.3,10.3l60.5-32.4l75.9,3L390.5,221z M283.1,206.2h-15.4l-6.4-8.1l-3.6-13.5l6.9-9l6.9-4.2h9.5l10,7.6l2.2,14.7 L283.1,206.2z M340.5,206.2h-15.4l-6.4-8.1l-3.6-13.5l6.9-9l6.9-4.2h9.5l10,7.6l2.2,14.7L340.5,206.2z"/></g><g id="change1_3"><path fill="#efd916" opacity="0.75" d="M211.4 206.2L205 198.1 201.4 184.6 208.3 175.7 215.2 171.5 224.8 171.5 234.8 179.1 237 193.8 226.8 206.2z"/></g><g id="change2_1"><path fill="#f70969" opacity="0.75" d="M146.7 227.4L132.1 189.2 154.7 120.5 243.4 70 288.8 72 304.3 119.3 277.7 188.7 232.1 218z"/></g><g id="change3_1"><path fill="#0d6ab5" opacity="0.75" d="M281.4,50.6L192.6,0.1l-80.9,3.6L51.4,47.8L33.9,97.9l11.3,53.2L2,198.9l75.9-3l60.5,32.4 l93.3-10.3l45.7-29.3l26.6-69.4L281.4,50.6z M115.8,128.8h-15.4l-6.4-8.1l-3.6-13.5l6.9-9l6.9-4.2h9.5l10,7.6l2.2,14.7L115.8,128.8z M172.1,128.8h-15.4l-6.4-8.1l-3.6-13.5l6.9-9l6.9-4.2h9.5l10,7.6l2.2,14.7L172.1,128.8z M229.5,128.8h-15.4l-6.4-8.1l-3.6-13.5 l6.9-9L218,94h9.5l10,7.6l2.2,14.7L229.5,128.8z"/></g><g id="change1_4"><path fill="#efd916" opacity="0.75" d="M102.6 129.4L96.2 121.3 92.6 107.8 99.5 98.8 106.5 94.6 116 94.6 126 102.2 128.2 116.9 118 129.4z"/></g><g id="change1_5"><path fill="#efd916" opacity="0.75" d="M158.9 129.4L152.5 121.3 149 107.8 155.9 98.8 162.8 94.6 172.3 94.6 182.4 102.2 184.5 116.9 174.3 129.4z"/></g><g id="change1_6"><path fill="#efd916" opacity="0.75" d="M216.3 129.4L209.9 121.3 206.4 107.8 213.2 98.8 220.2 94.6 229.7 94.6 239.8 102.2 241.9 116.9 231.7 129.4z"/></g><g id="change4_1"><path fill="#ffffff" clip-rule="evenodd" d="M147.1,39.5 c2-0.4,3.7-1.3,5.6-0.3c-0.5,0.1-0.9,0.3-1.3,0.4c0,0.1-0.1,0.5,0,0.6c0.8,0.6,0.9,1.5,0,1.9c-0.4,0.3-1.3-0.4-1.9-0.6 C148.7,41,148.1,40.5,147.1,39.5z M318.1,110.4c0.5-1,0.8-2,1.3-3.2c1.3,1.1,2.4,2,3.3,3C321.2,111.5,321.1,111.5,318.1,110.4z M334.8,257.6c-0.5,1.4,0.5,3-1.6,3.5c0-0.8,0.3-1.1,0.3-1.9c-1.3,0.3-2.5,0.5-3.2-1.3C331.3,256.3,332.9,256.9,334.8,257.6z M274.8,263.8c3,0.4,4.3,1.8,5.3,4.2C277.4,267.7,276,266,274.8,263.8z M163.4,240.2c-1.8,1.6-4,1.4-5.8,2.5 C157.2,240.3,158.2,239.8,163.4,240.2z M280.6,100c-1.6-2-1.6-2.2,1.1-3.8C281.7,97.6,282.7,99.2,280.6,100z M316,195 c1.3-1.1,2.7-2.4,4.7-2.7C320.2,194.2,319.6,194.5,316,195z M126.2,54.4c0.9-1.1,1.3-2,2-2.9c0.3-0.3,1-0.4,1-0.3 c0.3,0.4,0.5,1,0.4,1.3C129,53.7,128.2,54.6,126.2,54.4z M212.4,175.2c-1.8-0.5-3.2-1.3-4-3.3C210.4,172.3,211.2,173.8,212.4,175.2z M335.7,262.5c-0.9-0.6-0.9-2.3-0.1-2.9c0.3-0.3,0.8-0.3,1.1-0.1c0.1,0.9,0.3,1.8,0.1,2.7C336.7,262.2,335.9,262.4,335.7,262.5z M107.1,170.5c-1.1-0.6-2.2-1.1-3.5-1.8C106.3,168.1,106.8,168.5,107.1,170.5z M232.5,237.1c0.1,1,0.3,1.5,0.5,2.4 c-1.1,0-2.3,0-3.9,0C230.2,238.6,231.2,237.8,232.5,237.1z M64.2,175.2c-1,0.4-2,0.8-3.3,1c-0.4-2.3-0.4-2.3,3-1.8 C64.1,174.7,64.2,174.9,64.2,175.2z M30.8,180.6c0.6,1.3,1.1,2.4,1.8,3.5C30.5,183.4,30.2,183,30.8,180.6z M221.1,126.4 c-2.5,0-2.5,0-2.3-1.8C220,124.8,220.9,125,221.1,126.4z M101.9,180.4c1-0.9,1.5-1.6,2.2-2.5C104.8,179.7,104.4,180,101.9,180.4z M261.7,137.5c-0.8,0.4-1.3,0.5-2.3,0.9c-0.1-1-0.4-1.9-0.5-3.2C260.1,135.9,260.9,136.6,261.7,137.5z M301.7,98.1 c-1.3,0.1-2.2-0.3-2.4-1.6C300.6,96.4,301.7,96.4,301.7,98.1z M281.5,186.7c-0.5,0.4-1,0.8-1.5,1c-0.3-0.4-0.5-0.8-0.6-1 c0.5-0.4,1-0.6,1.6-0.9C281.1,186.2,281.4,186.4,281.5,186.7z M275.4,255.2c0,0.8,0.1,1.3-0.1,1.4c-0.4,0.3-1,0.1-1.4,0.3 c0-0.5-0.1-1,0.1-1.1C274.1,255.4,274.8,255.4,275.4,255.2z M92.1,72.9c0.3-1.6,0.9-2.2,2-1.9C93.8,71.3,93.2,71.9,92.1,72.9z M105.6,134.5c0.9,0.6,1.1,1,1.6,1.3c0,0-0.1,0.6-0.4,0.6C106.1,136.6,105.7,136.2,105.6,134.5z M96.8,41.3c0.6,0.5,1,1.1,1.9,1.6 C97.1,43.5,97,42.5,96.8,41.3z M108.1,44.3c-0.6-0.4-1.8-0.6-0.9-2.2c0.5,0.6,0.8,1,1,1.8C108.3,44,108.3,44.3,108.1,44.3 C108.2,44.3,108.2,44.3,108.1,44.3z M233.9,123.8c0.6-1.1,1-1.8,1.9-1.3c0.3,0.1,0.3,0.5,0.5,0.8 C235.5,123.3,234.9,123.5,233.9,123.8z M224,220.5c0.1-1.1,0.9-1.3,1.5-0.9c0.1,0,0.4,0.5,0.3,0.8 C225.3,221.2,224.7,220.7,224,220.5z M145.6,141.8c-0.1-0.8-0.3-1.3-0.5-2.4C146.3,140.4,146.3,140.4,145.6,141.8z M283.9,275.3 c0.5,0.4,0.9,1,1.8,1.5C284.4,277,283.8,276.7,283.9,275.3z M113.9,93.2c-0.6,0.6-1.3,1-1.9,1.6C112,93.4,113.3,93.5,113.9,93.2z M282,120.5c0-0.8,0-1.5,0-2.3C283.5,119,283.4,119.7,282,120.5z M118,76.6c0.5-0.4,1-0.8,1.9-1.3c-0.3,1.5-0.9,1.9-1.6,1.8 C118.1,77,118.1,76.7,118,76.6z M194.4,140.4c1,0.8,0.8,1.1,0,1.8c-0.1,0.1-0.8,0.1-0.8,0C193.1,141.2,193.4,140.7,194.4,140.4z M276.2,282.5c0.5,0.3,1,0.5,1.8,0.8c-1.1,0.9-1.6,0.8-2.2,0C275.9,283.1,276,282.9,276.2,282.5z M311.6,145.3 c-0.5,0.1-1,0.3-1.5,0.4c0,0-0.4-0.6-0.3-0.8c0.5-0.3,1-0.4,1.4-0.6C311.4,144.7,311.5,144.9,311.6,145.3z M201.5,46.7 c0,0.8,0,1-0.1,1.4c0,0.1-0.9,0.3-0.9,0.3c-0.1-0.4-0.4-0.9-0.1-1.1C200.6,47.1,201,47,201.5,46.7z M99.1,170.6c0.6,0.1,1,0.3,1,0.4 c0.1,0.3,0.1,0.8-0.1,1c-0.1,0.1-0.9,0.3-0.9,0.1C99.1,171.7,99.2,171.4,99.1,170.6z M41.8,171c-0.1,0.6-0.3,1.1-0.4,1.9 c-0.3,0-0.4,0-0.6,0c0-0.6,0.1-1.1,0.1-1.9C41.1,170.9,41.4,170.9,41.8,171z M262.5,165.5c-0.1,0.3-0.3,0.8-0.5,0.9 c-0.3,0.1-0.6,0-1-0.1c0.1-0.4,0-0.8,0.4-1c0.3-0.4,0.6-0.5,1-0.6C262.2,164.9,262.4,165.3,262.5,165.5z M384.8,178.3 c0-0.5-0.1-0.9,0-0.9c0.3-0.1,0.6-0.1,1,0c0.1,0,0.3,0.6,0.1,0.6C385.5,178.2,385.3,178.2,384.8,178.3z M169.3,182.5 c0.5,0,1,0.1,1.5,0.3l0.1,0.5c-0.5,0.1-1,0.1-1.4,0.4C169.3,183.1,169.3,182.9,169.3,182.5z M304.5,265.4c0,0.5-0.1,1-0.1,1.3 c0,0.1-0.6,0-0.9,0c0-0.4,0-0.9,0.3-1.1C303.6,265.5,304,265.5,304.5,265.4z M184.4,153.5c-0.4,1.4-0.8,1.9-1.8,1.4 c0.1-0.4,0.1-0.8,0.3-0.9C183.3,153.9,183.8,153.8,184.4,153.5z M55.5,63.2c0.8,0.1,1.4,0.3,2.2,0.4c0,0.3,0,0.4-0.1,0.7 c-0.8-0.1-1.4-0.4-2-0.6C55.5,63.6,55.5,63.3,55.5,63.2z M172.4,179.5c-0.1,0.6-0.3,1-0.4,1.3c-0.3-0.1-0.6-0.1-0.8-0.3 c-0.1-0.4-0.1-0.8,0.1-1C171.6,179.5,172,179.5,172.4,179.5z M383.4,189.8c0.6,0.1,1,0.3,1.6,0.4c0,0.3,0,0.4,0,0.6 c-0.6,0-1-0.3-1.6-0.3C383.2,190.2,383.4,190.1,383.4,189.8z M386,161.1c-0.6,0-1.1-0.1-2.3-0.3C384.9,159.9,385.4,160.1,386,161.1z M83,76.4c0-0.4,0.1-0.9,0.3-1.1c0.1,0,0.4,0,0.5,0c0,0.5-0.1,1-0.1,1.3C83.5,76.4,83.3,76.4,83,76.4z M169,156.6 c0.3-0.4,0.5-0.8,0.9-1.1c0.3,0.1,0.4,0.3,0.6,0.4c-0.3,0.4-0.6,0.8-1,0.9C169.3,156.9,169.2,156.8,169,156.6z M300.5,277 c0.3-0.5,0.8-1,1-1.1c0.1,0.1,0.4,0.1,0.5,0.3c-0.3,0.5-0.6,1-0.9,1.5C300.8,277.4,300.6,277.3,300.5,277z M132.4,141.2 c-0.4-0.4-0.6-0.8-0.9-1.1c0.3-0.1,0.6-0.5,0.6-0.5c0.4,0.4,0.6,0.8,0.9,1.1C132.8,140.9,132.6,141.1,132.4,141.2z M68.1,124 c0.5-0.4,1-0.6,1.6-1c0.1,0.1,0.3,0.3,0.4,0.4c-0.3,0.3-0.4,0.6-0.8,0.8c-0.3,0.3-0.6,0.3-1,0.3C68.2,124.3,68.2,124.2,68.1,124z M141.9,225.3c-0.8,0.3-1.1,0.3-1.9,0.5C140.9,224.7,140.9,224.7,141.9,225.3z M91,190.5c0.4-0.5,0.8-1,1.1-1.4 c0.3,0.1,0.4,0.3,0.6,0.3c-0.3,0.6-0.6,1.1-0.9,1.6C91.5,190.9,91.3,190.7,91,190.5z M215.4,273.5c-0.5,0.3-1,0.4-1.3,0.6 c-0.1-0.1-0.3-0.4-0.3-0.6c0.5-0.3,1-0.4,1.4-0.6C215.3,273.1,215.4,273.4,215.4,273.5z M168.1,108.3c0.6,0,1,0,1.1,0.3 c0.3,0.1,0.3,0.5,0.3,0.9c-0.4,0.1-0.8,0.3-1,0C168.3,109.2,168.2,108.7,168.1,108.3z M220.9,172.5c0.5,0,0.8-0.1,1,0.1 c0.1,0,0.1,0.6,0.1,0.8c-0.3,0.1-0.6,0.3-1,0C221,173.4,221,173,220.9,172.5z M172.5,66.6c0.5,0.3,1,0.5,1,0.8 c0.1,0.3-0.1,0.6-0.4,1c-0.4-0.1-0.8-0.1-0.9-0.3C172.1,67.5,172.3,67.2,172.5,66.6z M61.8,170.9c0.5,0.1,0.9,0.1,1,0.4 c0.1,0.1,0.3,0.5,0.1,0.6c-0.1,0.1-0.5,0.3-0.8,0.3C62,171.9,62,171.5,61.8,170.9z M277.4,144c-0.4,1-0.4,1.4-0.5,1.4 c-0.3,0.1-0.6,0-1-0.1c0.1-0.3,0.1-0.5,0.3-0.8C276.7,144.4,276.9,144.4,277.4,144z M275.9,142.5c0.3-0.5,0.5-1,0.8-1.3 c0.1,0.1,0.4,0.1,0.5,0.3c-0.3,0.5-0.4,0.9-0.8,1.3C276.2,142.6,276,142.5,275.9,142.5z M42.4,191c-0.3,0.4-0.6,0.8-1,0.9 c0,0-0.3-0.1-0.5-0.3c0.3-0.4,0.6-0.8,1-0.9C42.2,190.7,42.3,190.9,42.4,191z M209.7,140.1c0.3-0.4,0.6-0.6,1-0.9 c0.1,0.1,0.4,0.3,0.4,0.4c-0.1,0.4-0.4,0.8-0.8,1C210.1,140.4,209.8,140.2,209.7,140.1z M305.1,180.6c0,0.4,0.3,0.8,0.1,0.8 c-0.3,0.1-0.5,0.3-0.8,0.1c-0.1,0-0.1-0.5-0.3-0.6C304.5,180.7,304.9,180.7,305.1,180.6z M222.3,185.2c0.4,0.1,0.9,0.1,1.1,0.4 c0,0.1,0,0.4-0.1,0.5c-0.4-0.1-0.9-0.3-1.1-0.4C222.1,185.3,222.1,185.2,222.3,185.2z M138.8,107.2c0,0.4,0,0.6-0.1,1 c-0.3,0-0.5,0-0.8-0.1c-0.1,0-0.1-0.5-0.1-0.5C138.3,107.5,138.6,107.3,138.8,107.2z M136.1,111.8c0.3-0.4,0.6-0.8,1-0.9 c0.1,0.1,0.3,0.1,0.3,0.3c-0.3,0.4-0.5,0.8-0.9,1.1C136.3,112.1,136.2,112,136.1,111.8z M129.5,81.1c0.1-0.3,0.1-0.6,0.4-0.8 c0.3-0.3,0.6-0.3,1-0.3c0.1,0.3,0.3,0.6,0.3,0.8c-0.3,0.3-0.5,0.4-0.9,0.6C129.9,81.1,129.7,81.1,129.5,81.1z M116.6,115.3 c0.4,0.3,0.8,0.5,1,0.9c0,0-0.3,0.4-0.4,0.6c-0.4-0.3-0.9-0.5-1.1-0.9C116.3,115.7,116.4,115.6,116.6,115.3z M194.3,49.2 c0.5,0.1,0.9,0.1,1,0.4c0,0,0,0.6-0.1,0.6c-0.3,0.1-0.6,0.1-0.8,0C194.2,50.1,194.3,49.7,194.3,49.2z M383,169.3 c-0.3,0.4-0.5,0.6-0.8,1c-0.1,0-0.3-0.1-0.4-0.3c0.1-0.4,0.4-0.8,0.6-1C382.6,169.1,382.7,169.2,383,169.3z M285,81.5 c0,0.4,0,0.8-0.1,1c0,0-0.4,0.1-0.5,0.1c-0.3-0.4-0.4-0.8-0.4-1C284.3,81.4,284.6,81.5,285,81.5z M60.8,71.9 c0.5,0.1,0.9,0.4,1.3,0.6c-0.1,0.3-0.1,0.5-0.3,0.8c-0.4-0.3-0.9-0.5-1.1-0.9C60.5,72.3,60.8,72.1,60.8,71.9z M76.2,84.4 c-0.4,0.4-0.9,0.6-1.3,0.9c-0.1-0.1-0.3-0.4-0.4-0.5c0.4-0.4,0.9-0.6,1.3-0.9C75.8,84,75.9,84.2,76.2,84.4z M276.8,123.9 c1,0.4,1.4,0.6,1.9,0.8c0,0.1,0,0.3-0.1,0.5c-0.4,0-0.6,0.1-1-0.1C277.6,124.9,277.4,124.5,276.8,123.9z M264.1,283 c0.3-0.5,0.4-0.9,0.8-1.3c0.1,0.1,0.4,0.1,0.5,0.3c-0.3,0.4-0.4,0.9-0.8,1.1C264.4,283.1,264.3,283,264.1,283z M172.3,225.3 c0.4,0.1,0.8,0.1,1,0.4c0.3,0.1,0.4,0.4,0.8,1c-1-0.4-1.4-0.5-1.9-0.6C172.1,225.7,172.3,225.5,172.3,225.3z M48.5,136.8 c-0.3,0.4-0.6,0.8-1,0.9c-0.1-0.1-0.3-0.1-0.4-0.3c0.3-0.5,0.5-0.9,0.9-1.3C48.1,136.7,48.2,136.7,48.5,136.8z M124.8,79.7 c-1.4-1.4-3.2-2.2-3.5-4.4c0.4,0.3,0.8,0.5,1,1c0.1-0.1,0.5-0.3,0.5-0.4c0.1-0.9,0.8-1.5,1.5-1.1c0.5,0.1,0.5,1.1,0.6,1.8 C125.1,77.5,124.8,78.3,124.8,79.7z M184.2,154.7c-0.9-1.5-1.9-2.9-3-4.6c1.9-0.1,2.5,1.1,3.3,2C185,152.8,185.2,153.5,184.2,154.7z M149.1,87.3c-1.3,0-2.4,0.3-3.4,0.1c-0.4,0-1-0.8-1-0.9c0.1-0.5,0.6-1,1-1C146.8,85.6,148.1,85.7,149.1,87.3z M413.6,249.5 c-0.9,0-1.6,0-2.5-0.3c-0.4-0.1-0.5-1-0.8-1.5c0.5-0.3,1.1-0.6,1.5-0.4c0.9,0.4,1.3,1.1,1.9,1.6 C413.9,249.1,413.7,249.2,413.6,249.5z M203,148.8c0.4-0.8,0.8-1.1,1.1-2c0.9,1.1,1.6,2.2,2.4,3c-0.1,0.1-0.3,0.4-0.4,0.5 C205.3,149.9,204.3,149.6,203,148.8z M192.5,260.1c0.1-0.3,0.1-0.4,0.1-0.5c1.1-0.9,2-0.4,2.9,0.4c0.1,0.1,0.1,0.8-0.1,1 C195,261.5,194.4,261.2,192.5,260.1z M282.5,63.9c1,0.8,1.8,1.1,2.9,1.9c-1.5,1.6-1.5,1.6-3.2-1.3C282.2,64.3,282.4,64.2,282.5,63.9 z M298.2,203.8c1.5,0,2.4,0,3.4,0.1c0,0.9-0.1,1.5-0.1,2.5C300.3,205.7,299.3,204.9,298.2,203.8z M302.2,119c-1.1-0.8-2.4-1.3-3.7-2 C300.1,115.9,300.6,116.2,302.2,119z M303.6,96.3c0.8-1.3,1.1-2.3,1.8-3.5C306,94.8,305.9,95.2,303.6,96.3z M70.9,44.2 c-1.4,0.1-2.3,0.3-3.2,0.4C68.5,42.4,68.9,42.4,70.9,44.2z M388,165.2c1.8,0.1,3,0.3,4.2,0.3C390.1,166.2,390.1,166.2,388,165.2z M377.8,206c0.8,0.5,1.1,1,2,1.5c-0.6,0.4-1,0.6-1.3,0.6C377.3,208.1,376.7,207.4,377.8,206z M248.3,136.7c0.6-1,1.1-1.8,1.8-2.8 C250.7,135.7,250.7,135.7,248.3,136.7z M348.1,138.3c-1.1,0.3-1.9,0.5-2.7,0.8c-0.1-0.3-0.4-0.5-0.3-0.5c0.5-0.6,1.1-1,1.6-1.5 C346.9,137.3,347.3,137.7,348.1,138.3z M91,189.3c-0.8-2.5-0.8-2.7,1.5-2.3C92,187.9,91.6,188.6,91,189.3z M161.5,187.4 c-0.5-0.6-0.9-1.1-0.9-1.4c0-0.4,0.8-1,1.1-0.9c0.3,0,1,0.8,0.9,1.1C162.5,186.3,161.9,186.8,161.5,187.4z M81.4,83.9 c1,0.5,1.6,0.8,2.4,1.1c-0.6,0.6-1.1,0.9-1.5,1.5C82.1,85.7,82,85.2,81.4,83.9z M142.6,221.2c-1.4,0-2.2-0.9-2-2.3 C142,219.2,142.3,220.3,142.6,221.2z M240.1,262.1c1.9-0.5,2.3,0.3,2.2,1.6C241.6,263.3,241,262.9,240.1,262.1z M124.2,138.1 c-0.4,0.6-1,1-1.4,1.9C122.1,138.2,122.1,138.2,124.2,138.1z M182.8,167.8c0.3,0.5,0.4,1,0.6,1.4c-0.4,0.1-0.8,0.3-1,0.3 c-0.3-0.5-0.3-1-0.5-1.5C182.1,168.1,182.5,168,182.8,167.8z M184.2,103.3c-1.5,0.9-2.2,0.6-2.8-0.6 C182.1,103,182.9,103.2,184.2,103.3z M225.4,55.4c0-1,0-1.5,0-2.2c0,0,0.6-0.3,0.8-0.1C226.8,53.8,226.4,54.4,225.4,55.4z M207.7,264.3c-0.8,0.1-1.3,0.3-2.3,0.4c0.5-1.5,1.3-1.4,2.2-1.3C207.6,263.6,207.7,264,207.7,264.3z M244.5,211.5 c0.4-1.4,0.6-2.3,0.9-3.3C246.2,209.5,246.2,209.5,244.5,211.5z M156.3,118.5c0-0.9,0.1-1.5,0.1-2.7 C158,117.1,157.2,117.8,156.3,118.5z M145.4,208.7c1.4-0.3,1.6,0.4,1.6,1.1c-0.3,0.1-0.4,0.3-0.5,0.4 C146.3,209.7,145.9,209.3,145.4,208.7z M152.1,107.7c0.1,0.8,0.5,1.6-1.1,1.8c0.3-0.8,0.5-1.3,0.8-1.9c0,0,0.1-0.1,0.3-0.1 C151.9,107.6,152,107.7,152.1,107.7z M265.9,191.4c0-1.3,0.3-2,1.6-1.8C267.8,190.7,267.3,191.2,265.9,191.4z M187.3,73.7 c0.9,0.1,1.6,0.4,2.5,0.5C188.6,75.2,188.1,74,187.3,73.7z M343.2,133.1c-0.8,0.5-1.3,0.8-2.2,1.1 C341.5,133.1,342.2,132.8,343.2,133.1z M167.3,210.7c-0.6,0.4-0.9,0.6-1.3,0.6c-0.3,0-0.5-0.5-0.8-0.8c0.4-0.3,0.6-0.6,1-0.6 C166.7,209.7,167.1,210.2,167.3,210.7z M171.6,80.5c-0.6-0.1-1.1-0.5-2.3-0.8c1.4-0.9,1.9-0.5,2.5,0.3 C171.9,80.2,171.8,80.2,171.6,80.5z M341,228.6c0.4-0.1,0.8-0.4,1-0.1c0.4,0.1,0.8,0.5,1,0.9c-0.3,0.3-0.4,0.8-0.6,0.8 c-0.4,0-0.8-0.4-1-0.6C341.2,229.1,341.1,228.7,341,228.6z M356.7,148.1c-0.5-0.5-0.9-1.1-1.3-1.6c0.3-0.1,0.5-0.4,0.5-0.4 c0.5,0.4,0.9,1,1.3,1.4C357.2,147.7,357,148,356.7,148.1z M60.3,93.5c-0.8,0.6-1.3,0.9-1.8,1.3c-0.3-0.3-0.4-0.5-0.4-0.5 C58.4,93.5,58.6,92.8,60.3,93.5z M300.7,155.9c0.1-1,0.1-1.6,0.1-2.3c0.4,0.1,0.6,0.1,0.6,0.1C302.1,154.5,302,155.2,300.7,155.9z M97.7,31.9c0.5-0.5,0.9-0.8,1.3-0.9c0.1,0,0.8,0.5,0.8,0.6c-0.3,0.4-0.5,0.8-1,0.9C98.6,32.5,98.2,32.2,97.7,31.9z M381,251.5 c0.6,0.1,1.3,0.5,1.9,0.6c0,0.3-0.1,0.4-0.1,0.6c-0.6-0.1-1.3-0.5-1.9-0.6C380.8,251.8,380.8,251.7,381,251.5z M257.6,124.4 c-0.3,0.5-0.5,0.9-0.9,1.3c-0.1-0.4-0.3-0.6-0.1-1c0-0.3,0.3-0.5,0.4-0.8C257.2,124.2,257.4,124.2,257.6,124.4z M263.6,215.4 c-0.4-0.3-0.8-0.6-0.8-0.6c0.1-0.4,0.5-0.8,0.8-1c0.3,0.1,0.6,0.4,0.6,0.5C264.1,214.5,264,214.9,263.6,215.4z M292.6,84.4 c0.5-0.4,1-0.5,1.6-0.9c0.1,0.1,0.3,0.3,0.4,0.5c-0.5,0.4-1,0.6-1.5,0.9C293,84.8,292.7,84.7,292.6,84.4z M347,112.5 c0.6,0.1,1.1,0.3,1.8,0.4c0,0.3,0,0.5-0.1,0.8c-0.6-0.1-1.1-0.3-1.8-0.4C346.9,112.8,346.9,112.6,347,112.5z M135.8,144 c0,0.4,0.1,0.8-0.1,1c-0.1,0.3-0.5,0.8-1.1,0.6c0.3-0.6,0.6-1.3,1-1.8C135.7,143.9,135.8,143.9,135.8,144z M221.1,152.5 c0.6-1,1.1-2,2.4-0.8C222.6,152.1,221.9,152.3,221.1,152.5z M65.3,74.2c-0.5,0-1-0.1-1.5-0.1c0-0.1,0-0.3,0-0.5c0.5,0,1,0,1.5,0 C65.3,73.8,65.3,73.9,65.3,74.2z M172.4,250.1c0.6,0.3,1.1,0.6,2.3,1.1C173,251.2,173,251.2,172.4,250.1z M202.8,145.7 c-0.4-0.6-0.6-1.1-0.9-1.9c0.1-0.1,0.4-0.1,0.5-0.3c0.4,0.6,0.6,1.1,0.9,1.9C203,145.6,202.9,145.6,202.8,145.7z M87.5,159.1 c-0.3-0.5-0.5-0.8-0.5-1c0-0.1,0.4-0.5,0.5-0.5c0.3,0.1,0.6,0.4,0.9,0.5C88,158.5,87.7,158.7,87.5,159.1z M169.1,247.7 c0.5,0,1,0.1,1.5,0.1c0,0.3,0,0.4,0,0.6c-0.6,0.1-1,0-1.5,0.1C169.1,248.2,169.1,248.1,169.1,247.7z M192.5,108.3 c-0.4,0.3-0.8,0.4-1,0.5c-0.1-0.1-0.3-0.3-0.4-0.4c0.4-0.3,0.8-0.6,1-0.8C192.3,108,192.4,108.1,192.5,108.3z M191.5,248.6 c-0.5,0.3-1,0.4-1.5,0.6c-0.1-0.1-0.1-0.4-0.3-0.5c0.5-0.3,1-0.5,1.5-0.8C191.2,248.1,191.4,248.4,191.5,248.6z M214.5,30.1 c-0.1,0.5-0.4,1-0.5,1.4c-0.3-0.1-0.8-0.1-0.8-0.1c0.1-0.5,0.3-1,0.4-1.4C214,30,214.3,30,214.5,30.1z M239.5,91.6 c-0.6-0.1-1.1-0.5-1.8-0.6c0-0.1,0.1-0.4,0.1-0.5c0.4,0,0.8,0,1,0.3c0.4,0.1,0.6,0.4,1,0.6C239.6,91.4,239.5,91.5,239.5,91.6z M313.2,127.1c0.6,0.3,1.1,0.6,1.6,0.9c0,0.1-0.1,0.4-0.1,0.5c-0.6-0.1-1.3-0.5-1.9-0.6C313.1,127.5,313.1,127.2,313.2,127.1z M166.7,21.6c-0.4-0.5-0.6-0.8-0.6-1s0.4-0.5,0.5-0.8c0.3,0.3,0.6,0.4,0.8,0.6C167.5,20.8,167.1,21.1,166.7,21.6z M131,43.2 c-0.1-0.6-0.1-1,0-1.1c0.1-0.3,0.6-0.3,0.9-0.4c0.1,0.3,0.4,0.6,0.4,0.9C132,42.9,131.5,43,131,43.2z M280.5,68.5 c-0.3-0.5-0.4-0.8-0.3-1c0-0.1,0.4-0.5,0.5-0.5c0.3,0,0.5,0.3,0.6,0.4C281.1,67.6,280.9,67.8,280.5,68.5z M299.3,210 c0.4-0.3,0.5-0.6,0.9-0.6c0.1,0,0.5,0.4,0.5,0.5c-0.1,0.3-0.4,0.5-0.6,0.9C300,210.6,299.7,210.4,299.3,210z M110.9,192.3 c-0.5-0.6-0.6-0.9-0.9-1.1c0.3-0.3,0.6-0.6,0.8-0.5c0.3,0.1,0.6,0.5,0.6,0.8C111.4,191.5,111.3,191.7,110.9,192.3z M322.6,217.8 c-0.3-0.4-0.6-0.8-0.8-1c0.1-0.1,0.3-0.3,0.3-0.3c0.4,0.3,0.8,0.6,0.9,1C323,217.6,322.7,217.7,322.6,217.8z M332.1,216 c-0.3-0.4-0.5-0.8-0.4-0.9c0.1-0.3,0.5-0.5,0.8-0.6c0.1,0.3,0.5,0.5,0.4,0.6C332.7,215.7,332.5,215.7,332.1,216z M349.6,173.6 c-0.3-0.5-0.3-1-0.5-1.4c0.1-0.1,0.3-0.1,0.4-0.3c0.3,0.5,0.5,0.9,0.8,1.3C350,173.4,349.8,173.5,349.6,173.6z M355.6,186.3 c0.5,0.3,0.9,0.5,1.3,0.9c-0.1,0.1-0.1,0.4-0.3,0.5c-0.4-0.1-0.6-0.1-0.9-0.4c-0.3-0.1-0.4-0.4-0.5-0.6 C355.5,186.6,355.5,186.4,355.6,186.3z M126.1,189.2c0.4-0.1,0.6-0.4,0.9-0.4s0.3,0.4,0.5,0.6c-0.3,0.1-0.5,0.4-0.6,0.4 C126.3,189.8,126.3,189.6,126.1,189.2z M357.2,204.3c-0.4-0.4-0.6-0.5-0.8-0.9c0,0,0.4-0.5,0.5-0.5c0.3,0.1,0.6,0.4,0.8,0.6 C357.7,203.6,357.4,204,357.2,204.3z M116.7,217.6c-0.3-0.1-0.5-0.3-0.6-0.5c0.1-0.3,0.3-0.6,0.4-0.6c0.3,0,0.5,0.3,0.8,0.4 C117.1,217.2,116.8,217.3,116.7,217.6z M90.5,96.6c0.5,0,1,0.1,1.4,0.1c0,0.3,0,0.5-0.1,0.8c-0.5-0.1-1-0.4-1.3-0.5 C90.5,96.7,90.5,96.7,90.5,96.6z M183.7,45.3c0.4-0.3,0.5-0.4,0.8-0.5c0.1,0.3,0.4,0.4,0.4,0.6c0,0.1-0.3,0.4-0.4,0.4 C183.9,45.8,183.8,45.6,183.7,45.3z M79.9,117.8c-0.1,0.5-0.4,1-0.5,1.8C78.1,118.5,78.9,118.1,79.9,117.8z M188.8,44.8 c-0.5,0-0.9,0-1.3-0.1c0-0.1,0-0.3,0-0.4c0.5,0,1,0,1.3,0C188.8,44.4,188.8,44.7,188.8,44.8z M168.6,68.5c-0.3,0.1-0.6,0.3-0.9,0.1 c-0.4-0.1-0.6-0.4-0.9-0.5c0.1-0.3,0.3-0.6,0.5-0.6c0.4,0,0.6,0.3,1,0.5C168.3,68.1,168.5,68.3,168.6,68.5z M190.7,175.3 c-0.4-0.1-0.9-0.1-1.1-0.4c0-0.1,0.1-0.4,0.1-0.5c0.4,0.1,0.9,0.3,1.1,0.4C191,174.9,190.7,175.2,190.7,175.3z M203.4,58.3 c0-0.5-0.1-0.9,0-1.3c0,0,0.5-0.1,0.8-0.1c0,0.5,0,1,0,1.4C203.9,58.5,203.6,58.5,203.4,58.3z M104,36.1c-0.3-0.5-0.4-0.8-0.4-1 c0,0,0.5-0.4,0.6-0.3c0.3,0.1,0.5,0.4,0.5,0.6C104.7,35.7,104.4,35.8,104,36.1z M202.5,128.7c-0.1-0.5-0.3-0.9-0.4-1.3 c0.3-0.1,0.5-0.1,0.8-0.3c0,0.5,0,1,0,1.4C202.8,128.6,202.6,128.7,202.5,128.7z M203,109c0.5,0.1,1,0.4,1.4,0.5 c0,0.3-0.1,0.4-0.1,0.6c-0.5-0.1-1-0.4-1.4-0.5C202.9,109.4,203,109.1,203,109z M57.7,157.4c-0.5,0-1,0-1.3,0c0-0.1-0.1-0.3-0.1-0.5 c0.5-0.1,1-0.1,1.4-0.3C57.7,156.9,57.7,157.2,57.7,157.4z M206.9,171.1c-0.4,0.4-0.6,0.6-0.9,0.6c-0.1-0.3-0.5-0.4-0.4-0.6 c0-0.3,0.3-0.5,0.5-0.6C206.3,170.6,206.6,170.9,206.9,171.1z M232.3,155c-0.5-0.4-1-0.8-1.3-1.1c0.1-0.1,0.1-0.4,0.3-0.5 c0.5,0.3,1,0.8,1.4,1C232.5,154.7,232.4,154.8,232.3,155z M56.8,103c0.3,0.6,0.4,1,0.4,1.1c0,0.1-0.5,0.6-0.5,0.5 c-0.3-0.1-0.6-0.5-0.8-0.8C56,103.7,56.3,103.4,56.8,103z M236.6,134.8c-0.1,0.3-0.4,0.5-0.5,0.6c-0.3-0.3-0.5-0.5-0.6-0.8 c0,0,0.4-0.5,0.5-0.5C236.3,134.3,236.4,134.7,236.6,134.8z M235.8,239.1c-0.3-0.3-0.6-0.6-0.6-0.6c0.3-0.4,0.5-0.6,0.8-0.9 c0.1,0.1,0.4,0.4,0.4,0.5C236.3,238.4,236,238.7,235.8,239.1z M246.2,130.4c-0.3-0.3-0.6-0.4-0.6-0.5c0-0.3,0.1-0.5,0.3-0.8 c0.3,0.1,0.6,0.3,0.8,0.5C246.4,129.9,246.3,130.1,246.2,130.4z M238.3,240.2c-0.4,0.3-0.6,0.5-0.9,0.6c-0.1,0-0.4-0.3-0.6-0.3 c0.3-0.3,0.5-0.6,0.8-0.9C237.7,239.7,238.1,240,238.3,240.2z M239.7,230.3c-0.5,0-0.9,0-1.3-0.1c0-0.1,0-0.4,0-0.5 c0.5,0,0.9,0,1.3,0.1C239.7,230,239.7,230.1,239.7,230.3z M261.5,99.6c0.5,0,1,0.1,1.4,0.1c0,0.1,0,0.4,0,0.5c-0.5,0.1-1,0-1.4,0.1 C261.5,100,261.5,99.9,261.5,99.6z M143.9,38.6c2.2-0.5,3.9-1.5,5.9-0.5c-0.5,0.1-0.9,0.4-1.4,0.4c0,0.1-0.1,0.6,0,0.8 c0.8,0.6,0.9,1.5,0.1,2c-0.4,0.3-1.4-0.3-2-0.6C145.6,40.3,144.9,39.6,143.9,38.6z M328.4,106.6c0.5-1.1,0.8-2.2,1.3-3.4 c1.4,1.1,2.7,2,3.7,3C331.9,107.7,331.7,107.7,328.4,106.6z M352.6,262.1c-0.5,1.5,0.6,3.2-1.6,3.9c0-0.8,0.1-1.3,0.3-2 c-1.3,0.3-2.7,0.6-3.4-1.1C348.8,260.8,350.6,261.5,352.6,262.1z M289.1,271.5c3.2,0.3,4.7,1.8,5.9,4.2 C292,275.4,290.6,273.8,289.1,271.5z M169.6,251.2c-1.8,1.9-4.2,1.8-6.1,2.8C163.1,251.5,164.3,251.1,169.6,251.2z M288.3,97.2 c-1.8-2-1.8-2.2,1-4.2C289.3,94.5,290.5,96.2,288.3,97.2z M329.8,196.7c1.3-1.3,2.8-2.5,4.9-2.8C334.4,195.5,333.9,196,329.8,196.7z M122.4,55.6c0.9-1.3,1.3-2.2,2-3c0.3-0.3,1-0.4,1.1-0.3c0.4,0.4,0.6,1,0.4,1.4C125.2,54.6,124.4,55.6,122.4,55.6z M219,179.8 c-1.9-0.4-3.4-1.3-4.6-3.4C216.8,176.8,217.7,178.6,219,179.8z M353.6,267.4c-1-0.8-1-2.3-0.3-3c0.3-0.3,0.9-0.3,1.1-0.3 c0,1,0.4,1.8,0.3,2.8C354.9,267.2,354,267.3,353.6,267.4z M107,179.5c-1.3-0.6-2.4-1.1-3.9-1.6C105.9,177.1,106.8,177.3,107,179.5z M242.9,244.8c0.1,1,0.4,1.6,0.6,2.5c-1.3,0-2.4,0.1-4.2,0.3C240.7,246.5,241.6,245.8,242.9,244.8z M61.6,186.3 c-1,0.4-2.3,0.9-3.3,1.3c-0.6-2.4-0.6-2.4,3.2-2C61.5,185.9,61.6,186.2,61.6,186.3z M20.5,185.2c0.8,1.3,1.3,2.5,2,3.7 C20.4,188.2,20.1,187.8,20.5,185.2z M226.2,127.7c-2.8,0-2.8,0-2.5-1.8C224.9,126.1,225.9,126.3,226.2,127.7z M101.9,190.2 c1-1,1.5-1.9,2.3-2.8C104.9,189.5,104.7,190,101.9,190.2z M269.8,137.8c-0.9,0.4-1.3,0.6-2.3,0.9c-0.3-1.1-0.5-2-0.8-3.3 C268.1,136.3,268.8,136.9,269.8,137.8z M310.6,94.3c-1.4,0.1-2.3-0.1-2.7-1.8C309.3,92.5,310.5,92.6,310.6,94.3z M293,189.2 c-0.5,0.5-1.1,0.9-1.5,1.1c-0.3-0.4-0.6-0.8-0.8-1c0.6-0.4,1-0.6,1.8-1C292.5,188.6,292.7,189,293,189.2z M289.3,262.2 c0,0.8,0.1,1.4,0,1.5c-0.4,0.4-1,0.1-1.4,0.4c0-0.5-0.1-1,0-1.3C288.2,262.5,288.7,262.5,289.3,262.2z M87,76.4c0.3-1.8,0.8-2.4,2-2 C88.5,75.1,87.8,75.3,87,76.4z M103.9,141.5c1,0.8,1.3,1,1.8,1.3c0,0-0.1,0.6-0.4,0.6C104.4,143.8,103.9,143.1,103.9,141.5z M90.6,42.7c0.8,0.5,1.1,1.1,2.2,1.8C91,45.1,90.6,44,90.6,42.7z M102.5,45.6c-0.8-0.4-1.9-0.6-0.9-2.2c0.5,0.6,0.9,1.3,1.3,1.8 c0,0,0,0.3-0.1,0.3C102.8,45.6,102.7,45.6,102.5,45.6z M239.6,124.4c0.6-1.3,0.9-2,1.9-1.5c0.3,0.1,0.4,0.5,0.5,0.8 C241.4,123.9,240.6,124.2,239.6,124.4z M233.3,227.6c0.1-1.1,0.9-1.4,1.6-1c0.1,0,0.4,0.5,0.4,0.8 C234.8,228.3,234,227.9,233.3,227.6z M146.6,147.6c-0.3-0.8-0.3-1.4-0.6-2.5C147.3,145.7,147.3,145.7,146.6,147.6z M299.5,283.2 c0.6,0.4,1,1,1.9,1.5C300,285.1,299.2,284.8,299.5,283.2z M111.1,97.1c-0.6,0.8-1.3,1.1-1.9,1.9C109,97.5,110.2,97.5,111.1,97.1z M290.6,119c-0.1-0.9,0-1.5-0.1-2.4C292.1,117.2,292,118,290.6,119z M114.7,79.2c0.5-0.5,1-0.8,2-1.4c-0.1,1.6-0.8,2.2-1.8,2 C114.7,79.6,114.7,79.5,114.7,79.2z M198.3,143.9c1,0.6,0.9,1.3,0.1,1.9c-0.1,0.1-0.8,0.1-0.9,0 C197.2,144.9,197.4,144.3,198.3,143.9z M208,277.2c0.6-0.4,1-0.6,1.8-1c0.1,0.1,0.3,0.4,0.5,0.5c-0.1,0.3-0.3,0.6-0.5,0.9 c-0.3,0.3-0.8,0.4-1,0.4C208.2,277.7,208,277.4,208,277.2z M323,143.9c-0.5,0.3-1,0.4-1.5,0.5l-0.4-0.8c0.5-0.4,1-0.5,1.4-0.8 C322.7,143.3,322.9,143.7,323,143.9z M202,44.2c0.1,0.8,0.1,1.1,0,1.5c0,0.1-0.9,0.4-0.9,0.3c-0.3-0.4-0.4-0.9-0.3-1.1 C200.9,44.4,201.5,44.3,202,44.2z M98.5,180.1c0.6,0.1,1,0.1,1.1,0.4c0.1,0.3,0.3,0.9-0.1,1c-0.1,0.3-0.9,0.3-1,0.1 C98.6,181.2,98.6,180.9,98.5,180.1z M37.5,183c0,0.8-0.3,1.3-0.3,2c-0.3,0-0.4,0-0.6,0c0-0.8,0-1.3,0-2 C37,182.9,37.2,182.9,37.5,183z M271.7,167.6c-0.1,0.4-0.3,0.8-0.4,0.9c-0.3,0.1-0.8,0-1-0.1c0-0.4,0-0.8,0.4-1 c0.3-0.4,0.6-0.6,1-0.8C271.6,167.1,271.6,167.3,271.7,167.6z M173.5,189.7c0.6,0,1,0.1,1.6,0.1l0.1,0.5c-0.5,0.3-1,0.3-1.5,0.4 C173.5,190.5,173.5,190.1,173.5,189.7z M320.7,271.9c0,0.6,0,1-0.1,1.4c0,0.1-0.6,0.1-1,0c0-0.5,0-0.9,0.1-1.3 C320,272,320.3,272,320.7,271.9z M188.5,158.1c-0.3,1.5-0.6,2-1.9,1.6c0.1-0.4,0.1-0.8,0.3-0.9C187.1,158.6,187.6,158.6,188.5,158.1 z M176.7,186.2c0,0.6-0.3,1-0.3,1.4c-0.3-0.1-0.8,0-0.8-0.3c-0.1-0.4-0.1-0.8,0-1C175.9,186.3,176.2,186.3,176.7,186.2z M77.3,80.8 c0-0.5,0.1-0.9,0.3-1.3c0.3,0,0.4,0,0.6,0c0,0.5,0,1,0,1.4C77.8,80.8,77.6,80.8,77.3,80.8z M172.1,162.1c0.3-0.5,0.5-0.9,0.9-1.1 c0.3,0.1,0.5,0.3,0.8,0.4c-0.3,0.4-0.6,0.9-1,1C172.5,162.4,172.3,162.3,172.1,162.1z M317,284.4c0.3-0.5,0.8-1,1-1.3 c0.3,0.1,0.4,0.1,0.6,0.3c-0.3,0.6-0.6,1-0.9,1.6C317.3,284.8,317.2,284.5,317,284.4z M132.6,147.4c-0.4-0.4-0.8-0.8-0.9-1.3 c0.3-0.1,0.6-0.5,0.6-0.5c0.4,0.4,0.8,0.8,0.9,1.1C133.2,147.1,132.9,147.2,132.6,147.4z M63.7,131.9c0.5-0.5,1-0.8,1.6-1.1 c0.1,0.1,0.3,0.3,0.4,0.4c-0.3,0.3-0.4,0.6-0.8,0.9c-0.3,0.3-0.8,0.4-1,0.4C63.9,132.1,63.8,132,63.7,131.9z M90.9,201.5 c0.4-0.6,0.8-1,1.1-1.5c0.3,0.1,0.5,0.3,0.6,0.3c-0.3,0.6-0.6,1.1-0.9,1.9C91.3,201.9,91.1,201.7,90.9,201.5z M235.4,271.1 c0.5,0.1,1,0.4,1.5,0.5c0,0.1,0,0.4-0.1,0.5c-0.5,0-1-0.1-1.5-0.3C235.3,271.5,235.3,271.2,235.4,271.1z M169,110.7 c0.6,0,1,0,1.3,0.1c0.3,0.1,0.3,0.6,0.4,0.9c-0.4,0.1-0.8,0.4-1,0.1C169.3,111.9,169.2,111.4,169,110.7z M227.9,176.9 c0.5,0,0.9-0.1,1.1,0c0.1,0,0.3,0.6,0.1,0.8c-0.3,0.1-0.6,0.3-1,0.1C228.1,177.7,228.1,177.3,227.9,176.9z M171.9,66.3 c0.6,0.3,1,0.5,1,0.8c0.1,0.3-0.1,0.6-0.3,1c-0.4-0.1-0.9,0-1-0.4C171.6,67.5,171.9,67,171.9,66.3z M58.9,181.7 c0.5,0.1,0.9,0.1,1,0.4c0.1,0.1,0.3,0.6,0.1,0.8s-0.5,0.3-0.8,0.3C59.2,183,59.1,182.4,58.9,181.7z M286.7,144.2 c-0.3,1-0.3,1.5-0.4,1.5c-0.3,0.1-0.6,0-1-0.1c0.1-0.3,0.1-0.6,0.3-0.8C286,144.7,286.2,144.5,286.7,144.2z M285.2,142.5 c0.3-0.5,0.5-1,0.6-1.4c0.1,0.1,0.4,0.1,0.5,0.3c-0.3,0.5-0.5,1-0.8,1.4C285.4,142.6,285.3,142.6,285.2,142.5z M214.8,142.8 c0.3-0.4,0.6-0.8,1-0.9c0.1,0.1,0.4,0.3,0.4,0.4c-0.1,0.4-0.4,0.8-0.8,1C215,143.3,214.9,142.9,214.8,142.8z M182.9,264.1 c0.3,0.5,0.4,1,0.5,1.4c-0.1,0.1-0.3,0.1-0.4,0.3c-0.3-0.5-0.6-0.9-0.8-1.3C182.5,264.4,182.6,264.3,182.9,264.1z M317.8,181.9 c0.1,0.4,0.3,0.8,0.1,0.9c-0.3,0.1-0.6,0.3-0.8,0.1c-0.1,0-0.1-0.5-0.3-0.8C317.2,182,317.4,182,317.8,181.9z M230,190.1 c0.5,0.1,1,0.3,1.3,0.3c0,0.1,0,0.4-0.1,0.5c-0.5-0.1-0.9-0.1-1.3-0.4C229.8,190.5,229.8,190.4,230,190.1z M138.1,111 c0,0.5,0,0.8-0.1,1c-0.3,0-0.5,0-0.8,0c-0.1,0-0.1-0.5-0.1-0.5C137.5,111.1,137.7,111.1,138.1,111z M135.3,116.1 c0.3-0.4,0.6-0.9,1-1c0.1,0.1,0.3,0.1,0.4,0.3c-0.3,0.4-0.5,0.9-0.9,1.1C135.7,116.2,135.6,116.1,135.3,116.1z M126.8,83.8 c0.1-0.3,0.1-0.6,0.4-0.9c0.3-0.3,0.6-0.4,1-0.4c0.1,0.3,0.4,0.6,0.3,0.8c-0.3,0.3-0.6,0.5-0.9,0.6 C127.3,83.8,127.1,83.8,126.8,83.8z M114.5,120.5c0.4,0.3,0.9,0.5,1.1,0.9c0,0-0.3,0.5-0.4,0.6c-0.5-0.3-0.9-0.5-1.3-0.9 C114.3,120.9,114.4,120.6,114.5,120.5z M194.3,47.1c0.5,0.1,0.9,0.1,1.1,0.4c0,0,0,0.6-0.1,0.8c-0.3,0.1-0.6,0.3-0.9,0.1 C194.3,48,194.4,47.6,194.3,47.1z M399.8,166.6c-0.3,0.4-0.5,0.8-0.8,1c-0.1,0-0.3-0.1-0.4-0.3c0.1-0.4,0.4-0.9,0.6-1.1 C399.4,166.2,399.7,166.4,399.8,166.6z M292.1,77.3c0,0.4,0,0.9-0.1,1.1l-0.5,0.1c-0.3-0.4-0.4-0.8-0.5-1.1 C291.4,77.3,291.7,77.3,292.1,77.3z M53.5,77c0.5,0.1,1,0.4,1.4,0.6c-0.1,0.3-0.1,0.5-0.3,0.8c-0.5-0.3-1-0.6-1.3-0.9 C53.4,77.1,53.5,77,53.5,77z M70.5,89.4c-0.4,0.4-0.9,0.6-1.3,0.9c-0.1-0.1-0.3-0.4-0.4-0.5c0.4-0.4,0.9-0.6,1.3-0.9 C70.1,89.1,70.4,89.2,70.5,89.4z M285.3,122.9c1,0.4,1.5,0.5,2.2,0.6c0,0.1,0,0.4-0.1,0.5c-0.4,0-0.8,0.1-1-0.1 C286,123.7,285.9,123.4,285.3,122.9z M178.7,234.9c0.4,0,0.8,0,1,0.3c0.3,0.1,0.4,0.4,0.8,1c-1-0.4-1.5-0.5-2-0.6 C178.6,235.4,178.6,235.2,178.7,234.9z M43.2,146.4c-0.3,0.4-0.6,0.9-1,1c-0.1-0.1-0.3-0.1-0.5-0.3c0.3-0.5,0.6-1,0.8-1.3 C42.9,146.1,42.9,146.3,43.2,146.4z M92.3,38c-1.4,0.3-2.7,1-3.9,0.4c0.3-0.1,0.6-0.3,1-0.3c0-0.1,0.1-0.4,0-0.5 c-0.5-0.4-0.6-1-0.1-1.3c0.3-0.3,1,0.3,1.3,0.4C91.3,36.8,91.6,37.5,92.3,38z M388.4,233.5c0.4-1-0.5-2,1.1-2.5c0,0.5,0,0.9-0.1,1.3 c0.9-0.3,1.8-0.4,2.4,0.8C390.8,234.3,389.8,233.9,388.4,233.5z M78.5,168.3c0.5,0.5,0.8,0.9,1,1.3c0.1,0.3,0.1,1,0,1 c-0.4,0.3-0.9,0.4-1.1,0.1C77.5,170.4,77.3,169.5,78.5,168.3z M159.6,33.4c-1.3,0-2.4,0-3.8,0c0.8-1.1,1.6-1,2.5-1.1 C158.8,32.3,159.4,32.5,159.6,33.4z M106.4,27c-0.5,0.9-0.9,1.5-1.3,2c-0.1,0.3-0.8,0.4-0.8,0.3c-0.3-0.3-0.5-0.8-0.3-1 C104.7,27.5,105.2,27,106.4,27z M50.1,84c0.4-0.5,0.8-1,1.1-1.1c0.3-0.3,0.9,0,1.1,0.3c-0.1,0.4-0.1,0.9-0.6,1 c-0.4,0.3-1,0.3-1.4,0.4C50.4,84.3,50.3,84.2,50.1,84z M224.2,70.6c-0.1-0.1-0.3-0.3-0.3-0.3c-0.1-1,0.6-1.3,1.3-1.5 c0.1,0,0.5,0.3,0.6,0.4C225.8,69.7,225.5,70,224.2,70.6z M387.7,230.1c0.6,0.4,0.8,1.4,0.3,2c-0.1,0.3-0.6,0.1-0.9,0.3 c-0.1-0.6-0.1-1.1-0.1-1.8C386.9,230.1,387.4,230.1,387.7,230.1z M60.7,56.5c-0.5,1-0.9,1.4-1.1,2C58.7,57.1,58.7,56.8,60.7,56.5z M142.5,101.4c-1.8-0.6-1.8-0.8-0.8-1.8C142.1,100.2,142.3,100.6,142.5,101.4z M169.6,59.6c-0.6,0.1-1,0.1-1.1,0 c-0.3-0.1-0.3-0.8-0.1-1c0.1-0.1,0.8-0.4,1-0.1C169.3,58.7,169.3,59.2,169.6,59.6z M156.4,137.6c-0.4-1.5,1.1-1.3,1.3-2 c0.1,0.1,0.3,0.3,0.4,0.3c-0.3,0.4-0.5,0.6-0.9,1C157.3,136.9,157.1,137.1,156.4,137.6z M77.6,64.7c0.8-0.5,1-0.6,1.6-0.9 c0.1,0.6,0.1,1,0.3,1.4C79,65.1,78.5,65.1,77.6,64.7z M181.5,84c-0.6,0.9-1.3,0.9-2.2,0.3C180.1,83.7,180.9,83.9,181.5,84z M244.1,44c0.5-1.3,1.1-1.1,1.8-0.6C245.5,43.4,245,43.7,244.1,44z M126.2,61.6c0.3,0.5,0.3,1,0.5,1.5 C125.3,62.8,125.3,62.8,126.2,61.6z M166.7,39.6c0.4,0.1,0.8,0.1,1,0.4c0,0.3-0.1,0.5-0.1,0.8c-0.4-0.1-0.8-0.3-1-0.4 C166.6,40,166.7,39.7,166.7,39.6z M232.6,63.7c-0.1,0.5-0.4,0.9-0.8,1.5c-0.6-0.9-0.4-1.3,0.1-1.8C232.1,63.4,232.4,63.4,232.6,63.7 z M177.4,163.1c-0.1-0.8-0.1-1.1-0.3-1.6c0.4,0,0.6-0.1,0.8,0C178.6,162.1,178.3,162.6,177.4,163.1z M192.9,29.4 c-0.8-0.8-1-1.3-1.5-1.8C192.3,27.6,192.3,27.6,192.9,29.4z M127.5,35.2c-0.5-0.4-1-0.8-1.4-1.1C127.2,33.7,127.6,34.3,127.5,35.2z M175.4,77.3c0.5-1,1-0.9,1.1-0.5c0,0.1,0,0.4,0,0.5C176.4,77.3,175.9,77.5,175.4,77.3z M119.6,33.4c0.5,0.3,1.1,0.5,0.6,1.3 c-0.4-0.4-0.6-0.8-0.9-1.1v-0.1C119.5,33.4,119.6,33.4,119.6,33.4z M50.3,104.4c0.3-0.3,0.4-0.6,0.6-0.9c0.3,0.1,0.4,0.3,0.6,0.4 c-0.3,0.3-0.5,0.5-0.8,0.9C50.6,104.5,50.4,104.5,50.3,104.4z M129.9,183c-0.1,0.5-0.3,1-0.4,1.4c-0.1,0-0.3,0-0.4,0 c0-0.5,0.1-1,0.1-1.4C129.4,183,129.6,183,129.9,183z M142.5,131.1c-0.1-0.5-0.3-0.8-0.4-1.3c0.6,0.1,1,0.4,1.5,0.5 C143.3,130.7,142.9,131,142.5,131.1z M185.4,65.6c0,0.5,0,0.8-0.3,1c0,0.1-0.5,0.1-0.8,0.1c0-0.4-0.1-0.6,0.1-1 C184.5,65.6,184.9,65.6,185.4,65.6z M207.4,103.4c0.6,0,1.1,0.3,2.3,0.4c-1,0.8-1.6,0.5-2.3,0.3 C207.4,103.8,207.4,103.7,207.4,103.4z M71.3,168.1c-0.5,0.8-1,0.9-1.6,0.6C70,167.8,70.4,167.8,71.3,168.1z M74.7,80.9 c0,0.8,0,1,0,1.5c-0.3,0-0.4,0.1-0.5,0C73.8,82,73.8,81.6,74.7,80.9z M155.6,146.8c-0.4-0.1-0.8-0.4-1-0.6c0,0,0.1-0.5,0.3-0.5 c0.4,0.1,0.8,0.3,1,0.5C155.8,146.4,155.6,146.6,155.6,146.8z M90,138.6c0.3-0.8,0.6-1,0.9-1.6C91.3,137.8,91,138.1,90,138.6z M92.5,182.4c-0.4,0-0.8,0-1-0.3v-0.5c0.3,0,0.6,0,0.9,0C92.4,181.7,92.4,182,92.5,182.4z M55.4,101c-0.4,0.4-0.8,0.8-1.1,0.9 c-0.1-0.1-0.3-0.3-0.4-0.4c0.4-0.4,0.8-0.6,1.1-0.9C55.3,100.9,55.4,100.9,55.4,101z M134,57.1c0.3,0.1,0.5,0.3,0.6,0.5 s0.1,0.6-0.1,1c-0.3-0.4-0.5-0.9-0.8-1.1C133.9,57.2,133.9,57.2,134,57.1z M64.1,112c-0.4-0.1-0.8-0.1-0.9-0.4c-0.1-0.1,0-0.5,0-0.8 c0.3,0,0.5,0,0.6,0.1C64.1,111.4,64.1,111.6,64.1,112z M168.2,159.2c-0.1-0.9,0.4-1.1,1.1-1C169.3,159,169,159.1,168.2,159.2z M65.6,70.2c-0.3,0.3-0.4,0.6-0.6,0.9c-0.1,0-0.1-0.1-0.3-0.1c0.3-0.4,0.4-0.6,0.6-1C65.3,70.1,65.4,70.2,65.6,70.2z M382.6,225.3 c0-0.4-0.1-0.6,0.1-1c0-0.1,0.4,0,0.6-0.1c0,0.3,0,0.6,0,0.9C383.3,225.3,382.9,225.3,382.6,225.3z M210.2,78.3 c0.4-0.3,0.8-0.5,1.5-0.9C211.2,78.5,211.2,78.5,210.2,78.3z M137.6,142c0-0.4,0.1-0.8,0.3-1c0.1,0,0.5,0.1,0.5,0.1 c0,0.4-0.1,0.8-0.3,1C138,142.1,137.7,142.1,137.6,142z M180,124.4c0.3-0.4,0.4-0.6,0.8-1c0.1,0,0.3,0.1,0.4,0.1 c-0.1,0.4-0.3,0.8-0.5,1C180.2,124.4,180.2,124.4,180,124.4z M42.7,123c0-0.4,0-0.6,0.1-1c0.1,0,0.4,0,0.5,0.1c0,0.4-0.1,0.6-0.3,1 C42.9,123,42.8,123,42.7,123z M137.3,139.9c-0.4,0-0.6,0-1-0.3v-0.4c0.4,0,0.6-0.1,1,0C137.3,139.5,137.3,139.7,137.3,139.9z M123.5,91.3c-0.4,0-0.6,0-0.9-0.1c-0.1,0-0.1-0.5-0.1-0.5c0.1-0.1,0.4-0.1,0.6-0.3C123.4,90.6,123.4,90.9,123.5,91.3z M42.8,105.1 c0.3-0.4,0.4-0.8,0.8-1c0.1,0.1,0.3,0.1,0.4,0.3c-0.3,0.4-0.4,0.8-0.8,1.1C43.2,105.3,43,105.2,42.8,105.1z M207.4,79.2 c0.3-0.4,0.5-0.6,0.8-1c0.1,0.1,0.3,0.1,0.4,0.3c-0.1,0.4-0.4,0.8-0.6,1C207.7,79.5,207.6,79.4,207.4,79.2z M216.9,66.7 c-0.1,0.4-0.1,0.9-0.4,1.1c-0.1,0-0.3,0-0.4,0c0-0.4,0.1-0.9,0.3-1.1C216.7,66.7,216.8,66.7,216.9,66.7z M207.6,100.2 c0.1,0.4,0.3,0.8,0.5,1.5c-0.6-0.5-0.9-0.6-1-0.9c-0.1-0.1,0-0.5,0-0.8C207.2,100.1,207.3,100.1,207.6,100.2z M204.7,92.9 c-0.4-0.1-0.6-0.4-0.9-0.5c0-0.1,0.1-0.3,0.1-0.3c0.4,0.1,0.6,0.3,1,0.5C204.8,92.6,204.7,92.8,204.7,92.9z M67.3,117.1 c0.1,0.1,0.3,0.4,0.3,0.4c-0.1,0.1-0.3,0.3-0.4,0.4c-0.1-0.1-0.3-0.3-0.1-0.4C67.1,117.3,67.2,117.2,67.3,117.1z M178.3,112.4 c0.3,0,0.4,0,0.6-0.1c0,0.3,0,0.5,0,0.6c0,0-0.4,0.1-0.5,0C178.2,112.9,178.3,112.6,178.3,112.4z M152.1,90.9c-0.5,0-0.8,0.1-1,0 c0-0.3-0.1-0.6,0-0.6c0.3-0.1,0.5-0.1,0.8-0.1C151.9,90.4,152,90.6,152.1,90.9z M156.6,81c0-0.3,0-0.5,0.1-0.6s0.4,0,0.5,0 c0,0.1,0,0.4,0,0.5C156.9,81,156.8,80.9,156.6,81z M169.2,97.7c-0.3,0.1-0.4,0.1-0.5,0.3c0-0.1-0.3-0.4-0.1-0.5 c0.1-0.1,0.4-0.3,0.5-0.3C169.1,97.3,169.1,97.5,169.2,97.7z M88.5,64.4c0.3-0.3,0.4-0.5,0.6-0.9c0.1,0.1,0.3,0.3,0.4,0.4 c-0.3,0.3-0.5,0.5-0.8,0.6C88.6,64.6,88.5,64.4,88.5,64.4z M96.6,79.2c0.3,0.3,0.5,0.5,0.9,1.1C96.3,80.4,96.3,80,96.6,79.2z M174.2,37.8c-0.3,0.3-0.4,0.4-0.6,0.6c-0.1-0.1-0.1-0.1-0.3-0.3c0.3-0.3,0.5-0.4,0.6-0.6C174,37.7,174.2,37.8,174.2,37.8z M110.6,107.8c-0.1,0.3-0.4,0.6-0.5,0.9c-0.1,0-0.3-0.1-0.3-0.1c0.1-0.4,0.3-0.6,0.5-1C110.5,107.7,110.6,107.8,110.6,107.8z M178.2,26.8c0,0.4,0.1,0.6,0.1,0.9c-0.1,0-0.4,0.1-0.5,0c-0.1-0.1-0.1-0.4-0.1-0.5C177.7,27.1,178,27,178.2,26.8z M78.9,86.6 c0.5,0.1,0.8,0.1,0.9,0.3c0.1,0.1,0.1,0.5,0.1,0.5c-0.3,0.1-0.5,0.3-0.8,0.1C79,87.5,79,87.2,78.9,86.6z M151.1,146.6 c-0.1-0.3-0.1-0.4-0.3-0.6c0.3,0,0.5-0.1,0.6-0.1c0,0,0.1,0.4,0.1,0.5C151.5,146.7,151.3,146.6,151.1,146.6z M229.2,37.2 c-0.3,0-0.6,0.1-0.6,0.1c-0.1-0.3-0.1-0.5-0.3-0.9c0.1,0,0.4-0.1,0.5,0C229,36.6,229,36.8,229.2,37.2z M230.9,36.2 c0,0.4,0.1,0.6,0,0.8c0,0.1-0.3,0.1-0.4,0.3c-0.1-0.3-0.3-0.5-0.3-0.8C230.2,36.3,230.6,36.2,230.9,36.2z M225.5,31.3 c-0.1,0.3-0.4,0.5-0.5,0.8c-0.1-0.1-0.1-0.1-0.3-0.3c0.1-0.3,0.4-0.5,0.5-0.8C225.4,31.1,225.4,31.3,225.5,31.3z M215,66.1 c1.9,0,3.4-0.8,5.2,0.6c-0.4,0.1-0.9,0.1-1.3,0.1c0,0.1-0.3,0.5-0.1,0.6c0.5,0.6,0.5,1.4-0.3,1.8c-0.4,0.1-1.1-0.5-1.6-0.9 C216.3,67.7,215.8,66.8,215,66.1z M361.6,153.5c0.6-1,1-1.6,1.6-2.8c0.9,1.3,1.9,2.2,2.7,3.3C364.4,155.2,364.3,155.2,361.6,153.5z M202.9,251.4c-1.8,1.3-3.8,0.8-5.7,1.4C197.2,250.5,198.2,250.2,202.9,251.4z M328.8,139.1c-1.1-2.2-1.1-2.2,1.4-3.3 C330,137.1,330.7,138.6,328.8,139.1z M127.2,55.2c1.6,0.4,3.2,0.6,4.9,1c-1.1,1.3-2.4,0.9-3.3,0.8C127.7,56.8,127.1,56.3,127.2,55.2 z M348.3,230.5c1.4-0.9,2.8-1.8,4.6-1.8C352.2,230.6,351.6,230.7,348.3,230.5z M194,76.8c1-0.9,1.4-1.6,2.2-2.4c0.3-0.3,1-0.1,1,0 c0.3,0.4,0.3,1,0.1,1.3C196.6,76.4,195.7,77.2,194,76.8z M256.4,198.5c-1.6-0.6-2.8-1.6-3.3-3.5 C254.9,195.5,255.5,197.2,256.4,198.5z M118.5,71.1c0.3,0.6,0.3,1.1,0.6,2c-1.4-0.1-2.5-0.3-3.5-0.4c0-0.1-0.1-0.4-0.1-0.5 C116.3,72,117.3,71.5,118.5,71.1z M161,180c-1-0.8-1.9-1.3-3-2.2C160.5,177.8,161.1,178.3,161,180z M266.3,257.7 c0.1,0.9,0,1.4,0,2.3c-1-0.3-2-0.3-3.5-0.5C264.3,258.8,265.2,258.3,266.3,257.7z M121.1,178.7c-1,0.1-2,0.5-3,0.6 c-0.1-2.2-0.1-2.2,3-1.1C121,178.1,121,178.3,121.1,178.7z M72.5,155.2c1.1-0.4,2.4-0.8,3.8-1C75.8,155.7,75.3,155.8,72.5,155.2z M86.3,171c0.4,1.3,0.8,2.3,1,3.5C85.7,173.6,85.6,173.3,86.3,171z M273.4,54.4c0.9-1,1.3-1.5,1.9-2.4 C276.2,54,275.9,54.3,273.4,54.4z M270.9,155.2c-2.4-0.4-2.4-0.4-1.8-2C270.1,153.5,271,153.9,270.9,155.2z M154.8,188.5 c0.9-0.8,1.6-1.3,2.4-2C157.7,188.2,157.2,188.6,154.8,188.5z M306.5,170.7c-0.8,0.3-1.3,0.3-2,0.5c0-1,0-1.8,0-3 C305.3,169.2,305.9,169.7,306.5,170.7z M96.6,108.6c0.1,1,0.4,1.9,0.6,2.9C95.6,110.9,95.6,110.9,96.6,108.6z M29.8,172 c0.8-1,1-1.5,1.3-2.2c0.3,0.1,0.5,0.1,0.5,0.1c0,0.8,0,1.4,0,2.2C31,172.1,30.6,172.1,29.8,172z M391.5,138.3 c-0.9-1.4-0.9-2.2-0.3-2.5c0.3-0.1,0.8,0.1,1,0.4C392.1,136.8,391.8,137.3,391.5,138.3z M348.3,140.4c-1.1-0.1-1.9-0.5-2-1.9 C347.5,138.5,348.3,138.8,348.3,140.4z M120.9,18.9c0.8,0,1.4,0,1.6,0.3c0.3,0.3,0.1,1-0.1,1.3c-0.1,0.3-1,0.1-1.1-0.1 C120.9,20.1,121.1,19.5,120.9,18.9z M317.9,218.4c-0.5,0.4-1,0.5-1.5,0.9c-0.3-0.4-0.4-0.8-0.5-1c0.5-0.3,1-0.4,1.5-0.6 C317.6,217.7,317.7,217.9,317.9,218.4z M303.1,280.1c-0.1,0.6-0.1,1.1-0.4,1.3c-0.4,0.3-0.9,0.1-1.3,0c0-0.4,0.1-1,0.3-1.1 C302.1,280.1,302.5,280.1,303.1,280.1z M240.6,35.2c-1,0.4-1.5,0.6-2.4,0.9c0-0.9,0-1.3,0-2C239.1,34.3,239.7,34.6,240.6,35.2z M177.4,27.2c-0.1-0.6-0.1-1.3-0.3-2.2C178.6,25.7,178.6,25.7,177.4,27.2z M119.4,45.4c-0.5-0.1-1-0.5-1.4-0.8 c0.1-0.4,0.3-0.6,0.5-1c0.5,0.3,1,0.5,1.4,0.8C119.7,44.9,119.6,45.2,119.4,45.4z M160.4,88.9c0.5-1.5,1.1-1.8,2.2-1.4 C162,88,161.4,88.3,160.4,88.9z M164.3,147.2c0.8,0.6,0.9,1.1,1.3,1.4c0,0-0.3,0.5-0.4,0.5C164.4,149.1,164.2,148.7,164.3,147.2z M169.1,60.9c0.5,0.5,0.9,1.1,1.5,1.9C169,63,168.7,61.9,169.1,60.9z M178.7,65.2c-0.6-0.5-1.5-0.9-0.5-1.9c0.4,0.6,0.5,1,0.9,1.8 c0,0,0,0.1-0.1,0.3C179,65.2,178.8,65.2,178.7,65.2z M198.8,274.4c-0.9,1-1.8,0.9-3,0.3C196.8,273.6,198,274.3,198.8,274.4z M282.9,154.5c0.8-1,1.1-1.5,1.9-0.9c0.1,0.1,0.3,0.5,0.4,0.8C284.5,154.3,283.9,154.4,282.9,154.5z M49.5,83.8c0.9,1,1,1.5,0.1,2.3 C48.6,85.4,48.6,84.8,49.5,83.8z M260.9,241.5c0.4-1,1-0.9,1.4-0.8c0.1,0,0.3,0.5,0.1,0.6C262.1,242.1,261.5,241.7,260.9,241.5z M199.7,159.1c-0.1-0.6,0-1.3-0.1-2.3C200.7,158,200.7,158,199.7,159.1z M177.7,110.5c-0.6,0.5-1.3,0.9-2,1.3 C175.8,110.5,176.9,110.7,177.7,110.5z M36.2,172.5c0.1-0.8,0.5-1.4,0.6-2.2C37.6,171.2,37.2,172,36.2,172.5z M327.3,158.1 c0.1-0.8,0.3-1.4,0.4-2.2C328.8,156.7,328.4,157.4,327.3,158.1z M183.5,95.8c0.5-0.3,1-0.5,2-0.9c-0.4,1.4-1,1.5-1.8,1.4 C183.7,96.2,183.5,96.1,183.5,95.8z M244.5,164.4c0.8,0.6,0.5,1.1-0.3,1.6c-0.1,0.1-0.6,0-0.8-0.1 C243.4,165.2,243.8,164.7,244.5,164.4z M350.8,184.5c-0.5,0.1-1,0.1-1.4,0.1c0,0-0.3-0.6-0.1-0.6c0.5-0.3,1-0.3,1.4-0.4 C350.8,184,350.8,184.3,350.8,184.5z M358.4,118.5c0.5,0.1,0.9,0,1,0.3c0.1,0.3,0,0.6,0,0.9c-0.3,0-0.6,0-0.6-0.1 C358.4,119.2,358.6,119,358.4,118.5z M49.6,129.9c0.6,0.8,0.9,1.1,1.3,1.6c-0.3,0.1-0.4,0.4-0.6,0.4 C49.5,131.6,49.2,131.1,49.6,129.9z M263.8,80c0,0.6-0.1,1-0.3,1.3c0,0.1-0.9,0.1-0.9,0.1c-0.1-0.4-0.1-0.8,0-1 C262.8,80.2,263.1,80.1,263.8,80z M153.5,179.2c0.5,0.3,1,0.4,1,0.5c0.1,0.3,0,0.8-0.3,1c-0.1,0.1-0.9,0.1-0.9,0 C153.4,180.2,153.5,179.8,153.5,179.2z M98.5,122.8c-0.1-0.5-0.1-1-0.3-1.3c0.3,0.1,0.6,0.3,0.8,0.5c0.1,0.1,0.1,0.5,0.3,0.6 C99,122.5,98.6,122.6,98.5,122.8z M101.3,171.7c-0.1,0.6-0.4,1-0.6,1.6c-0.1,0-0.4-0.1-0.5-0.1c0.1-0.6,0.3-1,0.4-1.6 C100.8,171.6,101,171.7,101.3,171.7z M165.9,30.8c-0.3-0.3-0.5-0.5-0.6-0.8c-0.1-0.4-0.1-0.9,0.5-1.3c0.3,0.6,0.4,1.1,0.6,1.8 C166.2,30.6,166.1,30.8,165.9,30.8z M303.4,196.6c-0.1,0.3-0.3,0.6-0.5,0.8c-0.3,0.1-0.6-0.1-0.9-0.1c0.1-0.3,0.1-0.6,0.4-0.9 c0.3-0.3,0.6-0.4,1-0.5C303.3,195.9,303.4,196.3,303.4,196.6z M215.9,199.5c0.5,0.1,1,0.3,1.4,0.4v0.5c-0.5,0.1-1,0-1.4,0.1 C215.9,200,215.9,199.8,215.9,199.5z M104.2,80.5c0.3,1,0.6,2-1.1,1.9C103.5,81.8,103.9,81,104.2,80.5z M233.8,175 c-0.5,1.3-0.9,1.6-1.9,1c0.1-0.4,0.3-0.6,0.4-0.8C232.6,175.3,233,175.2,233.8,175z M120.8,73c0.6,0.1,1.1,0.5,1.9,0.6 c0,0.1-0.1,0.4-0.1,0.5c-0.6-0.3-1.1-0.5-1.9-0.8C120.6,73.3,120.6,73.2,120.8,73z M219.3,197.1c-0.1,0.5-0.3,0.9-0.5,1.1 c-0.3-0.1-0.6-0.1-0.6-0.3c0-0.3,0-0.6,0.3-1C218.6,196.9,219,197.1,219.3,197.1z M353.2,119.1c0.3-0.5,0.6-1,0.9-1.5 c0.1,0.1,0.4,0.1,0.5,0.3c-0.3,0.5-0.5,1-0.8,1.5C353.6,119.4,353.4,119.2,353.2,119.1z M151.6,91c0.1-0.4,0.3-0.8,0.4-1 c0.1,0,0.4,0,0.5,0.1c0,0.4-0.1,0.9-0.3,1.1C152,91.1,151.9,91.1,151.6,91z M219.3,175.8c0.3-0.4,0.5-0.6,1-0.9 c0.1,0.1,0.4,0.3,0.5,0.5c-0.4,0.4-0.6,0.6-1.1,0.9C219.5,176.2,219.3,176.1,219.3,175.8z M188,156.9c-0.3-0.4-0.5-0.8-0.6-1.1 c0.3-0.1,0.6-0.4,0.6-0.4c0.3,0.4,0.5,0.8,0.6,1C188.3,156.7,188.2,156.8,188,156.9z M131.6,132.5c0.5-0.3,1-0.5,1.5-0.8 c0.1,0.1,0.1,0.3,0.3,0.4c-0.3,0.3-0.5,0.5-0.8,0.6c-0.3,0.1-0.6,0.1-1,0.1C131.8,132.8,131.8,132.6,131.6,132.5z M185.3,234.8 c-0.6,0.1-1,0.1-1.8,0.1C184.5,234.1,184.5,234.1,185.3,234.8z M143.5,196.3c0.4-0.5,0.8-0.9,1.1-1.1c0.1,0.1,0.4,0.3,0.5,0.4 c-0.3,0.5-0.8,1-1.1,1.3C144,196.7,143.8,196.4,143.5,196.3z M60,156.9c-0.5,0.3-1,0.4-1.5,0.6c-0.1-0.1-0.1-0.3-0.3-0.5 c0.5-0.3,1-0.5,1.5-0.8C59.9,156.6,59.9,156.7,60,156.9z M252.8,275.4c-0.5,0.1-0.9,0.4-1.3,0.4c-0.1-0.1-0.1-0.4-0.3-0.5 c0.5-0.1,1-0.1,1.3-0.4C252.8,275,252.9,275.1,252.8,275.4z M224.9,131.6c0.5,0.1,0.9,0.1,1,0.4c0.1,0.1,0.1,0.5,0.1,0.8 c-0.4,0-0.8,0.1-1-0.1C225,132.5,225,132,224.9,131.6z M264.5,197.4c0.4,0,0.8,0,1,0.3c0.1,0,0,0.6,0,0.6c-0.3,0.1-0.6,0.1-0.9,0 C264.5,198.2,264.5,197.8,264.5,197.4z M234.5,94c0.5,0.4,0.9,0.5,0.9,0.6c0,0.3-0.3,0.6-0.4,0.9c-0.3-0.1-0.8-0.1-0.8-0.4 C234,94.9,234.4,94.5,234.5,94z M119.5,174.4c0.4,0.1,0.8,0.3,0.9,0.4c0.1,0.1,0.1,0.5,0,0.6c-0.1,0.1-0.5,0.1-0.6,0.1 C119.6,175.4,119.6,175,119.5,174.4z M320,179c-0.5,1-0.5,1.3-0.6,1.3c-0.3,0-0.6-0.1-0.9-0.1c0.1-0.3,0.3-0.5,0.4-0.6 C319.2,179.1,319.5,179.2,320,179z M318.8,177.2c0.3-0.4,0.5-0.9,0.9-1.1c0.1,0.1,0.3,0.1,0.5,0.3c-0.3,0.4-0.5,0.8-0.9,1 C319.1,177.4,318.9,177.3,318.8,177.2z M99.1,190.2c-0.4,0.3-0.6,0.5-1,0.6c0,0-0.3-0.3-0.4-0.4c0.4-0.3,0.6-0.6,1-0.8 C98.9,190,99,190.1,99.1,190.2z M94,203c-0.5,0-0.9,0.1-1.3,0l-0.1-0.4c0.4-0.1,0.9-0.3,1.1-0.3C93.9,202.5,93.9,202.8,94,203z M258.7,166.3c0.3-0.3,0.6-0.5,0.9-0.6c0.1,0.1,0.3,0.4,0.3,0.4c-0.3,0.3-0.5,0.6-0.8,0.9C258.8,166.4,259,166.3,258.7,166.3z M340.2,216c0,0.4,0.1,0.8,0,0.8c-0.3,0.1-0.5,0.1-0.8,0c-0.1-0.1-0.1-0.4-0.1-0.6C339.7,216,340,216.2,340.2,216z M264,209.1 c0.4,0.1,0.8,0.3,1,0.5c0,0.1-0.1,0.3-0.1,0.5c-0.4-0.1-0.8-0.3-1-0.5C264,209.3,264,209.2,264,209.1z M226.6,32.8 c-0.4,0.3-0.6,0.6-1,0.8c-0.1-0.1-0.3-0.4-0.4-0.5c0.4-0.3,0.8-0.5,1.1-0.5C226.6,32.5,226.4,32.7,226.6,32.8z M198.3,126.7 c-0.1,0.4-0.1,0.6-0.1,0.9c-0.3,0-0.5,0-0.6-0.1c-0.1,0-0.1-0.4,0-0.5C197.7,126.8,198.1,126.8,198.3,126.7z M195.3,130.5 c0.3-0.3,0.6-0.6,1-0.8c0.1,0.1,0.1,0.1,0.3,0.3c-0.3,0.4-0.6,0.6-1,0.9C195.4,130.7,195.3,130.6,195.3,130.5z M193.3,101.8 c0.1-0.3,0.3-0.5,0.4-0.6c0.3-0.1,0.6-0.1,1-0.1c0,0.3,0.1,0.6,0.1,0.6c-0.3,0.3-0.5,0.3-0.9,0.4 C193.8,101.8,193.5,101.8,193.3,101.8z M109.5,45.9c0.4-0.3,0.6-0.4,1-0.5c0.1,0.1,0.1,0.3,0.3,0.4c-0.4,0.3-0.6,0.4-1,0.5 C109.6,46.2,109.5,46.1,109.5,45.9z M176.9,130.9c0.4,0.3,0.6,0.5,0.9,1c0,0-0.3,0.4-0.4,0.5c-0.4-0.3-0.8-0.6-0.9-1 C176.6,131.2,176.8,131.1,176.9,130.9z M256.7,81.3c0.5,0.1,0.8,0.3,1,0.5c0,0-0.1,0.5-0.3,0.6c-0.3,0.1-0.6,0.1-0.8-0.1 C256.7,82,256.7,81.6,256.7,81.3z M335.1,122.8c-0.1,0.4-0.1,0.8-0.4,1h-0.4c-0.1-0.4-0.3-0.8-0.3-1 C334.6,122.6,334.9,122.8,335.1,122.8z M131.8,84.2c0.4,0.3,0.8,0.4,1.1,0.8c-0.1,0.3-0.3,0.4-0.4,0.6c-0.4-0.3-0.8-0.6-0.9-1 C131.6,84.4,131.6,84.3,131.8,84.2z M144.3,97.5c-0.4,0.3-0.9,0.5-1.1,0.6c-0.1-0.1-0.3-0.4-0.3-0.5c0.4-0.3,0.9-0.5,1.1-0.6 C144,97.1,144.2,97.3,144.3,97.5z M322.1,160.5c0.9,0.4,1.3,0.8,1.6,0.9c0,0.1-0.1,0.3-0.1,0.4c-0.3,0-0.6,0-0.9-0.1 C322.5,161.4,322.5,161.1,322.1,160.5z M101.6,58.9c0-0.5,0.1-0.8,0.3-1c0.3,0,0.6,0,0.6,0.1c0.1,0.1,0.1,0.5,0,0.8 C102.3,58.9,102,58.9,101.6,58.9z M95.2,86.1c0.5-0.1,1-0.1,1.5-0.3c0,0.1,0.1,0.4,0.1,0.5c-0.5,0.1-1,0.1-1.5,0.4 C95.2,86.6,95.1,86.2,95.2,86.1z M105.4,102.1c0-0.3-0.1-0.5-0.1-0.8c0.3,0,0.6,0,0.9,0.1c0,0,0.1,0.5,0,0.6 C106.1,102.3,105.8,102.3,105.4,102.1z M213.1,238.8c0.3,0.1,0.6,0.1,0.9,0.4c0.1,0.1,0.3,0.4,0.5,1c-0.9-0.4-1.1-0.6-1.6-0.9 C213,239.2,213.1,239.1,213.1,238.8z M102,111.3c0.4,0,0.6-0.1,0.8,0c0.1,0.1,0.3,0.4,0.4,0.6c-0.3,0.1-0.5,0.3-0.8,0.1 C102,111.9,102.1,111.5,102,111.3z M358.9,133.8c0,0.4,0,0.8-0.3,1c0,0.1-0.6,0-0.6,0c-0.1-0.3-0.1-0.6-0.1-0.9 C358.4,133.7,358.6,133.7,358.9,133.8z M111.9,141.6c-0.4,0.3-0.6,0.6-1,0.8c-0.1-0.1-0.3-0.3-0.4-0.3c0.3-0.4,0.5-0.8,0.9-1 C111.6,141.2,111.6,141.5,111.9,141.6z M133,25.8c2.2-0.5,3.9-1.5,5.9-0.5c-0.5,0.1-0.9,0.4-1.4,0.4c0,0.1-0.1,0.6,0,0.8 c0.8,0.6,0.9,1.5,0.1,2c-0.4,0.3-1.4-0.3-2-0.6C134.8,27.3,134.2,26.8,133,25.8z M319.5,85.1c0.5-1.1,0.8-2.2,1.3-3.4 c1.4,1.1,2.7,2,3.7,3C323,86.4,322.9,86.4,319.5,85.1z M343.6,240.7c-0.5,1.5,0.6,3.2-1.6,3.9c0-0.8,0.1-1.3,0.3-2 c-1.3,0.3-2.7,0.6-3.4-1.1C339.8,239.6,341.6,240.2,343.6,240.7z M280.2,249.8c3.2,0.3,4.7,1.8,5.9,4.2 C283.1,254,281.7,252.4,280.2,249.8z M160.7,229.8c-1.8,1.9-4.2,1.8-6.1,2.8C154.2,230.1,155.4,229.6,160.7,229.8z M279.5,75.8 c-1.8-2-1.8-2.2,1-4.2C280.3,73.3,281.5,74.9,279.5,75.8z M321,175.2c1.3-1.3,2.8-2.5,4.9-2.8C325.3,174.3,324.8,174.7,321,175.2z M113.4,33.9c0.9-1.3,1.3-2.2,2-3c0.3-0.3,1-0.4,1.1-0.3c0.4,0.4,0.6,1,0.4,1.4C116.2,33.2,115.4,34.2,113.4,33.9z M210.1,158.6 c-1.9-0.4-3.4-1.3-4.6-3.4C208,155.5,208.7,157.2,210.1,158.6z M344.6,246c-1-0.8-1-2.3-0.3-3c0.3-0.3,0.9-0.3,1.1-0.3 c0,1,0.4,1.8,0.3,2.8C345.9,245.7,345,245.9,344.6,246z M98.1,158c-1.3-0.6-2.4-1.1-3.9-1.6C97,155.7,97.8,155.9,98.1,158z M234,223.4c0.1,1,0.4,1.6,0.6,2.5c-1.3,0-2.4,0.1-4.2,0.3C231.7,225,232.8,224.5,234,223.4z M52.7,164.9c-1,0.4-2.3,0.9-3.3,1.3 c-0.6-2.4-0.6-2.4,3.2-2C52.7,164.7,52.5,164.8,52.7,164.9z M217.3,106.3c-2.8,0-2.8,0-2.5-1.8C216.1,104.7,216.9,105.1,217.3,106.3 z M93,168.8c1-1,1.5-1.9,2.3-2.8C96.1,167.8,95.7,168.5,93,168.8z M261,116.3c-0.9,0.4-1.3,0.6-2.3,0.9c-0.3-1.1-0.5-2-0.8-3.3 C259.1,114.9,260,115.4,261,116.3z M284,168c-0.5,0.5-1.1,0.9-1.5,1.1c-0.3-0.4-0.6-0.8-0.8-1c0.6-0.4,1-0.6,1.8-1 C283.5,167.3,283.8,167.6,284,168z M280.5,240.7c0,0.8,0.1,1.4,0,1.5c-0.4,0.4-1,0.1-1.4,0.4c0-0.5-0.1-1,0-1.3 C279.2,241.1,279.7,241.1,280.5,240.7z M77.8,55.1c0.3-1.8,0.8-2.4,2-2C79.5,53.4,79,54,77.8,55.1z M94.8,120.2c1,0.8,1.3,1,1.8,1.3 c0,0-0.1,0.6-0.4,0.6C95.4,122.3,95.1,121.8,94.8,120.2z M93.7,24.1c-0.8-0.4-1.9-0.6-0.9-2.2c0.5,0.6,0.9,1.3,1.3,1.8 c0,0,0,0.3-0.1,0.3C93.8,24.1,93.7,24.1,93.7,24.1z M230.7,103c0.6-1.3,0.9-2,1.9-1.5c0.3,0.1,0.4,0.5,0.5,0.8 C232.4,102.4,231.7,102.6,230.7,103z M224.3,206.3c0.1-1.1,0.9-1.4,1.6-1c0.1,0,0.4,0.5,0.4,0.8 C225.9,206.9,225.2,206.4,224.3,206.3z M137.6,126.1c-0.3-0.8-0.3-1.4-0.6-2.5C138.3,124.4,138.3,124.4,137.6,126.1z M290.5,261.9 c0.6,0.4,1,1,1.9,1.5C290.8,263.6,290.3,263.3,290.5,261.9z M102.1,75.8c-0.6,0.8-1.3,1.1-1.9,1.9C100,76.1,101.1,76.1,102.1,75.8z M281.7,97.5c-0.1-0.9,0-1.5-0.1-2.4C283.1,95.8,283,96.7,281.7,97.5z M105.6,58c0.5-0.5,1-0.8,2-1.4c-0.1,1.6-0.8,2.2-1.8,2 C105.7,58.3,105.6,58.1,105.6,58z M189.3,122.5c1,0.6,0.9,1.3,0.1,1.9c-0.1,0.1-0.8,0.1-0.9,0C188.3,123.4,188.5,122.8,189.3,122.5z M282.4,269.8c0.6,0.3,1,0.5,2,0.8c-1.3,1-1.9,0.9-2.3,0.1C282.1,270.5,282.2,270.1,282.4,269.8z M314.1,122.6 c-0.5,0.3-1,0.4-1.5,0.5l-0.4-0.8c0.5-0.4,1-0.5,1.4-0.8C313.9,121.9,314,122.3,314.1,122.6z M193,22.8c0.1,0.8,0.1,1.1,0,1.5 c0,0.1-0.9,0.4-0.9,0.3c-0.3-0.4-0.4-0.9-0.3-1.1C191.9,23,192.5,23,193,22.8z M89.5,158.8c0.6,0.1,1,0.1,1.1,0.4 c0.1,0.3,0.3,0.9-0.1,1c-0.1,0.3-0.9,0.3-1,0.1C89.7,160,89.6,159.5,89.5,158.8z M262.9,146.3c-0.1,0.4-0.3,0.8-0.4,0.9 c-0.3,0.1-0.8,0-1-0.1c0-0.4,0-0.8,0.4-1c0.3-0.4,0.6-0.6,1-0.8C262.6,145.7,262.8,145.9,262.9,146.3z M393.4,154.5 c0-0.5-0.1-0.9,0.1-1s0.6-0.3,1,0c0.1,0,0.3,0.6,0.1,0.8C394.2,154.3,393.9,154.4,393.4,154.5z M164.5,168.3c0.6,0,1,0.1,1.6,0.1 l0.1,0.5c-0.5,0.3-1,0.3-1.5,0.4C164.5,168.8,164.5,168.6,164.5,168.3z M311.7,250.6c0,0.6,0,1-0.1,1.4c0,0.1-0.6,0.1-1,0 c0-0.5,0-0.9,0.1-1.3C311,250.5,311.2,250.5,311.7,250.6z M179.3,136.8c-0.3,1.5-0.6,2-1.9,1.6c0.1-0.4,0.1-0.8,0.3-0.9 C178.2,137.2,178.7,137.1,179.3,136.8z M167.8,164.8c0,0.6-0.3,1-0.3,1.4c-0.3-0.1-0.8,0-0.8-0.3c-0.1-0.4-0.1-0.8,0-1 C166.9,164.8,167.3,164.9,167.8,164.8z M392.2,166.8c0.6,0,1.1,0.3,1.8,0.3c0,0.3,0,0.5,0,0.8c-0.6,0-1.1-0.3-1.8-0.3 C392.1,167.2,392.2,167.1,392.2,166.8z M373.5,149.1c-0.6,0-1.3-0.1-2.4-0.1C372,147.8,372.6,147.8,373.5,149.1z M68.5,59.1 c0-0.5,0.1-0.9,0.3-1.3c0.3,0,0.4,0,0.6,0c0,0.5,0,1,0,1.4C69,59.4,68.7,59.2,68.5,59.1z M163.3,140.7c0.3-0.5,0.5-0.9,0.9-1.1 c0.3,0.1,0.5,0.3,0.8,0.4c-0.3,0.4-0.6,0.9-1,1C163.5,141,163.4,140.9,163.3,140.7z M307.9,263.1c0.3-0.5,0.8-1,1-1.3 c0.3,0.1,0.4,0.1,0.6,0.3c-0.3,0.6-0.6,1-0.9,1.6C308.4,263.4,308.2,263.3,307.9,263.1z M123.8,126.1c-0.4-0.4-0.8-0.8-0.9-1.3 c0.3-0.1,0.6-0.5,0.6-0.5c0.4,0.4,0.8,0.8,0.9,1.1C124.2,125.7,123.9,125.9,123.8,126.1z M54.7,110.6c0.5-0.5,1-0.8,1.6-1.1 c0.1,0.1,0.3,0.3,0.4,0.4c-0.3,0.3-0.4,0.6-0.8,0.9c-0.3,0.3-0.8,0.4-1,0.4C54.7,110.9,54.7,110.7,54.7,110.6z M137.3,214.9 c-0.8,0.3-1.1,0.4-1.9,0.6C136.3,214.4,136.3,214.4,137.3,214.9z M81.9,180.1c0.4-0.6,0.8-1,1.1-1.5c0.3,0.1,0.5,0.3,0.6,0.3 c-0.3,0.6-0.6,1.1-0.9,1.9C82.3,180.5,82,180.2,81.9,180.1z M212.1,267.4c-0.5,0.3-1,0.5-1.4,0.8c-0.1-0.3-0.3-0.4-0.4-0.6 c0.5-0.3,1-0.4,1.4-0.8C211.9,267.2,212,267.3,212.1,267.4z M160.1,89.4c0.6,0,1,0,1.3,0.1c0.3,0.1,0.3,0.6,0.4,0.9 c-0.4,0.1-0.8,0.4-1,0.1C160.4,90.5,160.4,90,160.1,89.4z M219,155.5c0.5,0,0.9-0.1,1.1,0c0.1,0,0.3,0.6,0.1,0.8 c-0.3,0.1-0.6,0.3-1,0.1C219.1,156.4,219.1,155.9,219,155.5z M162.9,44.9c0.6,0.3,1,0.5,1,0.8c0.1,0.3-0.1,0.6-0.3,1 c-0.4-0.1-0.9,0-1-0.4C162.6,45.9,162.9,45.7,162.9,44.9z M50,160.4c0.5,0.1,0.9,0.1,1,0.4c0.1,0.3,0.3,0.6,0.1,0.8 c-0.1,0.1-0.5,0.3-0.8,0.3C50.1,161.5,50.1,161.1,50,160.4z M277.8,122.6c-0.3,1-0.3,1.5-0.4,1.5c-0.3,0.1-0.6,0-1-0.1 c0.1-0.3,0.1-0.6,0.3-0.8C276.9,123.1,277.3,123,277.8,122.6z M276.2,121.3c0.3-0.5,0.5-1,0.6-1.4c0.1,0.1,0.4,0.1,0.5,0.3 c-0.3,0.5-0.5,1-0.8,1.4C276.5,121.4,276.4,121.3,276.2,121.3z M30.3,182.8c-0.3,0.4-0.6,0.8-1,0.9c0,0-0.4-0.1-0.5-0.3 c0.3-0.4,0.6-0.9,1-1C29.9,182.5,30.1,182.6,30.3,182.8z M27.1,198.3c-0.5,0.1-1,0.1-1.4,0.3c0,0-0.3-0.5-0.1-0.5 c0.5-0.3,0.9-0.5,1.3-0.6C27.1,197.8,27.2,198.1,27.1,198.3z M205.8,121.5c0.3-0.4,0.6-0.8,1-0.9c0.1,0.1,0.4,0.3,0.4,0.4 c-0.1,0.4-0.4,0.8-0.8,1C206.2,121.8,205.9,121.6,205.8,121.5z M308.8,160.5c0.1,0.4,0.3,0.8,0.1,0.9c-0.3,0.1-0.6,0.3-0.8,0.1 c-0.1,0-0.1-0.5-0.3-0.8C308.2,160.6,308.4,160.6,308.8,160.5z M220.9,168.7c0.5,0.1,1,0.3,1.3,0.3c0,0.1,0,0.4-0.1,0.5 c-0.5-0.1-0.9-0.1-1.3-0.4C220.9,169.1,220.9,168.8,220.9,168.7z M129.1,89.6c0,0.5,0,0.8-0.1,1c-0.3,0-0.5,0-0.8,0 c-0.1,0-0.1-0.5-0.1-0.5C128.3,89.9,128.7,89.7,129.1,89.6z M126.3,94.7c0.3-0.4,0.6-0.9,1-1c0.1,0.1,0.3,0.1,0.4,0.3 c-0.3,0.4-0.5,0.9-0.9,1.1C126.6,94.9,126.4,94.8,126.3,94.7z M118,62.3c0.1-0.3,0.1-0.6,0.4-0.9c0.3-0.3,0.6-0.4,1-0.4 c0.1,0.3,0.4,0.6,0.3,0.8c-0.3,0.3-0.6,0.5-0.9,0.6C118.3,62.4,118.1,62.4,118,62.3z M105.7,99c0.4,0.3,0.9,0.5,1.1,0.9 c0,0-0.3,0.5-0.4,0.6c-0.5-0.3-0.9-0.5-1.3-0.9C105.3,99.5,105.4,99.2,105.7,99z M185.3,25.7c0.5,0.1,0.9,0.1,1.1,0.4 c0,0,0,0.6-0.1,0.8c-0.3,0.1-0.6,0.3-0.9,0.1C185.4,26.6,185.4,26.1,185.3,25.7z M391,145.2c-0.3,0.4-0.5,0.8-0.8,1 c-0.1,0-0.3-0.1-0.4-0.3c0.1-0.4,0.4-0.9,0.6-1.1C390.6,144.9,390.8,145,391,145.2z M283.1,55.9c0,0.4,0,0.9-0.1,1.1l-0.5,0.1 c-0.3-0.4-0.4-0.8-0.5-1.1C282.4,56.1,282.7,55.9,283.1,55.9z M61.6,68.1c-0.4,0.4-0.9,0.6-1.3,0.9c-0.1-0.1-0.3-0.4-0.4-0.5 c0.4-0.4,0.9-0.6,1.3-0.9C61.3,67.6,61.4,68,61.6,68.1z M276.3,101.3c1,0.4,1.5,0.5,2.2,0.6c0,0.1,0,0.4-0.1,0.5 c-0.4,0-0.8,0.1-1-0.1C277.1,102.4,276.9,102.1,276.3,101.3z M269.7,270.8c0.3-0.5,0.5-1,0.8-1.4c0.1,0.1,0.4,0.1,0.5,0.3 c-0.3,0.5-0.5,1-0.8,1.3C270.1,271,269.8,271,269.7,270.8z M169.9,213.6c0.4,0,0.8,0,1,0.3c0.3,0.1,0.4,0.4,0.8,1 c-1-0.4-1.5-0.5-2-0.6C169.7,214,169.7,213.8,169.9,213.6z M371.1,242.6c-0.5,1.5,0.6,3.2-1.6,3.9c0-0.8,0.1-1.3,0.3-2 c-1.3,0.3-2.7,0.6-3.4-1.1C367.3,241.5,369.1,242.1,371.1,242.6z M307.6,251.9c3.2,0.3,4.7,1.8,5.9,4.2 C310.6,255.9,309.1,254.3,307.6,251.9z M188.1,231.7c-1.8,1.9-4.2,1.8-6.1,2.8C181.6,232,182.8,231.5,188.1,231.7z M348.3,177.1 c1.3-1.3,2.8-2.5,4.9-2.8C352.7,176.2,352.2,176.7,348.3,177.1z M140.7,35.9c0.9-1.3,1.3-2.2,2-3c0.3-0.3,1-0.4,1.1-0.3 c0.4,0.4,0.6,1,0.4,1.4C143.7,35.1,142.8,36.1,140.7,35.9z M237.4,160.5c-1.9-0.4-3.4-1.3-4.6-3.4 C235.3,157.4,236,159.1,237.4,160.5z M372.1,247.9c-1-0.8-1-2.3-0.3-3c0.3-0.3,0.9-0.3,1.1-0.3c0,1,0.4,1.8,0.3,2.8 C373.4,247.7,372.5,247.8,372.1,247.9z M125.6,160c-1.3-0.6-2.4-1.1-3.9-1.6C124.4,157.6,125.3,157.8,125.6,160z M261.4,225.4 c0.1,1,0.4,1.6,0.6,2.5c-1.3,0-2.4,0.1-4.2,0.3C259.1,226.9,260.2,226.4,261.4,225.4z M80.1,166.8c-1,0.4-2.3,0.9-3.3,1.3 c-0.6-2.4-0.6-2.4,3.2-2C80,166.6,80,166.7,80.1,166.8z M39,165.8c0.8,1.3,1.3,2.5,2,3.7C38.9,168.7,38.6,168.2,39,165.8z M244.7,108.2c-2.8,0-2.8,0-2.5-1.8C243.4,106.6,244.4,106.9,244.7,108.2z M120.4,170.7c1-1,1.5-1.9,2.3-2.8 C123.5,169.9,123.2,170.4,120.4,170.7z M288.4,118.2c-0.9,0.4-1.3,0.6-2.3,0.9c-0.3-1.1-0.5-2-0.8-3.3 C286.4,116.8,287.3,117.3,288.4,118.2z M311.5,169.9c-0.5,0.5-1.1,0.9-1.5,1.1c-0.3-0.4-0.6-0.8-0.8-1c0.6-0.4,1-0.6,1.8-1 C311,169.2,311.2,169.5,311.5,169.9z M307.8,242.6c0,0.8,0.1,1.4,0,1.5c-0.4,0.4-1,0.1-1.4,0.4c0-0.5-0.1-1,0-1.3 C306.5,243,307.2,243,307.8,242.6z M105.4,57.1c0.3-1.8,0.8-2.4,2-2C107,55.3,106.3,55.9,105.4,57.1z M122.3,122.1 c1,0.8,1.3,1,1.8,1.3c0,0-0.1,0.6-0.4,0.6C122.8,124.2,122.4,123.7,122.3,122.1z M109,23.2c0.8,0.5,1.1,1.1,2.2,1.8 C109.5,25.6,109.1,24.7,109,23.2z M121,26.1c-0.8-0.4-1.9-0.6-0.9-2.2c0.5,0.6,0.9,1.3,1.3,1.8c0,0,0,0.3-0.1,0.3 C121.1,26.1,121,26.1,121,26.1z M258.1,104.9c0.6-1.3,0.9-2,1.9-1.5c0.3,0.1,0.4,0.5,0.5,0.8C259.8,104.3,259.2,104.5,258.1,104.9z M251.6,208.2c0.1-1.1,0.9-1.4,1.6-1c0.1,0,0.4,0.5,0.4,0.8C253.3,208.8,252.5,208.3,251.6,208.2z M165,128 c-0.3-0.8-0.3-1.4-0.6-2.5C165.8,126.3,165.8,126.3,165,128z M317.8,263.8c0.6,0.4,1,1,1.9,1.5C318.3,265.7,317.7,265.2,317.8,263.8 z M129.6,77.7c-0.6,0.8-1.3,1.1-1.9,1.9C127.5,78,128.6,78,129.6,77.7z M309.1,99.4c-0.1-0.9,0-1.5-0.1-2.4 C310.6,97.7,310.5,98.6,309.1,99.4z M133,59.9c0.5-0.5,1-0.8,2-1.4c-0.1,1.6-0.8,2.2-1.8,2C133.2,60.2,133.2,60,133,59.9z M216.8,124.4c1,0.6,0.9,1.3,0.1,1.9c-0.1,0.1-0.8,0.1-0.9,0C215.7,125.4,215.9,124.8,216.8,124.4z M422.9,262 c-1-0.3-1.9-0.3-3.4-0.6c1.6-1,2.5-0.8,3.4-0.4C423.1,261.5,423,261.7,422.9,262z M309.8,271.7c0.6,0.3,1,0.5,2,0.8 c-1.3,1-1.9,0.9-2.3,0.1C309.5,272.4,309.6,272,309.8,271.7z M341.5,124.5c-0.5,0.3-1,0.4-1.5,0.5l-0.4-0.8c0.5-0.4,1-0.5,1.4-0.8 C341.2,123.9,341.3,124.2,341.5,124.5z M220.5,24.7c0.1,0.8,0.1,1.1,0,1.5c0,0.1-0.9,0.4-0.9,0.3c-0.3-0.4-0.4-0.9-0.3-1.1 C219.5,25.1,220,24.9,220.5,24.7z M117,160.7c0.6,0.1,1,0.1,1.1,0.4c0.1,0.3,0.3,0.9-0.1,1c-0.1,0.3-0.9,0.3-1,0.1 C117.1,161.9,117.1,161.4,117,160.7z M42.3,108.3c-0.3-0.5-0.4-1-0.6-1.4c0.4,0.1,0.8,0.1,1,0.5c0.3,0.1,0.3,0.5,0.4,0.8 C42.8,108.1,42.5,108.3,42.3,108.3z M56,163.3c0,0.8-0.3,1.3-0.3,2c-0.3,0-0.4,0-0.6,0c0-0.8,0-1.3,0-2 C55.3,163.3,55.7,163.3,56,163.3z M290.2,148.2c-0.1,0.4-0.3,0.8-0.4,0.9c-0.3,0.1-0.8,0-1-0.1c0-0.4,0-0.8,0.4-1 c0.3-0.4,0.6-0.6,1-0.8C290.1,147.6,290.2,147.8,290.2,148.2z M192,170.2c0.6,0,1,0.1,1.6,0.1l0.1,0.5c-0.5,0.3-1,0.3-1.5,0.4 C192.1,170.7,192.1,170.5,192,170.2z M339.2,252.5c0,0.6,0,1-0.1,1.4c0,0.1-0.6,0.1-1,0c0-0.5,0-0.9,0.1-1.3 C338.4,252.4,338.7,252.5,339.2,252.5z M206.9,138.7c-0.3,1.5-0.6,2-1.9,1.6c0.1-0.4,0.1-0.8,0.3-0.9 C205.5,139.1,206.2,139.1,206.9,138.7z M57,47.3c0.8,0.1,1.4,0.3,2.3,0.4c0,0.3,0,0.4-0.1,0.6c-0.8-0.1-1.4-0.3-2.3-0.4 C57,47.7,57,47.6,57,47.3z M195.2,166.7c0,0.6-0.3,1-0.3,1.4c-0.3-0.1-0.8,0-0.8-0.3c-0.1-0.4-0.1-0.8,0-1 C194.4,166.8,194.7,166.8,195.2,166.7z M95.8,61c0-0.5,0.1-0.9,0.3-1.3c0.3,0,0.4,0,0.6,0c0,0.5,0,1,0,1.4 C96.3,61.3,96.1,61.1,95.8,61z M190.6,142.6c0.3-0.5,0.5-0.9,0.9-1.1c0.3,0.1,0.5,0.3,0.8,0.4c-0.3,0.4-0.6,0.9-1,1 C190.9,142.9,190.7,142.8,190.6,142.6z M335.5,265c0.3-0.5,0.8-1,1-1.3c0.3,0.1,0.4,0.1,0.6,0.3c-0.3,0.6-0.6,1-0.9,1.6 C335.9,265.3,335.8,265.2,335.5,265z M151.3,128c-0.4-0.4-0.8-0.8-0.9-1.3c0.3-0.1,0.6-0.5,0.6-0.5c0.4,0.4,0.8,0.8,0.9,1.1 C151.6,127.6,151.4,127.8,151.3,128z M82.1,112.5c0.5-0.5,1-0.8,1.6-1.1c0.1,0.1,0.3,0.3,0.4,0.4c-0.3,0.3-0.4,0.6-0.8,0.9 c-0.3,0.3-0.8,0.4-1,0.4C82.3,112.8,82.3,112.6,82.1,112.5z M164.8,216.8c-0.8,0.3-1.1,0.4-1.9,0.6 C163.7,216.3,163.7,216.3,164.8,216.8z M109.2,182c0.4-0.6,0.8-1,1.1-1.5c0.3,0.1,0.5,0.3,0.6,0.3c-0.3,0.6-0.6,1.1-0.9,1.9 C109.7,182.4,109.6,182.1,109.2,182z M239.5,269.3c-0.5,0.3-1,0.5-1.4,0.8c-0.1-0.3-0.3-0.4-0.4-0.6c0.5-0.3,1-0.4,1.4-0.8 C239.3,269.1,239.5,269.2,239.5,269.3z M422.9,266.9c-0.3-0.6-0.3-1-0.8-2.3c1,0.8,1.1,1,1.4,1.1c0.1,0.3,0,0.8-0.1,1 C423.4,266.9,423.1,266.9,422.9,266.9z M187.4,91.3c0.6,0,1,0,1.3,0.1s0.3,0.6,0.4,0.9c-0.4,0.1-0.8,0.4-1,0.1 C187.8,92.5,187.7,91.9,187.4,91.3z M246.4,157.4c0.5,0,0.9-0.1,1.1,0c0.1,0,0.3,0.6,0.1,0.8c-0.3,0.1-0.6,0.3-1,0.1 C246.7,158.3,246.6,157.8,246.4,157.4z M190.4,46.8c0.6,0.3,1,0.5,1,0.8s-0.1,0.6-0.3,1c-0.4-0.1-0.9,0-1-0.4S190.4,47.6,190.4,46.8 z M77.3,162.3c0.5,0.1,0.9,0.1,1,0.4c0.1,0.1,0.3,0.6,0.1,0.8c-0.1,0.1-0.5,0.3-0.8,0.3C77.6,163.4,77.6,163,77.3,162.3z M305.1,124.5c-0.3,1-0.3,1.5-0.4,1.5c-0.3,0.1-0.6,0-1-0.1c0.1-0.3,0.1-0.6,0.3-0.8C304.4,125,304.6,124.9,305.1,124.5z M303.5,123.1c0.3-0.5,0.5-1,0.6-1.4c0.1,0.1,0.4,0.1,0.5,0.3c-0.3,0.5-0.5,1-0.8,1.4C303.9,123.3,303.8,123.1,303.5,123.1z M57.7,184.7c-0.3,0.4-0.6,0.8-1,0.9c0,0-0.4-0.1-0.5-0.3c0.3-0.4,0.6-0.9,1-1C57.3,184.5,57.6,184.5,57.7,184.7z M233.3,123.4 c0.3-0.4,0.6-0.8,1-0.9c0.1,0.1,0.4,0.3,0.4,0.4c-0.1,0.4-0.4,0.8-0.8,1C233.6,123.7,233.4,123.5,233.3,123.4z M336.3,162.5 c0.1,0.4,0.3,0.8,0.1,0.9c-0.3,0.1-0.6,0.3-0.8,0.1c-0.1,0-0.1-0.5-0.3-0.8C335.5,162.5,335.8,162.5,336.3,162.5z M248.3,170.6 c0.5,0.1,1,0.3,1.3,0.3c0,0.1,0,0.4-0.1,0.5c-0.5-0.1-0.9-0.1-1.3-0.4C248.3,171,248.3,170.7,248.3,170.6z M156.6,91.5 c0,0.5,0,0.8-0.1,1c-0.3,0-0.5,0-0.8,0c-0.1,0-0.1-0.5-0.1-0.5C155.8,91.8,156.2,91.6,156.6,91.5z M153.8,96.6c0.3-0.4,0.6-0.9,1-1 c0.1,0.1,0.3,0.1,0.4,0.3c-0.3,0.4-0.5,0.9-0.9,1.1C154,96.8,153.9,96.7,153.8,96.6z M145.4,64.2c0.1-0.3,0.1-0.6,0.4-0.9 c0.3-0.3,0.6-0.4,1-0.4c0.1,0.3,0.4,0.6,0.3,0.8c-0.3,0.3-0.6,0.5-0.9,0.6C145.9,64.3,145.7,64.3,145.4,64.2z M133,101 c0.4,0.3,0.9,0.5,1.1,0.9c0,0-0.3,0.5-0.4,0.6c-0.5-0.3-0.9-0.5-1.3-0.9C132.8,101.4,132.9,101.3,133,101z M212.8,27.6 c0.5,0.1,0.9,0.1,1.1,0.4c0,0,0,0.6-0.1,0.8c-0.3,0.1-0.6,0.3-0.9,0.1C212.8,28.5,212.9,28,212.8,27.6z M72,57.5 c0.5,0.1,1,0.4,1.4,0.6c-0.1,0.3-0.1,0.5-0.3,0.8c-0.5-0.3-1-0.6-1.3-0.9C71.9,57.7,71.9,57.6,72,57.5z M89,70 c-0.4,0.4-0.9,0.6-1.3,0.9c-0.1-0.1-0.3-0.4-0.4-0.5c0.4-0.4,0.9-0.6,1.3-0.9C88.7,69.6,88.7,69.9,89,70z M303.8,103.3 c1,0.4,1.5,0.5,2.2,0.6c0,0.1,0,0.4-0.1,0.5c-0.4,0-0.8,0.1-1-0.1C304.5,104.3,304.4,104,303.8,103.3z M297.2,272.7 c0.3-0.5,0.5-1,0.8-1.4c0.1,0.1,0.4,0.1,0.5,0.3c-0.3,0.5-0.5,1-0.8,1.3C297.6,272.9,297.3,272.9,297.2,272.7z M46,83.7 c-0.1-0.4-0.3-0.5-0.3-0.9c0.4,0,0.8-0.1,1,0c0,0,0.3,0.6,0.1,0.8C46.6,83.7,46.3,83.7,46,83.7z M197.2,215.5c0.4,0,0.8,0,1,0.3 c0.3,0.1,0.4,0.4,0.8,1c-1-0.4-1.5-0.5-2-0.6C197.1,215.9,197.1,215.7,197.2,215.5z M61.8,126.8c-0.3,0.4-0.6,0.9-1,1 c-0.1-0.1-0.3-0.1-0.5-0.3c0.3-0.5,0.6-1,0.8-1.3C61.3,126.7,61.5,126.8,61.8,126.8z" fill-rule="evenodd" opacity="0.75"/></g><g id="change3_2"><path fill="#0d6ab5" opacity="0.75" d="M322.7 205.5L316.3 197.4 312.7 183.9 319.6 174.9 326.5 170.8 336.1 170.8 346.1 178.4 348.3 193.1 338.1 205.5z"/></g><g id="change3_3"><path fill="#0d6ab5" opacity="0.75" d="M266.7 205.5L260.3 197.4 256.8 183.9 263.7 174.9 270.6 170.8 280.1 170.8 290.2 178.4 292.4 193.1 282.2 205.5z"/></g></svg>