<?xml version="1.0" encoding="UTF-8"?><svg xmlns="http://www.w3.org/2000/svg" xmlns:xlink="http://www.w3.org/1999/xlink" contentScriptType="text/ecmascript" fill="#000000" width="462.6" zoomAndPan="magnify" contentStyleType="text/css" viewBox="0.0 -0.1 462.6 496.1" height="496.1" preserveAspectRatio="xMidYMid meet" version="1"><defs><clipPath id="a"><path d="M 0 491 L 22 491 L 22 496.019531 L 0 496.019531 Z M 0 491"/></clipPath><clipPath id="b"><path d="M 35 491 L 462.640625 491 L 462.640625 496.019531 L 35 496.019531 Z M 35 491"/></clipPath></defs><g><g><path fill="#675fec" d="M 280.347656 293.582031 C 315.417969 308.652344 314.546875 346.328125 314.546875 346.328125 L 280.347656 335.605469 L 280.347656 293.582031"/></g><g><path fill="#675fec" d="M 87.332031 346.328125 C 82.609375 331.3125 107.8125 296.09375 121.53125 293.582031 L 123.65625 335.316406 L 87.332031 346.328125"/></g><g><path fill="#e8edfd" d="M 292.523438 494.136719 L 114.574219 494.136719 L 130.726562 348.765625 C 132.425781 333.46875 145.257812 321.839844 160.644531 321.644531 L 243.609375 320.59375 C 259.242188 320.394531 272.523438 331.988281 274.4375 347.503906 L 292.523438 494.136719"/></g><g><path fill="#fd6107" d="M 282.78125 209.390625 C 282.78125 224.6875 276.203125 237.085938 268.09375 237.085938 C 259.984375 237.085938 253.410156 224.6875 253.410156 209.390625 C 253.410156 194.097656 259.984375 181.699219 268.09375 181.699219 C 276.203125 181.699219 282.78125 194.097656 282.78125 209.390625"/></g><g><path fill="#fd6107" d="M 211.804688 154.820312 C 218.046875 170.988281 207.421875 190.148438 188.074219 197.617188 C 168.726562 205.085938 147.980469 198.035156 141.738281 181.867188 C 135.496094 165.699219 146.125 146.539062 165.472656 139.070312 C 184.820312 131.601562 205.566406 138.652344 211.804688 154.820312"/></g><g><path fill="#fd6107" d="M 170.75 202.746094 C 170.75 224.800781 158.070312 242.679688 142.429688 242.679688 C 126.785156 242.679688 114.105469 224.800781 114.105469 202.746094 C 114.105469 180.695312 126.785156 162.816406 142.429688 162.816406 C 158.070312 162.816406 170.75 180.695312 170.75 202.746094"/></g><g><path fill="#fd6107" d="M 269.773438 226.175781 C 269.773438 263.714844 239.339844 294.148438 201.800781 294.148438 C 164.257812 294.148438 133.824219 263.714844 133.824219 226.175781 C 133.824219 188.636719 164.257812 158.203125 201.800781 158.203125 C 239.339844 158.203125 269.773438 188.636719 269.773438 226.175781"/></g><g><path fill="#f9c4b8" d="M 267.277344 231.933594 C 270.890625 266.039062 244.96875 296.742188 209.375 300.515625 C 173.78125 304.285156 141.996094 279.695312 138.382812 245.59375 C 134.769531 211.488281 160.691406 180.78125 196.285156 177.011719 C 231.878906 173.238281 263.664062 197.828125 267.277344 231.933594"/></g><g><path fill="#f9c4b8" d="M 200.960938 336.925781 C 192.164062 336.925781 185.035156 329.796875 185.035156 321 C 185.035156 320.167969 185.046875 300.304688 185.886719 277.613281 C 186.210938 268.824219 193.597656 261.960938 202.390625 262.289062 C 211.175781 262.617188 218.039062 270.003906 217.710938 278.792969 C 216.894531 300.867188 216.882812 320.804688 216.882812 321.003906 C 216.882812 329.796875 209.753906 336.925781 200.960938 336.925781"/></g><g><path fill="#f9c4b8" d="M 285.902344 249.003906 C 284.257812 258.359375 276.078125 264.742188 267.632812 263.257812 C 259.1875 261.773438 253.675781 252.984375 255.320312 243.628906 C 256.964844 234.269531 265.144531 227.886719 273.589844 229.371094 C 282.035156 230.855469 287.546875 239.644531 285.902344 249.003906"/></g><g><path fill="#f9c4b8" d="M 119.097656 249.003906 C 120.742188 258.359375 128.921875 264.742188 137.363281 263.257812 C 145.808594 261.773438 151.320312 252.984375 149.675781 243.628906 C 148.03125 234.269531 139.851562 227.886719 131.40625 229.371094 C 122.960938 230.855469 117.449219 239.644531 119.097656 249.003906"/></g><g><path fill="#36334c" d="M 138.023438 254.664062 C 138.003906 254.664062 137.984375 254.664062 137.96875 254.664062 C 137.683594 254.632812 137.476562 254.378906 137.507812 254.09375 C 137.519531 253.980469 138.644531 242.84375 134.011719 239.363281 C 132.246094 238.035156 129.804688 237.996094 126.75 239.242188 C 126.484375 239.351562 126.179688 239.222656 126.074219 238.960938 C 125.964844 238.691406 126.09375 238.390625 126.355469 238.28125 C 129.773438 236.886719 132.558594 236.972656 134.636719 238.53125 C 139.738281 242.367188 138.589844 253.722656 138.539062 254.203125 C 138.511719 254.46875 138.285156 254.664062 138.023438 254.664062"/></g><g><path fill="#36334c" d="M 131.167969 245.996094 C 131.027344 245.996094 130.886719 245.9375 130.785156 245.828125 C 130.59375 245.613281 130.605469 245.285156 130.816406 245.09375 C 134.480469 241.738281 137.640625 244.503906 137.671875 244.53125 C 137.882812 244.722656 137.898438 245.050781 137.707031 245.265625 C 137.519531 245.476562 137.1875 245.492188 136.976562 245.300781 C 136.875 245.214844 134.472656 243.152344 131.519531 245.859375 C 131.421875 245.949219 131.292969 245.996094 131.167969 245.996094"/></g><g><path fill="#36334c" d="M 268.214844 254.664062 C 267.953125 254.664062 267.730469 254.46875 267.699219 254.203125 C 267.648438 253.722656 266.5 242.367188 271.601562 238.53125 C 273.675781 236.972656 276.464844 236.886719 279.882812 238.28125 C 280.148438 238.390625 280.273438 238.691406 280.164062 238.960938 C 280.058594 239.222656 279.753906 239.351562 279.488281 239.242188 C 276.433594 237.996094 273.988281 238.035156 272.226562 239.363281 C 267.589844 242.847656 268.722656 253.980469 268.734375 254.09375 C 268.761719 254.378906 268.554688 254.632812 268.273438 254.664062 C 268.253906 254.664062 268.234375 254.664062 268.214844 254.664062"/></g><g><path fill="#36334c" d="M 275.070312 245.996094 C 274.945312 245.996094 274.816406 245.949219 274.71875 245.859375 C 271.765625 243.152344 269.363281 245.214844 269.261719 245.304688 C 269.046875 245.492188 268.71875 245.476562 268.527344 245.261719 C 268.339844 245.046875 268.355469 244.722656 268.566406 244.53125 C 268.601562 244.503906 271.757812 241.734375 275.421875 245.09375 C 275.632812 245.285156 275.644531 245.613281 275.453125 245.828125 C 275.351562 245.9375 275.210938 245.996094 275.070312 245.996094"/></g><g><path fill="#fd6107" d="M 147.8125 227.667969 C 147.8125 239.972656 145.558594 249.949219 142.777344 249.949219 C 139.996094 249.949219 137.742188 239.972656 137.742188 227.667969 C 137.742188 215.359375 139.996094 205.382812 142.777344 205.382812 C 145.558594 205.382812 147.8125 215.359375 147.8125 227.667969"/></g><g><path fill="#fd6107" d="M 268.652344 227.574219 C 268.652344 239.933594 266.398438 249.949219 263.617188 249.949219 C 260.835938 249.949219 258.582031 239.933594 258.582031 227.574219 C 258.582031 215.214844 260.835938 205.195312 263.617188 205.195312 C 266.398438 205.195312 268.652344 215.214844 268.652344 227.574219"/></g><g><path fill="#fd6107" d="M 290.347656 147.027344 C 295.820312 161.476562 279.550781 181.03125 254.007812 190.707031 C 228.464844 200.382812 203.324219 196.511719 197.851562 182.066406 C 192.378906 167.617188 208.648438 148.0625 234.191406 138.386719 C 259.734375 128.714844 284.875 132.582031 290.347656 147.027344"/></g><g><path fill="#fd6107" d="M 233.058594 133.121094 C 238.535156 140.410156 233.859375 153.164062 222.621094 161.605469 C 211.382812 170.050781 197.832031 170.988281 192.355469 163.699219 C 186.882812 156.414062 191.554688 143.660156 202.796875 135.214844 C 214.035156 126.773438 227.585938 125.835938 233.058594 133.121094"/></g><g><path fill="#fd6107" d="M 292.460938 172.808594 C 296.648438 178.378906 293.074219 188.128906 284.484375 194.582031 C 275.890625 201.035156 265.53125 201.753906 261.347656 196.183594 C 257.164062 190.613281 260.734375 180.863281 269.328125 174.410156 C 277.921875 167.953125 288.277344 167.238281 292.460938 172.808594"/></g><g><path fill="#fd6107" d="M 201.980469 174.242188 C 204.039062 179.28125 195.015625 187.742188 181.824219 193.132812 C 168.632812 198.527344 156.265625 198.8125 154.207031 193.769531 C 152.144531 188.730469 161.171875 180.269531 174.363281 174.878906 C 187.554688 169.488281 199.917969 169.203125 201.980469 174.242188"/></g><g><path fill="#2c2c2d" d="M 184.324219 226.085938 C 184.324219 231.367188 181.40625 235.648438 177.804688 235.648438 C 174.203125 235.648438 171.28125 231.367188 171.28125 226.085938 C 171.28125 220.804688 174.203125 216.523438 177.804688 216.523438 C 181.40625 216.523438 184.324219 220.804688 184.324219 226.085938"/></g><g><path fill="#2c2c2d" d="M 230.984375 225.433594 C 230.984375 231.074219 228.066406 235.648438 224.464844 235.648438 C 220.863281 235.648438 217.945312 231.074219 217.945312 225.433594 C 217.945312 219.792969 220.863281 215.21875 224.464844 215.21875 C 228.066406 215.21875 230.984375 219.792969 230.984375 225.433594"/></g><g><path fill="#2c2c2d" d="M 203.019531 248.488281 C 202.785156 248.488281 202.574219 248.328125 202.515625 248.09375 C 202.445312 247.816406 202.613281 247.535156 202.890625 247.464844 C 202.976562 247.441406 211.464844 245.269531 212.8125 241.378906 C 213.210938 240.222656 212.921875 239.035156 211.929688 237.757812 C 211.253906 236.882812 210.414062 236.382812 209.4375 236.265625 C 207.105469 235.988281 204.671875 237.917969 204.648438 237.9375 L 203.351562 238.976562 L 203.824219 237.386719 C 203.832031 237.363281 204.507812 234.820312 202.578125 229.398438 C 202.480469 229.128906 202.621094 228.832031 202.894531 228.738281 C 203.160156 228.640625 203.460938 228.78125 203.554688 229.050781 C 204.855469 232.703125 205.03125 235.136719 204.976562 236.464844 C 206.023438 235.835938 207.769531 235.027344 209.554688 235.234375 C 210.820312 235.382812 211.898438 236.019531 212.75 237.117188 C 213.957031 238.679688 214.308594 240.226562 213.789062 241.71875 C 212.265625 246.136719 203.515625 248.378906 203.144531 248.472656 C 203.101562 248.480469 203.058594 248.488281 203.019531 248.488281"/></g><g><path fill="#2c2c2d" d="M 202.402344 260.660156 C 194.707031 260.660156 187.332031 257.097656 180.476562 250.070312 C 180.273438 249.863281 180.277344 249.535156 180.484375 249.335938 C 180.6875 249.136719 181.019531 249.136719 181.21875 249.34375 C 188.023438 256.320312 195.328125 259.773438 202.910156 259.613281 C 215.269531 259.355469 224.277344 249.460938 224.367188 249.359375 C 224.558594 249.148438 224.886719 249.128906 225.101562 249.320312 C 225.3125 249.511719 225.332031 249.839844 225.140625 250.054688 C 225.050781 250.15625 215.753906 260.378906 202.9375 260.652344 C 202.761719 260.65625 202.582031 260.660156 202.402344 260.660156"/></g><g><path fill="#f9c4b8" d="M 232.578125 237.96875 C 232.578125 241.328125 229.269531 244.054688 225.1875 244.054688 C 221.109375 244.054688 217.800781 241.328125 217.800781 237.96875 C 217.800781 234.609375 221.109375 231.882812 225.1875 231.882812 C 229.269531 231.882812 232.578125 234.609375 232.578125 237.96875"/></g><g><path fill="#f9c4b8" d="M 185.628906 237.535156 C 185.628906 240.894531 182.320312 243.621094 178.238281 243.621094 C 174.15625 243.621094 170.847656 240.894531 170.847656 237.535156 C 170.847656 234.171875 174.15625 231.449219 178.238281 231.449219 C 182.320312 231.449219 185.628906 234.171875 185.628906 237.535156"/></g><g><path fill="#2c2c2d" d="M 201.492188 268.648438 C 201.304688 268.648438 201.113281 268.644531 200.921875 268.636719 C 198.726562 268.523438 196.976562 267.78125 195.996094 266.550781 C 195.816406 266.324219 195.851562 265.996094 196.078125 265.820312 C 196.300781 265.640625 196.628906 265.679688 196.808594 265.902344 C 197.589844 266.882812 199.109375 267.5 200.976562 267.597656 C 202.917969 267.699219 204.945312 267.199219 205.691406 266.441406 C 205.890625 266.238281 206.21875 266.234375 206.425781 266.433594 C 206.628906 266.636719 206.632812 266.964844 206.433594 267.167969 C 205.550781 268.070312 203.574219 268.648438 201.492188 268.648438"/></g><g><path fill="#2c2c2d" d="M 166.9375 211.101562 C 166.875 211.101562 166.8125 211.089844 166.753906 211.066406 C 166.484375 210.964844 166.347656 210.664062 166.449219 210.398438 C 168.578125 204.773438 174.253906 204.558594 174.3125 204.554688 C 174.597656 204.542969 174.839844 204.773438 174.847656 205.0625 C 174.851562 205.347656 174.628906 205.585938 174.339844 205.59375 C 174.136719 205.601562 169.296875 205.808594 167.421875 210.765625 C 167.34375 210.972656 167.144531 211.101562 166.9375 211.101562"/></g><g><path fill="#2c2c2d" d="M 233.015625 207.476562 C 232.839844 207.476562 232.664062 207.386719 232.570312 207.226562 C 232.539062 207.179688 229.617188 202.410156 225.351562 202.550781 C 225.074219 202.558594 224.824219 202.335938 224.816406 202.046875 C 224.804688 201.761719 225.03125 201.523438 225.316406 201.511719 C 230.203125 201.359375 233.328125 206.472656 233.460938 206.691406 C 233.605469 206.9375 233.527344 207.257812 233.28125 207.402344 C 233.199219 207.453125 233.105469 207.476562 233.015625 207.476562"/></g><g><path fill="#2c2c2d" d="M 202.222656 302.097656 C 196.5625 302.097656 190.816406 301.074219 185.023438 299.03125 C 184.75 298.933594 184.609375 298.636719 184.703125 298.367188 C 184.800781 298.097656 185.097656 297.953125 185.367188 298.050781 C 196.152344 301.855469 206.765625 302.050781 216.90625 298.628906 C 217.179688 298.535156 217.476562 298.683594 217.566406 298.953125 C 217.65625 299.226562 217.511719 299.519531 217.238281 299.613281 C 212.328125 301.269531 207.3125 302.097656 202.222656 302.097656"/></g><g><path fill="#fd6107" d="M 155.433594 188.078125 C 158.8125 190.414062 157.792969 197.753906 153.15625 204.46875 C 148.519531 211.1875 142.019531 214.742188 138.640625 212.40625 C 135.257812 210.074219 136.277344 202.738281 140.914062 196.019531 C 145.550781 189.300781 152.050781 185.746094 155.433594 188.078125"/></g><g><path fill="#fd6107" d="M 144.328125 165.382812 L 142.066406 163.191406 C 142.003906 163.128906 135.578125 157.027344 124.5625 157.773438 C 124.273438 157.789062 124.027344 157.574219 124.007812 157.289062 C 123.988281 157.003906 124.203125 156.757812 124.492188 156.738281 C 132.535156 156.191406 138.144531 159.070312 140.882812 160.941406 L 136.042969 151.503906 C 135.914062 151.246094 136.011719 150.933594 136.269531 150.804688 C 136.523438 150.671875 136.835938 150.773438 136.96875 151.027344 L 144.328125 165.382812"/></g><g><path fill="#f9c4b8" d="M 118.976562 348.5 C 117.222656 347.3125 101.371094 336.050781 85.964844 307.324219 C 77.191406 290.964844 70.199219 271.988281 65.179688 250.925781 C 59.023438 225.089844 55.824219 195.941406 55.664062 164.289062 C 55.617188 155.496094 62.710938 148.332031 71.507812 148.285156 C 80.316406 148.238281 87.464844 155.335938 87.511719 164.128906 C 87.832031 228.027344 101.410156 267.75 112.746094 289.820312 C 124.808594 313.308594 136.894531 322.167969 137.015625 322.253906 C 136.894531 322.171875 136.832031 322.128906 136.832031 322.128906 L 118.976562 348.5"/></g><g><path fill="#f9c4b8" d="M 95.085938 148.09375 C 95.085938 162.789062 83.308594 174.699219 68.78125 174.699219 C 54.257812 174.699219 42.480469 162.789062 42.480469 148.09375 C 42.480469 133.398438 54.257812 121.488281 68.78125 121.488281 C 83.308594 121.488281 95.085938 133.398438 95.085938 148.09375"/></g><g><path fill="#f9c4b8" d="M 43.652344 154.402344 C 42.71875 152.914062 39.492188 146.324219 37.199219 123.96875 C 36.835938 120.449219 39.398438 117.304688 42.914062 116.945312 C 46.433594 116.585938 49.578125 119.144531 49.941406 122.660156 C 51.960938 142.378906 54.550781 147.644531 54.660156 147.859375 C 54.558594 147.664062 54.496094 147.585938 54.496094 147.585938 L 43.652344 154.402344"/></g><g><path fill="#f9c4b8" d="M 79.21875 140.011719 C 76.734375 140.011719 74.371094 138.554688 73.332031 136.125 C 72.75 134.769531 72.671875 133.324219 73.015625 132 C 73.074219 130.855469 73.109375 126.136719 71.539062 110.027344 C 71.195312 106.507812 73.769531 103.371094 77.289062 103.03125 C 80.8125 102.6875 83.941406 105.261719 84.285156 108.78125 C 85.265625 118.820312 85.785156 126.070312 85.835938 130.339844 C 85.875 133.445312 85.921875 137.695312 81.738281 139.488281 C 80.917969 139.84375 80.0625 140.011719 79.21875 140.011719"/></g><g><path fill="#f9c4b8" d="M 57.191406 139.429688 C 55.175781 139.429688 53.265625 138.472656 52.058594 136.859375 C 51.09375 135.949219 50.3125 134.628906 50.042969 132.746094 C 50.003906 132.457031 49.941406 131.972656 49.839844 131.195312 C 49.601562 129.339844 49.105469 125.472656 48.09375 118.101562 C 47.609375 114.597656 50.0625 111.367188 53.566406 110.882812 C 57.070312 110.40625 60.300781 112.851562 60.78125 116.355469 C 61.742188 123.34375 62.242188 127.210938 62.5 129.207031 C 62.773438 129.71875 63.027344 130.296875 63.25 130.949219 C 64.394531 134.296875 62.613281 137.9375 59.265625 139.082031 C 58.578125 139.316406 57.878906 139.429688 57.191406 139.429688"/></g><g><path fill="#f9c4b8" d="M 74.601562 130.402344 L 61.804688 129.847656 L 61.800781 129.945312 C 61.804688 129.800781 61.839844 126.21875 60.246094 111.851562 C 59.855469 108.335938 62.386719 105.167969 65.902344 104.777344 C 69.414062 104.386719 72.585938 106.921875 72.972656 110.4375 C 74.679688 125.800781 74.628906 129.765625 74.601562 130.402344"/></g><g><path fill="#f9c4b8" d="M 284.734375 349.019531 L 266.691406 322.773438 C 266.691406 322.773438 266.628906 322.8125 266.515625 322.898438 C 266.636719 322.808594 278.75 313.808594 290.835938 290.164062 C 302.1875 267.960938 315.785156 228.070312 316.109375 164.128906 C 316.152344 155.363281 323.273438 148.285156 332.03125 148.285156 C 332.058594 148.285156 332.085938 148.285156 332.113281 148.285156 C 340.90625 148.332031 348 155.496094 347.953125 164.289062 C 347.796875 195.9375 344.59375 225.113281 338.4375 251.007812 C 333.425781 272.109375 326.4375 291.144531 317.667969 307.582031 C 302.289062 336.421875 286.484375 347.8125 284.734375 349.019531"/></g><g><path fill="#f9c4b8" d="M 87.917969 157.976562 C 87.550781 157.976562 87.175781 157.941406 86.800781 157.878906 C 83.320312 157.265625 80.992188 153.949219 81.601562 150.46875 C 81.648438 150.210938 82.730469 144.101562 85.109375 137.117188 C 88.566406 126.972656 93.019531 120.078125 98.34375 116.632812 C 101.3125 114.714844 105.277344 115.5625 107.199219 118.53125 C 109.121094 121.5 108.269531 125.464844 105.300781 127.386719 C 100.148438 130.722656 95.71875 144.183594 94.21875 152.679688 C 93.667969 155.785156 90.96875 157.976562 87.917969 157.976562"/></g><g><path fill="#36334c" d="M 77.765625 167.160156 C 77.65625 167.160156 77.542969 167.125 77.445312 167.050781 C 77.316406 166.949219 74.269531 164.519531 72.644531 160.195312 C 71.144531 156.203125 70.640625 149.804688 76.78125 141.976562 C 76.957031 141.753906 77.28125 141.714844 77.507812 141.890625 C 77.734375 142.066406 77.773438 142.394531 77.597656 142.617188 C 72.921875 148.578125 71.578125 154.355469 73.601562 159.789062 C 75.117188 163.855469 78.058594 166.210938 78.089844 166.234375 C 78.3125 166.410156 78.351562 166.738281 78.175781 166.964844 C 78.074219 167.09375 77.921875 167.160156 77.765625 167.160156"/></g><g><path fill="#e8edfd" d="M 156.886719 322.5625 L 127.90625 395.597656 L 87.332031 346.328125 C 109.414062 331.289062 115.5 312.445312 121.53125 293.582031 C 132.6875 309.6875 144.367188 320.441406 156.886719 322.5625"/></g><g><path fill="#e8edfd" d="M 244.992188 322.5625 L 273.972656 395.597656 L 314.546875 346.328125 C 292.464844 331.289062 286.378906 312.445312 280.347656 293.582031 C 269.191406 309.6875 257.511719 320.441406 244.992188 322.5625"/></g><g><path fill="#675fec" d="M 136.890625 491.757812 C 136.601562 491.757812 136.371094 491.523438 136.371094 491.238281 L 136.371094 415.304688 C 136.371094 415.019531 136.601562 414.785156 136.890625 414.785156 C 137.175781 414.785156 137.410156 415.019531 137.410156 415.304688 L 137.410156 491.238281 C 137.410156 491.523438 137.175781 491.757812 136.890625 491.757812"/></g><g><path fill="#675fec" d="M 158.914062 491.757812 C 158.628906 491.757812 158.398438 491.523438 158.398438 491.238281 L 158.398438 322.5625 C 158.398438 322.277344 158.628906 322.042969 158.914062 322.042969 C 159.203125 322.042969 159.4375 322.277344 159.4375 322.5625 L 159.4375 491.238281 C 159.4375 491.523438 159.203125 491.757812 158.914062 491.757812"/></g><g><path fill="#675fec" d="M 180.941406 491.757812 C 180.65625 491.757812 180.421875 491.523438 180.421875 491.238281 L 180.421875 335.027344 C 180.421875 334.738281 180.65625 334.507812 180.941406 334.507812 C 181.230469 334.507812 181.460938 334.738281 181.460938 335.027344 L 181.460938 491.238281 C 181.460938 491.523438 181.230469 491.757812 180.941406 491.757812"/></g><g><path fill="#675fec" d="M 202.96875 491.757812 C 202.679688 491.757812 202.449219 491.523438 202.449219 491.238281 L 202.449219 339.953125 C 202.449219 339.664062 202.679688 339.433594 202.96875 339.433594 C 203.253906 339.433594 203.488281 339.664062 203.488281 339.953125 L 203.488281 491.238281 C 203.488281 491.523438 203.253906 491.757812 202.96875 491.757812"/></g><g><path fill="#675fec" d="M 224.992188 491.757812 C 224.707031 491.757812 224.476562 491.523438 224.476562 491.238281 L 224.476562 323.433594 C 224.476562 323.148438 224.707031 322.914062 224.992188 322.914062 C 225.28125 322.914062 225.515625 323.148438 225.515625 323.433594 L 225.515625 491.238281 C 225.515625 491.523438 225.28125 491.757812 224.992188 491.757812"/></g><g><path fill="#675fec" d="M 247.019531 491.757812 C 246.734375 491.757812 246.5 491.523438 246.5 491.238281 L 246.5 323.144531 C 246.5 322.855469 246.734375 322.625 247.019531 322.625 C 247.308594 322.625 247.539062 322.855469 247.539062 323.144531 L 247.539062 491.238281 C 247.539062 491.523438 247.308594 491.757812 247.019531 491.757812"/></g><g><path fill="#675fec" d="M 269.046875 491.757812 C 268.757812 491.757812 268.527344 491.523438 268.527344 491.238281 L 268.527344 393.859375 C 268.527344 393.570312 268.757812 393.339844 269.046875 393.339844 C 269.332031 393.339844 269.566406 393.570312 269.566406 393.859375 L 269.566406 491.238281 C 269.566406 491.523438 269.332031 491.757812 269.046875 491.757812"/></g><g><path fill="#675fec" d="M 254.265625 349.167969 L 153.988281 349.167969 C 153.703125 349.167969 153.46875 348.933594 153.46875 348.648438 C 153.46875 348.359375 153.703125 348.128906 153.988281 348.128906 L 254.265625 348.128906 C 254.550781 348.128906 254.785156 348.359375 254.785156 348.648438 C 254.785156 348.933594 254.550781 349.167969 254.265625 349.167969"/></g><g><path fill="#675fec" d="M 254.265625 370.324219 L 147.324219 370.324219 C 147.035156 370.324219 146.804688 370.089844 146.804688 369.804688 C 146.804688 369.519531 147.035156 369.285156 147.324219 369.285156 L 254.265625 369.285156 C 254.550781 369.285156 254.785156 369.519531 254.785156 369.804688 C 254.785156 370.089844 254.550781 370.324219 254.265625 370.324219"/></g><g><path fill="#675fec" d="M 254.265625 391.480469 L 208.476562 391.480469 C 208.1875 391.480469 207.957031 391.246094 207.957031 390.960938 C 207.957031 390.675781 208.1875 390.441406 208.476562 390.441406 L 254.265625 390.441406 C 254.550781 390.441406 254.785156 390.675781 254.785156 390.960938 C 254.785156 391.246094 254.550781 391.480469 254.265625 391.480469"/></g><g><path fill="#675fec" d="M 274.261719 412.636719 L 129.355469 412.636719 C 129.066406 412.636719 128.835938 412.40625 128.835938 412.117188 C 128.835938 411.832031 129.066406 411.597656 129.355469 411.597656 L 274.261719 411.597656 C 274.550781 411.597656 274.78125 411.832031 274.78125 412.117188 C 274.78125 412.40625 274.550781 412.636719 274.261719 412.636719"/></g><g><path fill="#675fec" d="M 277.449219 433.792969 L 125.007812 433.792969 C 124.722656 433.792969 124.488281 433.5625 124.488281 433.273438 C 124.488281 432.988281 124.722656 432.753906 125.007812 432.753906 L 277.449219 432.753906 C 277.738281 432.753906 277.96875 432.988281 277.96875 433.273438 C 277.96875 433.5625 277.738281 433.792969 277.449219 433.792969"/></g><g><path fill="#675fec" d="M 280.058594 454.949219 L 123.558594 454.949219 C 123.269531 454.949219 123.039062 454.71875 123.039062 454.429688 C 123.039062 454.144531 123.269531 453.910156 123.558594 453.910156 L 280.058594 453.910156 C 280.347656 453.910156 280.578125 454.144531 280.578125 454.429688 C 280.578125 454.71875 280.347656 454.949219 280.058594 454.949219"/></g><g><path fill="#675fec" d="M 284.117188 476.105469 L 120.082031 476.105469 C 119.792969 476.105469 119.5625 475.875 119.5625 475.585938 C 119.5625 475.300781 119.792969 475.066406 120.082031 475.066406 L 284.117188 475.066406 C 284.402344 475.066406 284.636719 475.300781 284.636719 475.585938 C 284.636719 475.875 284.402344 476.105469 284.117188 476.105469"/></g><g><path fill="#2c2c2d" d="M 87.507812 346.878906 C 87.355469 346.878906 87.238281 346.851562 87.148438 346.8125 C 86.878906 346.710938 86.742188 346.410156 86.847656 346.144531 C 86.949219 345.875 87.25 345.742188 87.515625 345.84375 C 88.5625 345.996094 95.21875 341.394531 102.648438 332.179688 C 109.097656 324.183594 117.519531 310.980469 121.019531 293.480469 C 121.078125 293.199219 121.351562 293.015625 121.632812 293.074219 C 121.914062 293.128906 122.09375 293.402344 122.039062 293.683594 C 116.125 323.25 95.941406 342.5625 89.257812 346.25 C 88.367188 346.742188 87.84375 346.878906 87.507812 346.878906"/></g><g><path fill="#2c2c2d" d="M 314.546875 346.847656 C 314.441406 346.847656 314.332031 346.816406 314.238281 346.746094 C 295.765625 333.011719 284.515625 315.65625 279.839844 293.691406 C 279.78125 293.410156 279.960938 293.132812 280.242188 293.074219 C 280.519531 293.015625 280.796875 293.195312 280.855469 293.472656 C 285.476562 315.183594 296.597656 332.335938 314.855469 345.910156 C 315.085938 346.082031 315.136719 346.40625 314.964844 346.640625 C 314.863281 346.777344 314.707031 346.847656 314.546875 346.847656"/></g><g><path fill="#fd6107" d="M 290.660156 155.582031 L 289.746094 155.097656 C 289.789062 155.007812 294.414062 146.03125 287.78125 138.289062 C 283.316406 133.078125 273.527344 131.226562 265.859375 131.226562 C 257.902344 131.226562 250.039062 131.800781 234.40625 138.863281 L 233.976562 137.914062 C 249.800781 130.769531 257.777344 130.1875 265.859375 130.1875 C 273.761719 130.1875 283.875 132.136719 288.570312 137.613281 C 295.671875 145.902344 290.710938 155.488281 290.660156 155.582031"/></g><g><path fill="#36334c" d="M 57.40625 140.363281 C 54.222656 140.363281 52.082031 136.253906 50.832031 132.753906 C 50.746094 134.613281 50.367188 136.613281 49.347656 138.046875 C 48.570312 139.140625 47.503906 139.792969 46.179688 139.984375 C 43.277344 140.410156 40.960938 137.332031 39.296875 130.835938 C 39.226562 130.554688 39.394531 130.273438 39.671875 130.203125 C 39.949219 130.132812 40.234375 130.300781 40.304688 130.578125 C 41.34375 134.632812 43.175781 139.378906 46.03125 138.957031 C 47.078125 138.804688 47.886719 138.308594 48.5 137.445312 C 50.679688 134.382812 49.488281 127.972656 49.476562 127.90625 C 49.421875 127.628906 49.609375 127.355469 49.890625 127.300781 C 50.171875 127.246094 50.441406 127.429688 50.496094 127.710938 C 51.148438 131.027344 53.671875 139.578125 57.589844 139.316406 C 58.171875 139.277344 58.675781 139.003906 59.125 138.480469 C 60.96875 136.324219 61.269531 130.882812 61.230469 127.078125 C 61.03125 124.875 61.058594 123.21875 61.0625 123.019531 C 61.066406 122.742188 61.289062 122.519531 61.5625 122.511719 C 61.835938 122.496094 62.074219 122.710938 62.097656 122.984375 C 62.113281 123.164062 62.25 124.777344 62.273438 126.953125 C 62.667969 131.28125 63.925781 137.769531 67.933594 138.753906 C 68.839844 138.976562 69.601562 138.8125 70.269531 138.253906 C 74.179688 134.96875 73.242188 120.3125 73.234375 120.164062 C 73.214844 119.882812 73.425781 119.640625 73.707031 119.613281 C 73.988281 119.589844 74.238281 119.792969 74.269531 120.074219 C 74.664062 123.628906 76.515625 132.898438 80.257812 133.085938 C 81.25 133.136719 82.066406 132.863281 82.6875 132.28125 C 84.074219 130.984375 84.132812 128.550781 84.132812 128.523438 C 84.136719 128.238281 84.367188 128.011719 84.652344 128.011719 C 84.945312 128.015625 85.171875 128.253906 85.167969 128.539062 C 85.167969 128.65625 85.109375 131.433594 83.402344 133.035156 C 82.566406 133.820312 81.488281 134.1875 80.207031 134.121094 C 77.175781 133.972656 75.367188 129.757812 74.355469 126 C 74.222656 130.71875 73.523438 136.878906 70.9375 139.046875 C 70.011719 139.824219 68.917969 140.066406 67.6875 139.761719 C 64.605469 139.003906 62.953125 135.679688 62.070312 132.1875 C 61.789062 134.972656 61.171875 137.683594 59.914062 139.152344 C 59.28125 139.890625 58.523438 140.292969 57.660156 140.351562 C 57.574219 140.359375 57.488281 140.363281 57.40625 140.363281"/></g><g><path fill="#f9c4b8" d="M 309.113281 148.09375 C 309.113281 162.789062 320.886719 174.699219 335.414062 174.699219 C 349.941406 174.699219 361.714844 162.789062 361.714844 148.09375 C 361.714844 133.398438 349.941406 121.488281 335.414062 121.488281 C 320.886719 121.488281 309.113281 133.398438 309.113281 148.09375"/></g><g><path fill="#f9c4b8" d="M 360.542969 154.402344 L 349.699219 147.585938 C 349.699219 147.585938 349.636719 147.664062 349.539062 147.859375 C 349.648438 147.644531 352.234375 142.378906 354.257812 122.660156 C 354.617188 119.144531 357.765625 116.582031 361.28125 116.945312 C 364.800781 117.304688 367.359375 120.449219 367 123.96875 C 364.707031 146.324219 361.476562 152.914062 360.542969 154.402344"/></g><g><path fill="#f9c4b8" d="M 324.976562 140.011719 C 324.136719 140.011719 323.28125 139.84375 322.457031 139.488281 C 318.273438 137.695312 318.324219 133.445312 318.359375 130.339844 C 318.410156 126.070312 318.933594 118.820312 319.910156 108.78125 C 320.253906 105.261719 323.386719 102.683594 326.90625 103.03125 C 330.425781 103.371094 333.003906 106.507812 332.660156 110.027344 C 331.085938 126.136719 331.121094 130.855469 331.179688 132 C 331.523438 133.324219 331.449219 134.769531 330.867188 136.125 C 329.828125 138.554688 327.460938 140.011719 324.976562 140.011719"/></g><g><path fill="#f9c4b8" d="M 347.007812 139.429688 C 346.320312 139.429688 345.617188 139.316406 344.929688 139.082031 C 341.585938 137.9375 339.800781 134.292969 340.949219 130.949219 C 341.171875 130.296875 341.425781 129.71875 341.699219 129.207031 C 341.957031 127.210938 342.457031 123.34375 343.414062 116.355469 C 343.898438 112.851562 347.132812 110.402344 350.632812 110.882812 C 354.136719 111.367188 356.585938 114.597656 356.105469 118.101562 C 355.089844 125.46875 354.59375 129.335938 354.355469 131.195312 C 354.257812 131.972656 354.195312 132.457031 354.152344 132.746094 C 353.886719 134.628906 353.101562 135.949219 352.136719 136.859375 C 350.929688 138.472656 349.019531 139.429688 347.007812 139.429688"/></g><g><path fill="#f9c4b8" d="M 329.597656 130.402344 C 329.566406 129.765625 329.515625 125.800781 331.222656 110.4375 C 331.613281 106.921875 334.78125 104.386719 338.296875 104.777344 C 341.8125 105.167969 344.34375 108.335938 343.953125 111.851562 C 342.355469 126.21875 342.394531 129.800781 342.394531 129.945312 L 342.390625 129.847656 L 329.597656 130.402344"/></g><g><path fill="#f9c4b8" d="M 316.277344 157.976562 C 313.226562 157.976562 310.523438 155.785156 309.976562 152.675781 C 308.480469 144.183594 304.046875 130.722656 298.894531 127.386719 C 295.925781 125.464844 295.078125 121.5 297 118.53125 C 298.921875 115.5625 302.886719 114.714844 305.855469 116.632812 C 311.179688 120.078125 315.632812 126.972656 319.089844 137.117188 C 321.46875 144.101562 322.550781 150.210938 322.59375 150.46875 C 323.203125 153.953125 320.875 157.269531 317.390625 157.882812 C 317.015625 157.945312 316.644531 157.976562 316.277344 157.976562"/></g><g><path fill="#36334c" d="M 326.429688 167.160156 C 326.277344 167.160156 326.125 167.09375 326.023438 166.964844 C 325.84375 166.738281 325.882812 166.410156 326.109375 166.234375 C 326.136719 166.210938 329.082031 163.855469 330.597656 159.789062 C 332.621094 154.355469 331.277344 148.578125 326.601562 142.617188 C 326.425781 142.394531 326.464844 142.066406 326.6875 141.890625 C 326.914062 141.714844 327.242188 141.753906 327.417969 141.976562 C 333.554688 149.804688 333.054688 156.203125 331.554688 160.195312 C 329.925781 164.519531 326.878906 166.949219 326.75 167.050781 C 326.65625 167.125 326.542969 167.160156 326.429688 167.160156"/></g><g><path fill="#36334c" d="M 346.789062 140.363281 C 346.707031 140.363281 346.621094 140.359375 346.539062 140.351562 C 345.671875 140.292969 344.914062 139.890625 344.285156 139.152344 C 343.023438 137.683594 342.410156 134.972656 342.128906 132.1875 C 341.246094 135.679688 339.589844 139.003906 336.511719 139.761719 C 335.28125 140.066406 334.1875 139.824219 333.261719 139.046875 C 330.675781 136.878906 329.976562 130.71875 329.839844 126 C 328.828125 129.757812 327.023438 133.972656 323.992188 134.121094 C 322.707031 134.1875 321.632812 133.820312 320.796875 133.035156 C 319.085938 131.433594 319.03125 128.65625 319.027344 128.539062 C 319.023438 128.253906 319.253906 128.015625 319.539062 128.011719 C 319.832031 128.011719 320.0625 128.238281 320.066406 128.523438 C 320.066406 128.550781 320.121094 130.984375 321.507812 132.28125 C 322.132812 132.863281 322.949219 133.136719 323.941406 133.085938 C 327.6875 132.898438 329.53125 123.628906 329.929688 120.074219 C 329.960938 119.792969 330.210938 119.589844 330.492188 119.613281 C 330.773438 119.640625 330.980469 119.882812 330.964844 120.164062 C 330.953125 120.3125 330.019531 134.96875 333.929688 138.253906 C 334.597656 138.8125 335.359375 138.976562 336.261719 138.753906 C 340.269531 137.769531 341.53125 131.28125 341.925781 126.953125 C 341.949219 124.777344 342.085938 123.164062 342.101562 122.984375 C 342.125 122.710938 342.34375 122.503906 342.632812 122.511719 C 342.910156 122.519531 343.128906 122.742188 343.136719 123.019531 C 343.140625 123.21875 343.167969 124.871094 342.96875 127.074219 C 342.929688 130.878906 343.230469 136.324219 345.074219 138.480469 C 345.523438 139.003906 346.023438 139.277344 346.609375 139.316406 C 350.5 139.578125 353.050781 131.027344 353.699219 127.710938 C 353.753906 127.429688 354.03125 127.246094 354.308594 127.300781 C 354.589844 127.355469 354.773438 127.628906 354.71875 127.90625 C 354.707031 127.972656 353.519531 134.386719 355.699219 137.445312 C 356.3125 138.3125 357.121094 138.804688 358.167969 138.957031 C 361.03125 139.382812 362.855469 134.632812 363.894531 130.578125 C 363.964844 130.300781 364.246094 130.132812 364.523438 130.203125 C 364.804688 130.273438 364.96875 130.554688 364.898438 130.835938 C 363.238281 137.332031 360.914062 140.410156 358.015625 139.984375 C 356.695312 139.792969 355.628906 139.140625 354.851562 138.046875 C 353.828125 136.613281 353.453125 134.613281 353.363281 132.753906 C 352.117188 136.253906 349.972656 140.359375 346.789062 140.363281"/></g><g><path fill="#2c2c2d" d="M 115.300781 492.289062 C 115.28125 492.289062 115.261719 492.285156 115.242188 492.285156 C 114.957031 492.253906 114.753906 492 114.78125 491.714844 L 125.398438 392.667969 L 114.523438 379.503906 C 114.34375 379.285156 114.375 378.957031 114.59375 378.773438 C 114.816406 378.59375 115.144531 378.621094 115.324219 378.84375 L 126.339844 392.175781 C 126.429688 392.28125 126.46875 392.421875 126.453125 392.5625 L 115.816406 491.824219 C 115.785156 492.089844 115.5625 492.289062 115.300781 492.289062"/></g><g><path fill="#2c2c2d" d="M 284.40625 430.894531 C 284.144531 430.894531 283.921875 430.699219 283.890625 430.4375 L 279.0625 388.894531 C 279.042969 388.757812 279.085938 388.617188 279.171875 388.507812 L 295.015625 368.992188 C 295.195312 368.769531 295.523438 368.738281 295.746094 368.917969 C 295.96875 369.097656 296.003906 369.425781 295.824219 369.648438 L 280.117188 388.992188 L 284.921875 430.316406 C 284.957031 430.601562 284.75 430.859375 284.464844 430.890625 C 284.445312 430.894531 284.425781 430.894531 284.40625 430.894531"/></g><g><path fill="#fb7682" d="M 243.445312 243.058594 C 243.445312 248.019531 239.554688 252.042969 234.75 252.042969 C 229.949219 252.042969 226.058594 248.019531 226.058594 243.058594 C 226.058594 238.097656 229.949219 234.074219 234.75 234.074219 C 239.554688 234.074219 243.445312 238.097656 243.445312 243.058594"/></g><g><path fill="#fb7682" d="M 180.847656 243.058594 C 180.847656 248.019531 176.953125 252.042969 172.152344 252.042969 C 167.347656 252.042969 163.457031 248.019531 163.457031 243.058594 C 163.457031 238.097656 167.347656 234.074219 172.152344 234.074219 C 176.953125 234.074219 180.847656 238.097656 180.847656 243.058594"/></g><g clip-path="url(#a)"><path fill="#0d0845" d="M 19.320312 496.019531 L 2.078125 496.019531 C 0.929688 496.019531 0 495.089844 0 493.945312 C 0 492.796875 0.929688 491.867188 2.078125 491.867188 L 19.320312 491.867188 C 20.46875 491.867188 21.398438 492.796875 21.398438 493.945312 C 21.398438 495.089844 20.46875 496.019531 19.320312 496.019531"/></g><g clip-path="url(#b)"><path fill="#0d0845" d="M 460.566406 496.019531 L 37.144531 496.019531 C 35.996094 496.019531 35.066406 495.089844 35.066406 493.945312 C 35.066406 492.796875 35.996094 491.867188 37.144531 491.867188 L 460.566406 491.867188 C 461.714844 491.867188 462.644531 492.796875 462.644531 493.945312 C 462.644531 495.089844 461.714844 496.019531 460.566406 496.019531"/></g><g><path fill="#93a5f4" d="M 383.8125 481.902344 L 343.675781 481.902344 C 343.386719 481.902344 343.15625 481.671875 343.15625 481.382812 C 343.15625 481.097656 343.386719 480.863281 343.675781 480.863281 L 383.8125 480.863281 C 384.101562 480.863281 384.332031 481.097656 384.332031 481.382812 C 384.332031 481.671875 384.101562 481.902344 383.8125 481.902344"/></g><g><path fill="#93a5f4" d="M 369.03125 485.089844 L 330.488281 485.089844 C 330.199219 485.089844 329.96875 484.859375 329.96875 484.570312 C 329.96875 484.285156 330.199219 484.050781 330.488281 484.050781 L 369.03125 484.050781 C 369.320312 484.050781 369.550781 484.285156 369.550781 484.570312 C 369.550781 484.859375 369.320312 485.089844 369.03125 485.089844"/></g><g><path fill="#433fab" d="M 305.21875 468.398438 L 304.667969 468.398438 C 300.199219 468.398438 296.578125 472.015625 296.578125 476.484375 L 296.578125 483.785156 C 296.578125 488.253906 300.199219 491.875 304.667969 491.875 L 414.390625 491.875 L 414.390625 468.398438 L 305.21875 468.398438"/></g><g><path fill="#433fab" d="M 412.289062 471.566406 C 411.429688 471.566406 410.730469 470.871094 410.730469 470.011719 C 410.730469 469.152344 411.425781 468.449219 412.285156 468.449219 L 434.382812 468.417969 C 435.246094 468.417969 435.941406 469.113281 435.945312 469.972656 C 435.945312 470.832031 435.25 471.53125 434.390625 471.53125 L 412.289062 471.566406"/></g><g><path fill="#433fab" d="M 434.820312 491.894531 L 411.925781 491.894531 C 411.066406 491.894531 410.367188 491.195312 410.367188 490.335938 C 410.367188 489.476562 411.066406 488.777344 411.925781 488.777344 L 434.820312 488.777344 C 435.683594 488.777344 436.378906 489.476562 436.378906 490.335938 C 436.378906 491.195312 435.683594 491.894531 434.820312 491.894531"/></g><g><path fill="#fcd105" d="M 321.785156 491.875 L 312.054688 491.875 C 309.625 484.238281 309.617188 476.035156 312.039062 468.398438 L 321.769531 468.398438 C 318.546875 475.894531 318.546875 484.382812 321.785156 491.875"/></g><g><path fill="#fcd105" d="M 307.585938 491.875 C 304.347656 484.382812 304.34375 475.894531 307.566406 468.398438 L 305.21875 468.398438 C 302.230469 475.9375 302.238281 484.335938 305.234375 491.875 L 307.585938 491.875"/></g><g><path fill="#fcd105" d="M 397.523438 491.875 L 387.792969 491.875 C 385.363281 484.238281 385.355469 476.035156 387.78125 468.398438 L 397.507812 468.398438 C 394.285156 475.894531 394.289062 484.382812 397.523438 491.875"/></g><g><path fill="#fcd105" d="M 383.324219 491.875 C 380.085938 484.382812 380.085938 475.894531 383.308594 468.398438 L 380.957031 468.398438 C 377.96875 475.9375 377.976562 484.335938 380.972656 491.875 L 383.324219 491.875"/></g><g><path fill="#e8edfd" d="M 434.476562 488.773438 L 419.390625 488.773438 C 414.628906 488.773438 410.765625 484.914062 410.765625 480.152344 C 410.765625 475.390625 414.628906 471.53125 419.390625 471.53125 L 434.476562 471.53125 L 434.476562 488.773438"/></g><g><path fill="#433fab" d="M 433.277344 476.6875 L 416.660156 476.6875 C 416.375 476.6875 416.140625 476.453125 416.140625 476.167969 C 416.140625 475.878906 416.375 475.648438 416.660156 475.648438 L 433.277344 475.648438 C 433.5625 475.648438 433.796875 475.878906 433.796875 476.167969 C 433.796875 476.453125 433.5625 476.6875 433.277344 476.6875"/></g><g><path fill="#433fab" d="M 433.082031 480.9375 L 424.96875 480.9375 C 424.679688 480.9375 424.449219 480.703125 424.449219 480.417969 C 424.449219 480.132812 424.679688 479.898438 424.96875 479.898438 L 433.082031 479.898438 C 433.371094 479.898438 433.601562 480.132812 433.601562 480.417969 C 433.601562 480.703125 433.371094 480.9375 433.082031 480.9375"/></g><g><path fill="#e8edfd" d="M 422.070312 466.972656 L 310.34375 466.972656 L 310.34375 450.019531 L 422.070312 450.019531 L 422.070312 466.972656"/></g><g><path fill="#36334c" d="M 424.308594 468.53125 L 309.039062 468.53125 C 308.179688 468.53125 307.484375 467.832031 307.484375 466.972656 C 307.484375 466.113281 308.179688 465.414062 309.039062 465.414062 L 422.710938 465.414062 C 426.207031 460.238281 426.207031 455.207031 422.714844 450.070312 L 309.039062 450.070312 C 308.179688 450.070312 307.484375 449.375 307.484375 448.511719 C 307.484375 447.652344 308.179688 446.953125 309.039062 446.953125 L 424.308594 446.953125 L 424.773438 447.589844 C 429.707031 454.300781 429.707031 461.128906 424.777344 467.890625 L 424.308594 468.53125"/></g><g><path fill="#433fab" d="M 365.457031 465.261719 C 365.171875 465.261719 364.941406 465.03125 364.941406 464.742188 L 364.941406 450.640625 C 364.941406 450.351562 365.171875 450.117188 365.457031 450.117188 C 365.746094 450.117188 365.976562 450.351562 365.976562 450.640625 L 365.976562 464.742188 C 365.976562 465.03125 365.746094 465.261719 365.457031 465.261719"/></g><g><path fill="#433fab" d="M 333.386719 452.921875 L 311.648438 452.921875 C 311.363281 452.921875 311.128906 452.6875 311.128906 452.402344 C 311.128906 452.113281 311.363281 451.882812 311.648438 451.882812 L 333.386719 451.882812 C 333.671875 451.882812 333.90625 452.113281 333.90625 452.402344 C 333.90625 452.6875 333.671875 452.921875 333.386719 452.921875"/></g><g><path fill="#433fab" d="M 337.734375 455.53125 L 316.578125 455.53125 C 316.289062 455.53125 316.058594 455.296875 316.058594 455.011719 C 316.058594 454.722656 316.289062 454.492188 316.578125 454.492188 L 337.734375 454.492188 C 338.019531 454.492188 338.253906 454.722656 338.253906 455.011719 C 338.253906 455.296875 338.019531 455.53125 337.734375 455.53125"/></g><g><path fill="#fcd105" d="M 206.929688 50.136719 C 206.929688 36.691406 196.222656 25.789062 183.019531 25.789062 C 169.8125 25.789062 159.109375 36.691406 159.109375 50.136719 C 159.109375 58.3125 163.066406 65.539062 169.140625 69.953125 C 171.546875 71.703125 173.019531 74.453125 173.019531 77.429688 L 173.019531 86.363281 L 194.175781 86.363281 L 194.175781 76.59375 C 194.175781 73.742188 195.523438 71.082031 197.753906 69.304688 C 203.339844 64.847656 206.929688 57.921875 206.929688 50.136719"/></g><g><path fill="#36334c" d="M 181.789062 48.023438 C 181.785156 48.683594 183.445312 51.066406 184.664062 52.820312 C 185.714844 54.328125 186.824219 55.921875 187.746094 57.464844 C 188.652344 54.214844 186.695312 51.480469 185.761719 50.410156 C 184.292969 48.730469 182.582031 47.875 181.789062 48.023438 Z M 178.09375 55.402344 C 177.601562 55.402344 177.511719 55.6875 177.476562 55.796875 C 177.09375 57.019531 179.15625 59.035156 181.722656 59.949219 C 182.175781 60.109375 183.09375 60.382812 184.089844 60.382812 C 182.742188 57.96875 180.398438 56.007812 178.726562 55.511719 C 178.464844 55.433594 178.257812 55.402344 178.09375 55.402344 Z M 175.992188 63.4375 C 175.699219 63.4375 175.390625 63.507812 175.066406 63.652344 C 174.726562 63.804688 174.753906 63.945312 174.769531 64.035156 C 174.929688 64.882812 176.878906 66.335938 179.09375 67.113281 C 178.410156 65.148438 177.65625 64.171875 176.964844 63.730469 C 176.65625 63.535156 176.332031 63.4375 175.992188 63.4375 Z M 181.292969 85.792969 C 181.113281 77.027344 180.386719 71.617188 179.46875 68.320312 C 176.75 67.554688 174.035156 65.730469 173.75 64.230469 C 173.625 63.570312 173.949219 63.011719 174.644531 62.703125 C 175.660156 62.253906 176.65625 62.304688 177.523438 62.855469 C 178.625 63.554688 179.542969 65.09375 180.273438 67.453125 C 180.726562 67.558594 181.183594 67.621094 181.628906 67.640625 C 183.4375 67.71875 184.570312 67.015625 184.984375 65.550781 C 185.367188 64.183594 185.15625 62.753906 184.597656 61.410156 C 183.625 61.496094 182.535156 61.339844 181.375 60.925781 C 178.511719 59.90625 175.863281 57.480469 176.484375 55.488281 C 176.796875 54.5 177.742188 54.132812 179.023438 54.515625 C 181.007812 55.101562 183.734375 57.410156 185.195312 60.253906 C 185.984375 60.054688 186.734375 59.597656 187.253906 58.691406 C 186.269531 56.941406 184.96875 55.074219 183.8125 53.414062 C 181.542969 50.15625 180.46875 48.546875 180.824219 47.597656 C 180.933594 47.308594 181.171875 47.105469 181.492188 47.023438 C 182.796875 46.699219 184.871094 47.8125 186.542969 49.730469 C 188.886719 52.414062 189.609375 55.707031 188.476562 58.539062 C 188.460938 58.582031 188.445312 58.621094 188.425781 58.660156 C 189.324219 60.335938 189.917969 61.910156 189.867188 63.199219 C 189.671875 68.03125 185.207031 85.003906 185.019531 85.722656 L 184.015625 85.457031 C 184.0625 85.28125 188.640625 67.875 188.828125 63.15625 C 188.863281 62.21875 188.457031 61.027344 187.808594 59.726562 C 187.25 60.449219 186.507812 60.953125 185.628906 61.214844 C 186.210938 62.703125 186.414062 64.289062 185.980469 65.832031 C 185.4375 67.769531 183.875 68.777344 181.582031 68.679688 C 181.257812 68.664062 180.925781 68.628906 180.585938 68.570312 C 181.59375 72.476562 182.179688 78.222656 182.332031 85.773438 L 181.292969 85.792969"/></g><g><path fill="#7c94ef" d="M 183.453125 104.140625 C 176.890625 104.140625 171.570312 98.820312 171.570312 92.257812 L 171.570312 85.203125 L 195.335938 85.203125 L 195.335938 92.257812 C 195.335938 98.820312 190.015625 104.140625 183.453125 104.140625"/></g><g><path fill="#7c94ef" d="M 188.1875 103.847656 C 188.1875 106.25 186.15625 108.195312 183.648438 108.195312 C 181.140625 108.195312 179.105469 106.25 179.105469 103.847656 C 179.105469 101.449219 181.140625 99.503906 183.648438 99.503906 C 186.15625 99.503906 188.1875 101.449219 188.1875 103.847656"/></g><g><path fill="#fcd105" d="M 144.910156 80.464844 C 144.644531 80.464844 144.382812 80.34375 144.210938 80.113281 C 143.929688 79.730469 144.011719 79.1875 144.394531 78.902344 L 157.535156 69.242188 C 157.917969 68.960938 158.460938 69.042969 158.742188 69.429688 C 159.027344 69.8125 158.945312 70.355469 158.558594 70.636719 L 145.421875 80.300781 C 145.265625 80.410156 145.085938 80.464844 144.910156 80.464844"/></g><g><path fill="#fcd105" d="M 127.710938 56.507812 C 127.269531 56.507812 126.894531 56.171875 126.851562 55.726562 C 126.804688 55.25 127.15625 54.828125 127.628906 54.78125 L 151.976562 52.464844 C 152.449219 52.414062 152.875 52.765625 152.917969 53.242188 C 152.964844 53.71875 152.613281 54.140625 152.140625 54.1875 L 127.792969 56.503906 C 127.765625 56.507812 127.738281 56.507812 127.710938 56.507812"/></g><g><path fill="#fcd105" d="M 156.308594 37.960938 C 156.191406 37.960938 156.070312 37.9375 155.957031 37.886719 L 136.25 29.191406 C 135.8125 29 135.613281 28.488281 135.808594 28.050781 C 136 27.613281 136.511719 27.414062 136.949219 27.609375 L 156.65625 36.304688 C 157.09375 36.496094 157.292969 37.007812 157.101562 37.445312 C 156.957031 37.769531 156.640625 37.960938 156.308594 37.960938"/></g><g><path fill="#fcd105" d="M 168.769531 26.367188 C 168.453125 26.367188 168.144531 26.191406 167.992188 25.886719 L 155.820312 1.25 C 155.609375 0.820312 155.785156 0.304688 156.214844 0.0898438 C 156.644531 -0.121094 157.160156 0.0546875 157.375 0.484375 L 169.546875 25.117188 C 169.757812 25.546875 169.582031 26.066406 169.152344 26.277344 C 169.03125 26.339844 168.898438 26.367188 168.769531 26.367188"/></g><g><path fill="#fcd105" d="M 187.320312 22.308594 C 187.253906 22.308594 187.183594 22.300781 187.117188 22.285156 C 186.652344 22.175781 186.363281 21.707031 186.476562 21.242188 L 191.402344 0.664062 C 191.515625 0.199219 191.980469 -0.0859375 192.445312 0.0273438 C 192.910156 0.136719 193.199219 0.605469 193.085938 1.070312 L 188.160156 21.644531 C 188.066406 22.042969 187.710938 22.308594 187.320312 22.308594"/></g><g><path fill="#fcd105" d="M 202.097656 28.105469 C 201.882812 28.105469 201.671875 28.027344 201.503906 27.867188 C 201.15625 27.539062 201.140625 26.992188 201.472656 26.644531 L 218.28125 8.964844 C 218.609375 8.617188 219.15625 8.605469 219.503906 8.933594 C 219.851562 9.265625 219.863281 9.8125 219.535156 10.15625 L 202.726562 27.835938 C 202.554688 28.015625 202.328125 28.105469 202.097656 28.105469"/></g><g><path fill="#fcd105" d="M 210.503906 38.828125 C 210.148438 38.828125 209.8125 38.609375 209.6875 38.253906 C 209.527344 37.804688 209.761719 37.308594 210.214844 37.148438 L 227.3125 31.0625 C 227.761719 30.902344 228.257812 31.136719 228.417969 31.589844 C 228.578125 32.039062 228.34375 32.53125 227.894531 32.691406 L 210.792969 38.777344 C 210.699219 38.8125 210.601562 38.828125 210.503906 38.828125"/></g><g><path fill="#fcd105" d="M 234.269531 61.433594 C 234.1875 61.433594 234.101562 61.425781 234.019531 61.398438 L 211.992188 54.730469 C 211.535156 54.59375 211.273438 54.109375 211.414062 53.652344 C 211.554688 53.195312 212.035156 52.9375 212.492188 53.074219 L 234.519531 59.742188 C 234.976562 59.878906 235.234375 60.363281 235.097656 60.820312 C 234.984375 61.195312 234.640625 61.433594 234.269531 61.433594"/></g><g><path fill="#fcd105" d="M 215.140625 77.375 C 214.929688 77.375 214.714844 77.296875 214.546875 77.140625 L 204.691406 67.863281 C 204.347656 67.539062 204.328125 66.988281 204.65625 66.640625 C 204.984375 66.292969 205.53125 66.277344 205.878906 66.605469 L 215.734375 75.878906 C 216.082031 76.207031 216.097656 76.753906 215.769531 77.101562 C 215.601562 77.28125 215.371094 77.375 215.140625 77.375"/></g><g><path fill="#e8edfd" d="M 193.402344 91.867188 L 176.59375 91.867188 C 176.117188 91.867188 175.730469 91.480469 175.730469 91 C 175.730469 90.523438 176.117188 90.136719 176.59375 90.136719 L 193.402344 90.136719 C 193.882812 90.136719 194.269531 90.523438 194.269531 91 C 194.269531 91.480469 193.882812 91.867188 193.402344 91.867188"/></g><g><path fill="#e8edfd" d="M 192.246094 96.503906 L 181.523438 96.503906 C 181.042969 96.503906 180.65625 96.113281 180.65625 95.636719 C 180.65625 95.160156 181.042969 94.773438 181.523438 94.773438 L 192.246094 94.773438 C 192.722656 94.773438 193.109375 95.160156 193.109375 95.636719 C 193.109375 96.113281 192.722656 96.503906 192.246094 96.503906"/></g><g><path fill="#5250d6" d="M 272.257812 491.871094 L 131.554688 491.871094 L 124.609375 406.765625 C 124.09375 400.46875 129.066406 395.070312 135.386719 395.070312 L 268.425781 395.070312 C 274.742188 395.070312 279.714844 400.46875 279.203125 406.765625 L 272.257812 491.871094"/></g><g><path fill="#e8edfd" d="M 219.875 444.195312 C 219.875 450.519531 211.828125 455.644531 201.90625 455.644531 C 191.980469 455.644531 183.9375 450.519531 183.9375 444.195312 C 183.9375 437.875 191.980469 432.75 201.90625 432.75 C 211.828125 432.75 219.875 437.875 219.875 444.195312"/></g><g><path fill="#2c2c2d" d="M 257.550781 395.59375 L 132.929688 395.59375 C 132.644531 395.59375 132.410156 395.359375 132.410156 395.070312 C 132.410156 394.785156 132.644531 394.554688 132.929688 394.554688 L 257.550781 394.554688 C 257.835938 394.554688 258.070312 394.785156 258.070312 395.070312 C 258.070312 395.359375 257.835938 395.59375 257.550781 395.59375"/></g><g><path fill="#fb7682" d="M 95.824219 471.300781 C 94.273438 482.820312 86.15625 494.648438 77.074219 490.398438 C 68.574219 495.035156 59.742188 482.152344 58.015625 470.867188 C 56.289062 459.582031 61.230469 445.765625 77.074219 453.109375 C 94.65625 445.960938 97.378906 459.777344 95.824219 471.300781"/></g><g><path fill="#fdfcfb" d="M 92.148438 459.992188 C 93.179688 463.246094 92.289062 466.4375 90.15625 467.113281 C 88.019531 467.792969 85.449219 465.707031 84.414062 462.453125 C 83.378906 459.199219 84.269531 456.011719 86.40625 455.332031 C 88.539062 454.652344 91.109375 456.738281 92.148438 459.992188"/></g><g><path fill="#fdfcfb" d="M 93.304688 470.496094 C 93.304688 471.617188 92.523438 472.527344 91.566406 472.527344 C 90.605469 472.527344 89.824219 471.617188 89.824219 470.496094 C 89.824219 469.378906 90.605469 468.46875 91.566406 468.46875 C 92.523438 468.46875 93.304688 469.378906 93.304688 470.496094"/></g><g><path fill="#36334c" d="M 77.070312 454.664062 C 76.328125 454.664062 75.671875 454.132812 75.539062 453.375 C 74.730469 448.738281 75.5 439.023438 84.210938 435.4375 C 85.003906 435.109375 85.914062 435.488281 86.242188 436.285156 C 86.570312 437.082031 86.191406 437.992188 85.394531 438.320312 C 76.835938 441.84375 78.53125 452.394531 78.609375 452.84375 C 78.753906 453.691406 78.183594 454.496094 77.339844 454.640625 C 77.25 454.65625 77.160156 454.664062 77.070312 454.664062"/></g><g><path fill="#36334c" d="M 73.847656 433.710938 C 77.558594 437.800781 76.59375 444.71875 76.59375 444.71875 C 76.59375 444.71875 69.617188 445.003906 65.90625 440.914062 C 62.195312 436.824219 63.160156 429.90625 63.160156 429.90625 C 63.160156 429.90625 70.136719 429.621094 73.847656 433.710938"/></g></g></svg>