<?xml version="1.0" encoding="UTF-8" standalone="no"?><svg xmlns="http://www.w3.org/2000/svg" xmlns:xlink="http://www.w3.org/1999/xlink" contentScriptType="text/ecmascript" fill="#000000" width="229.8" zoomAndPan="magnify" contentStyleType="text/css" viewBox="-1.7 -4.5 229.8 176.4" height="176.4" preserveAspectRatio="xMidYMid meet" version="1"><defs><clipPath id="a"><path d="M 138 63 L 228.101562 63 L 228.101562 171.941406 L 138 171.941406 Z M 138 63"/></clipPath></defs><g><g id="change1_1"><path fill="#ffcfb2" d="M 50.832031 40.574219 L 48.355469 61.695312 L 41.097656 65.980469 L 55.035156 84.683594 L 72.414062 66.820312 L 65.226562 61.445312 L 66.445312 45.273438 L 50.832031 40.574219" fill-rule="evenodd"/></g><g id="change2_1"><path fill="#ff9e87" d="M 66.363281 46.410156 L 65.664062 55.648438 C 56.648438 54.835938 50.445312 50.167969 52.75 42.722656 L 66.363281 46.410156" fill-rule="evenodd"/></g><g id="change3_1"><path fill="#9c5c57" d="M 82.679688 5.1875 C 79.023438 -2.113281 65.203125 -0.578125 58.628906 2.9375 C 52.488281 6.226562 44.710938 10.789062 43.300781 19.171875 C 41.753906 28.390625 48.316406 35.335938 48.316406 35.335938 L 77.277344 20.164062 L 82.679688 5.1875" fill-rule="evenodd"/></g><g id="change1_2"><path fill="#ffcfb2" d="M 107.851562 109.171875 L 111.996094 120.59375 C 111.996094 120.59375 117.378906 122.453125 120.441406 120.964844 C 125.5 118.511719 136.101562 114.605469 135.820312 113.246094 C 135.339844 110.933594 125.0625 114.710938 125.0625 114.710938 C 125.0625 114.710938 136.921875 110.164062 136.398438 108.164062 C 135.816406 105.933594 124.738281 109.582031 124.738281 109.582031 C 124.738281 109.582031 136.335938 104.617188 135.785156 102.800781 C 135.21875 100.945312 122.730469 106.507812 122.730469 106.507812 C 122.730469 106.507812 133.375 100.285156 132.804688 98.597656 C 132.042969 96.355469 118.257812 102.753906 118.257812 102.753906 C 118.257812 102.753906 120.226562 95.839844 118.550781 96.871094 C 116.816406 97.941406 110.128906 104.480469 107.851562 109.171875" fill-rule="evenodd"/></g><g id="change4_1"><path fill="#ffae5a" d="M 48.925781 60.113281 C 48.925781 60.113281 44.929688 72.449219 57.292969 70.949219 C 68.386719 69.605469 64.972656 60.566406 64.972656 60.566406 C 64.972656 60.566406 65.769531 60.054688 66.054688 60.234375 C 68.167969 61.566406 76.855469 67.417969 79.90625 71.078125 C 83.980469 75.964844 84.597656 106.824219 83.242188 111.34375 L 107.433594 104.890625 C 111.445312 111.347656 113.1875 118.089844 113.855469 124.960938 C 102.632812 135.292969 90.210938 141.34375 77.066406 144.835938 L 78.914062 156.726562 C 68.046875 169.449219 28.710938 170.609375 19.578125 161.148438 L 20.777344 153.71875 C 20.777344 153.71875 1.738281 155.765625 0.242188 146.386719 C -1.710938 134.15625 8.636719 93.550781 16.207031 79.546875 C 21.429688 69.886719 48.925781 60.113281 48.925781 60.113281" fill-rule="evenodd"/></g><g id="change5_1"><path fill="#e8884b" d="M 76.867188 90.546875 C 75.382812 110.472656 74.472656 127.015625 76.371094 144.910156 C 76.410156 145.292969 76.757812 145.570312 77.140625 145.53125 C 77.523438 145.492188 77.804688 145.144531 77.761719 144.761719 C 75.871094 126.949219 76.785156 110.484375 78.265625 90.652344 C 78.292969 90.265625 78.003906 89.929688 77.617188 89.902344 C 77.230469 89.871094 76.894531 90.164062 76.867188 90.546875" fill-rule="evenodd"/></g><g id="change1_3"><path fill="#ffcfb2" d="M 55.777344 125.933594 L 56.976562 139.617188 C 56.976562 139.617188 62.304688 143.21875 66.078125 142.484375 C 72.304688 141.273438 85 140.09375 85.085938 138.527344 C 85.234375 135.863281 72.933594 136.996094 72.933594 136.996094 C 72.933594 136.996094 87.183594 135.480469 87.195312 133.144531 C 87.207031 130.535156 74.070312 131.300781 74.070312 131.300781 C 74.070312 131.300781 88.15625 129.25 88.082031 127.105469 C 88.007812 124.914062 72.773438 127.355469 72.773438 127.355469 C 72.773438 127.355469 86.183594 123.65625 86.050781 121.648438 C 85.875 118.972656 68.984375 121.953125 68.984375 121.953125 C 68.984375 121.953125 73.140625 114.972656 71.015625 115.613281 C 68.8125 116.277344 59.621094 121.472656 55.777344 125.933594" fill-rule="evenodd"/></g><g id="change5_2"><path fill="#e8884b" d="M 27.800781 124.492188 C 29.707031 116.003906 30.15625 107.371094 29.640625 98.648438 C 29.617188 98.261719 29.285156 97.96875 28.902344 97.992188 C 28.515625 98.015625 28.222656 98.347656 28.242188 98.730469 C 28.753906 107.324219 28.3125 115.824219 26.433594 124.1875 C 26.351562 124.5625 26.585938 124.9375 26.964844 125.023438 C 27.339844 125.109375 27.714844 124.871094 27.800781 124.492188" fill-rule="evenodd"/></g><g id="change5_3"><path fill="#e8884b" d="M 13.53125 125.34375 L 53.894531 125.007812 C 56.089844 129.691406 56.707031 139.339844 56.113281 143.898438 C 47.347656 149.019531 30.320312 152.613281 21.585938 152.597656 C 21.199219 152.597656 20.886719 152.910156 20.886719 153.296875 C 20.886719 153.683594 21.199219 154 21.585938 154 C 30.597656 154.011719 48.261719 150.25 57.117188 144.929688 C 57.296875 144.824219 57.417969 144.640625 57.449219 144.4375 C 58.167969 139.707031 57.457031 128.8125 54.949219 123.980469 C 54.828125 123.746094 54.585938 123.601562 54.320312 123.601562 L 13.519531 123.941406 C 13.132812 123.945312 12.820312 124.261719 12.824219 124.648438 C 12.828125 125.035156 13.144531 125.34375 13.53125 125.34375" fill-rule="evenodd"/></g><g id="change1_4"><path fill="#ffcfb2" d="M 80.890625 16.769531 C 80.890625 16.769531 81.921875 44.027344 76.722656 49.097656 C 68.632812 56.980469 49.976562 47.957031 49.976562 47.957031 L 50.089844 44.175781 C 50.089844 44.175781 42.496094 41.476562 45.847656 33.726562 C 47.671875 29.496094 53.171875 33.992188 53.171875 33.992188 L 54.855469 15.097656 L 80.890625 16.769531" fill-rule="evenodd"/></g><g id="change6_1"><path fill="#ffffff" d="M 66.410156 40.84375 L 75.582031 41.570312 C 75.582031 41.570312 76.699219 46.570312 71.675781 46.367188 C 67.382812 46.191406 66.410156 40.84375 66.410156 40.84375" fill-rule="evenodd"/></g><g id="change7_1"><path fill="#6c524e" d="M 76.753906 30.316406 C 77.5 30.316406 78.109375 31.3125 78.109375 32.542969 C 78.109375 33.773438 77.5 34.769531 76.753906 34.769531 C 76.003906 34.769531 75.394531 33.773438 75.394531 32.542969 C 75.394531 31.3125 76.003906 30.316406 76.753906 30.316406" fill-rule="evenodd"/></g><g id="change7_2"><path fill="#6c524e" d="M 66.628906 30.089844 C 67.375 30.089844 67.984375 31.085938 67.984375 32.316406 C 67.984375 33.546875 67.375 34.542969 66.628906 34.542969 C 65.878906 34.542969 65.269531 33.546875 65.269531 32.316406 C 65.269531 31.085938 65.878906 30.089844 66.628906 30.089844" fill-rule="evenodd"/></g><g id="change7_3"><path fill="#6c524e" d="M 63.152344 27.484375 C 64.085938 26.421875 66.171875 26.058594 67.601562 27.230469 C 68.023438 27.578125 68.644531 27.515625 68.988281 27.097656 C 69.332031 26.675781 69.273438 26.054688 68.851562 25.710938 C 66.542969 23.816406 63.171875 24.46875 61.667969 26.1875 C 61.3125 26.597656 61.355469 27.222656 61.761719 27.578125 C 62.171875 27.9375 62.796875 27.894531 63.152344 27.484375" fill-rule="evenodd"/></g><g id="change7_4"><path fill="#6c524e" d="M 80.941406 25.859375 C 80.164062 25.222656 78.832031 24.882812 77.488281 24.902344 C 76.160156 24.921875 74.847656 25.292969 74.089844 25.894531 C 73.664062 26.230469 73.59375 26.851562 73.933594 27.277344 C 74.269531 27.703125 74.890625 27.773438 75.316406 27.4375 C 75.800781 27.050781 76.664062 26.886719 77.519531 26.871094 C 78.355469 26.859375 79.210938 26.988281 79.691406 27.386719 C 80.113281 27.730469 80.734375 27.667969 81.078125 27.246094 C 81.421875 26.824219 81.363281 26.203125 80.941406 25.859375" fill-rule="evenodd"/></g><g id="change7_5"><path fill="#6c524e" d="M 71.644531 32.640625 C 71.644531 32.640625 72.21875 33.917969 72.527344 34.929688 C 72.632812 35.28125 72.722656 35.59375 72.695312 35.765625 C 72.6875 35.8125 72.632812 35.828125 72.589844 35.863281 C 72.507812 35.921875 72.410156 35.972656 72.304688 36.019531 C 71.855469 36.222656 71.316406 36.316406 71.316406 36.316406 C 71.046875 36.363281 70.867188 36.621094 70.914062 36.886719 C 70.960938 37.15625 71.21875 37.335938 71.484375 37.289062 C 71.484375 37.289062 72.40625 37.121094 73.003906 36.769531 C 73.371094 36.546875 73.617188 36.246094 73.667969 35.921875 C 73.710938 35.65625 73.632812 35.179688 73.46875 34.644531 C 73.144531 33.582031 72.539062 32.234375 72.539062 32.234375 C 72.429688 31.988281 72.136719 31.878906 71.890625 31.988281 C 71.640625 32.101562 71.53125 32.394531 71.644531 32.640625" fill-rule="evenodd"/></g><g id="change3_2"><path fill="#9c5c57" d="M 51.292969 30.6875 C 51.292969 30.6875 51.988281 36.648438 53.613281 36.824219 C 54.714844 36.945312 54.65625 31.027344 54.65625 31.027344 C 58.339844 27.332031 56.832031 22.265625 59.078125 20.359375 C 61.921875 17.945312 69.757812 17.941406 74.453125 18.921875 C 88.308594 21.8125 95.226562 5.109375 82.359375 4.601562 C 70.910156 4.148438 55.113281 10.851562 55.113281 10.851562 L 50.5625 25.925781 L 51.292969 30.6875" fill-rule="evenodd"/></g><g id="change2_2"><path fill="#ff9e87" d="M 161.738281 50.253906 L 162.433594 59.488281 C 171.449219 58.679688 177.652344 54.007812 175.347656 46.5625 L 161.738281 50.253906" fill-rule="evenodd"/></g><g id="change3_3"><path fill="#9c5c57" d="M 157.757812 8.886719 C 166.199219 -4.472656 186.28125 5.960938 190.488281 13.121094 C 200.617188 30.367188 197.140625 67.851562 197.140625 67.851562 L 153.179688 65.058594 C 156.484375 51.359375 152.695312 37.6875 150.820312 24.007812 L 157.757812 8.886719" fill-rule="evenodd"/></g><g id="change1_5"><path fill="#ffcfb2" d="M 177.265625 44.414062 L 179.742188 65.535156 L 187.003906 69.824219 L 173.0625 88.523438 L 155.683594 70.664062 L 162.871094 65.285156 L 161.652344 49.117188 L 177.265625 44.414062" fill-rule="evenodd"/></g><g id="change8_1" clip-path="url(#a)"><path fill="#ff9da0" d="M 179.171875 63.957031 C 179.171875 63.957031 183.167969 76.292969 170.804688 74.792969 C 159.714844 73.449219 163.128906 64.410156 163.128906 64.410156 C 163.128906 64.410156 162.328125 63.894531 162.042969 64.074219 C 159.933594 65.40625 149.164062 71.589844 146.347656 75.433594 C 135.324219 90.476562 138.824219 159.003906 141.234375 158.484375 L 147.792969 162.207031 C 158.660156 174.929688 199.386719 174.453125 208.519531 164.988281 L 207.320312 157.5625 C 207.320312 157.5625 226.363281 159.605469 227.859375 150.230469 C 229.8125 138 219.464844 97.390625 211.894531 83.386719 C 206.671875 73.730469 179.171875 63.957031 179.171875 63.957031" fill-rule="evenodd"/></g><g id="change9_1"><path fill="#ffe3e4" d="M 172.34375 74.910156 C 173.800781 76.488281 179.167969 81.8125 183.285156 79.644531 C 191.046875 75.554688 190.222656 71.003906 182.613281 65.261719 C 180.492188 64.425781 179.171875 63.957031 179.171875 63.957031 C 179.171875 63.957031 182.824219 75.230469 172.34375 74.910156 Z M 160.667969 64.914062 C 157.371094 67.679688 152.648438 72.359375 153.953125 75.527344 C 157.714844 84.648438 169.023438 76.730469 171.488281 74.863281 C 171.265625 74.84375 171.039062 74.820312 170.804688 74.792969 C 159.714844 73.449219 163.128906 64.410156 163.128906 64.410156 C 163.128906 64.410156 162.328125 63.894531 162.042969 64.074219 C 161.742188 64.265625 161.269531 64.550781 160.667969 64.914062" fill-rule="evenodd"/></g><g id="change10_1"><path fill="#d97577" d="M 148.074219 94.535156 C 146.582031 118.894531 145.667969 139.121094 147.574219 160.996094 C 147.613281 161.46875 147.960938 161.808594 148.347656 161.757812 C 148.730469 161.707031 149.011719 161.285156 148.972656 160.816406 C 147.074219 139.042969 147.992188 118.910156 149.472656 94.660156 C 149.503906 94.191406 149.210938 93.78125 148.824219 93.746094 C 148.4375 93.710938 148.101562 94.0625 148.074219 94.535156" fill-rule="evenodd"/></g><g id="change1_6"><path fill="#ffcfb2" d="M 172.320312 129.777344 L 171.121094 143.460938 C 171.121094 143.460938 165.796875 147.058594 162.023438 146.324219 C 155.796875 145.117188 143.101562 143.9375 143.011719 142.371094 C 142.863281 139.703125 155.164062 140.835938 155.164062 140.835938 C 155.164062 140.835938 140.917969 139.324219 140.90625 136.984375 C 140.890625 134.378906 154.027344 135.140625 154.027344 135.140625 C 154.027344 135.140625 139.941406 133.09375 140.015625 130.945312 C 140.09375 128.753906 155.328125 131.199219 155.328125 131.199219 C 155.328125 131.199219 141.914062 127.496094 142.046875 125.488281 C 142.222656 122.816406 159.113281 125.796875 159.113281 125.796875 C 159.113281 125.796875 154.960938 118.816406 157.085938 119.457031 C 159.285156 120.121094 168.480469 125.316406 172.320312 129.777344" fill-rule="evenodd"/></g><g id="change10_2"><path fill="#d97577" d="M 200.296875 128.335938 C 198.390625 119.84375 197.941406 111.214844 198.457031 102.492188 C 198.480469 102.105469 198.8125 101.808594 199.199219 101.832031 C 199.582031 101.855469 199.878906 102.1875 199.855469 102.574219 C 199.347656 111.167969 199.785156 119.667969 201.664062 128.027344 C 201.75 128.40625 201.511719 128.78125 201.136719 128.867188 C 200.757812 128.949219 200.382812 128.714844 200.296875 128.335938" fill-rule="evenodd"/></g><g id="change10_3"><path fill="#d97577" d="M 214.566406 129.183594 L 174.203125 128.847656 C 172.011719 133.53125 171.390625 143.183594 171.988281 147.742188 C 180.753906 152.863281 197.78125 156.453125 206.511719 156.441406 C 206.898438 156.441406 207.214844 156.753906 207.214844 157.140625 C 207.214844 157.527344 206.898438 157.839844 206.515625 157.839844 C 197.503906 157.855469 179.835938 154.09375 170.980469 148.773438 C 170.800781 148.667969 170.679688 148.484375 170.648438 148.277344 C 169.929688 143.550781 170.640625 132.65625 173.148438 127.820312 C 173.269531 127.589844 173.511719 127.441406 173.777344 127.445312 L 214.578125 127.785156 C 214.964844 127.785156 215.277344 128.101562 215.273438 128.488281 C 215.269531 128.875 214.953125 129.1875 214.566406 129.183594" fill-rule="evenodd"/></g><g id="change2_3"><path fill="#ff9e87" d="M 163.570312 48.539062 L 161.652344 49.117188 L 162.421875 59.304688 C 167.339844 59.050781 173.808594 56.390625 176.238281 52.625 C 176.238281 52.625 165.125 48.410156 164.8125 48.53125 C 164.753906 48.554688 164.261719 48.523438 163.570312 48.539062" fill-rule="evenodd"/></g><g id="change1_7"><path fill="#ffcfb2" d="M 147.207031 20.613281 C 147.207031 20.613281 146.175781 47.871094 151.378906 52.941406 C 159.464844 60.824219 178.121094 51.800781 178.121094 51.800781 L 178.011719 48.015625 C 178.011719 48.015625 185.601562 45.320312 182.253906 37.566406 C 180.425781 33.339844 174.925781 37.835938 174.925781 37.835938 L 173.242188 18.9375 L 147.207031 20.613281" fill-rule="evenodd"/></g><g id="change6_2"><path fill="#ffffff" d="M 161.691406 44.683594 C 158.589844 46.039062 155.546875 45.867188 152.519531 45.410156 C 152.519531 45.410156 152.289062 50.363281 157.316406 50.15625 C 161.605469 49.984375 161.691406 44.683594 161.691406 44.683594" fill-rule="evenodd"/></g><g id="change7_6"><path fill="#6c524e" d="M 150.304688 34.269531 C 149.554688 34.269531 148.949219 35.265625 148.949219 36.496094 C 148.949219 37.726562 149.554688 38.722656 150.304688 38.722656 C 151.050781 38.722656 151.660156 37.726562 151.660156 36.496094 C 151.660156 35.265625 151.050781 34.269531 150.304688 34.269531" fill-rule="evenodd"/></g><g id="change7_7"><path fill="#6c524e" d="M 160.148438 34.292969 C 159.398438 34.292969 158.789062 35.289062 158.789062 36.519531 C 158.789062 37.75 159.398438 38.746094 160.148438 38.746094 C 160.894531 38.746094 161.503906 37.75 161.503906 36.519531 C 161.503906 35.289062 160.894531 34.292969 160.148438 34.292969" fill-rule="evenodd"/></g><g id="change7_8"><path fill="#6c524e" d="M 163.871094 32.128906 C 162.941406 31.0625 160.855469 30.703125 159.425781 31.875 C 159.003906 32.21875 158.382812 32.15625 158.039062 31.738281 C 157.691406 31.316406 157.753906 30.695312 158.175781 30.351562 C 160.484375 28.457031 163.855469 29.109375 165.355469 30.828125 C 165.714844 31.238281 165.671875 31.863281 165.265625 32.222656 C 164.855469 32.578125 164.230469 32.535156 163.871094 32.128906" fill-rule="evenodd"/></g><g id="change7_9"><path fill="#6c524e" d="M 145.945312 30.289062 C 146.722656 29.652344 148.058594 29.3125 149.402344 29.332031 C 150.730469 29.351562 152.042969 29.722656 152.796875 30.320312 C 153.222656 30.660156 153.296875 31.28125 152.957031 31.707031 C 152.617188 32.132812 151.996094 32.203125 151.574219 31.867188 C 151.085938 31.480469 150.222656 31.3125 149.371094 31.300781 C 148.53125 31.289062 147.679688 31.417969 147.195312 31.8125 C 146.773438 32.160156 146.152344 32.097656 145.808594 31.675781 C 145.464844 31.257812 145.527344 30.632812 145.945312 30.289062" fill-rule="evenodd"/></g><g id="change7_10"><path fill="#6c524e" d="M 155.203125 38.484375 C 155.203125 38.484375 154.761719 39.816406 154.554688 40.851562 C 154.484375 41.214844 154.425781 41.53125 154.472656 41.699219 C 154.484375 41.746094 154.539062 41.757812 154.589844 41.785156 C 154.675781 41.835938 154.777344 41.878906 154.882812 41.914062 C 155.355469 42.074219 155.898438 42.113281 155.898438 42.113281 C 156.171875 42.132812 156.375 42.367188 156.355469 42.640625 C 156.335938 42.910156 156.101562 43.113281 155.828125 43.09375 C 155.828125 43.09375 154.894531 43.019531 154.265625 42.730469 C 153.878906 42.546875 153.601562 42.269531 153.519531 41.953125 C 153.449219 41.695312 153.480469 41.210938 153.589844 40.660156 C 153.804688 39.570312 154.269531 38.175781 154.269531 38.175781 C 154.355469 37.914062 154.636719 37.777344 154.894531 37.863281 C 155.152344 37.949219 155.289062 38.226562 155.203125 38.484375" fill-rule="evenodd"/></g><g id="change3_4"><path fill="#9c5c57" d="M 176.804688 34.527344 C 176.804688 34.527344 176.109375 40.488281 174.484375 40.667969 C 173.382812 40.785156 172.03125 31.226562 172.03125 31.226562 C 155.800781 30.289062 158.09375 23.417969 150.335938 21.121094 C 149.449219 27.953125 147.101562 28.441406 147.40625 28.222656 C 147.40625 28.222656 142.25 17.949219 148.695312 10.816406 C 152.359375 6.761719 159.347656 8.09375 159.347656 8.09375 L 172.984375 14.695312 L 177.535156 29.769531 L 176.804688 34.527344" fill-rule="evenodd"/></g></g></svg>