<svg width="220.2" height="67.6" viewBox="-0.2 -1.4 220.2 67.6" xmlns="http://www.w3.org/2000/svg" xmlns:xlink="http://www.w3.org/1999/xlink" overflow="hidden"><g id="change1_1"><path d="M4.88 53.29C2.47 52.02 0.84 50.48 0.15 47.93-0.18 46.7 0.05 45.9 0.8 45.1 1.59 44.26 2.38 43.42 3.25 42.66 14.49 32.78 26.81 24.44 39.93 17.27 48.59 12.54 57.33 7.94 66.67 4.62 83.27-1.29 99.97-1.44 116.76 3.74 121.92 5.33 126.61 7.87 131.07 10.92 132.31 11.77 133.86 12.39 135.34 12.62 152.26 15.3 168.08 20.88 182.49 30.23 186.35 32.73 190.07 35.44 194.28 37.75 193.58 36.72 192.88 35.68 192.17 34.66 191.21 33.28 190.18 31.95 189.3 30.52 187.19 27.13 188.63 22.78 192.61 20.9 202.26 31.99 210.89 43.97 220.06 55.89 219.86 58.97 217.95 61.62 216.01 64.2 215.03 65.51 213.52 66.09 211.79 65.7 210.77 65.47 209.73 65.29 208.7 65.08 195.96 62.5 183.25 62.62 170.57 65.53 169.48 65.78 168.35 65.9 166.88 66.13 166.97 64.97 166.85 64.12 167.12 63.42 167.86 61.5 168.65 59.57 169.65 57.77 170.42 56.38 171.68 55.53 173.39 55.23 177.83 54.44 182.23 53.48 186.65 52.58 187.43 52.42 188.21 52.23 189.36 51.96 175.55 40.71 160.06 33.87 143.2 29.25 143.33 31.72 143.43 33.88 143.56 36.04 143.85 40.79 142.2 44.82 138.48 47.68 135.17 50.23 131.66 52.61 127.98 54.56 120.91 58.29 113.56 61.41 105.68 63.09 102.06 63.86 98.43 64.1 94.72 63.76 88.77 63.21 84.73 60.14 82.62 54.65 80.17 48.26 78.9 41.77 81.31 35 83.58 28.62 88.05 24.2 93.71 20.89 96.69 19.15 99.85 17.7 102.93 16.13 103.74 15.71 104.56 15.31 105.97 14.61 104.78 14.2 104.19 13.89 103.57 13.81 91.15 12.3 79.02 13.6 67.35 18.14 53.23 23.64 39.73 30.39 26.79 38.29 19.62 42.67 12.68 47.37 6.13 52.63 5.81 52.88 5.4 53.01 4.88 53.29ZM138.16 31.67C136.92 28.56 134.85 27.46 131.89 27.54 128.13 27.64 124.35 27.37 120.59 27.51 109.77 27.91 100.6 32.55 92.28 39.07 89.2 41.49 87.05 44.71 85.93 48.97 87.76 49.57 89.38 50.37 91.08 50.59 93.55 50.9 96.15 51.17 98.57 50.75 102.99 49.99 107.4 48.96 111.67 47.6 119.4 45.15 126.65 41.6 133.25 36.85 135.19 35.45 137.06 33.92 138.16 31.67Z" fill="#FF0000"/></g></svg>