<?xml version="1.0" encoding="UTF-8"?><svg xmlns="http://www.w3.org/2000/svg" xmlns:xlink="http://www.w3.org/1999/xlink" contentScriptType="text/ecmascript" fill="#000000" width="438.1" zoomAndPan="magnify" contentStyleType="text/css" viewBox="-1.2 -4.1 438.1 511.9" height="511.9" preserveAspectRatio="xMidYMid meet" version="1"><g id="change1_1"><path fill="#9e968c" d="M411.734,458.67c-0.065,1.795-0.789,3.806-2.058,5.826c-2.531,4.052-7.402,8.098-12.668,10.735 c-5.299,2.69-10.96,3.962-15.067,3.511c-2.071-0.205-3.771-0.814-5.009-1.726c-0.617-0.459-1.092-1.009-1.469-1.606l-0.881-1.586 l-3.732-6.168c-5.267-8.055-11.456-15.574-18.132-22.81c-3.282-3.65-6.704-7.22-9.861-10.943c-3.199-3.699-6.211-7.506-9.234-11.307 c-6.036-7.608-12.112-15.193-17.563-23.141c-10.724-16-44.479-66.632-51.7-75.327l-5.309-6.584l-0.741-0.975 c-27.501,13.19-60.558,20.227-97.625,21.464C78.06,340.789-1.211,253.188,0.014,163.161C1.432,58.926,79.886,8.213,180.712,0.116 c100.01-4.226,166.042,108.289,163.253,177.209c-2.119,52.34-20.887,91.193-51.98,117.6c2.781,3.394,5.649,6.737,8.562,10.054 c3.731,4.277,7.602,8.473,11.209,12.823c3.649,4.325,7.114,8.757,10.557,13.202c6.91,8.876,13.903,17.703,20.277,26.891 c6.254,9.258,12.391,18.583,18.02,28.204c5.7,9.579,30.061,43.438,36.384,50.879c3.122,3.743,6.201,7.512,9.078,11.398 c1.464,1.928,2.898,3.874,4.253,5.866c0.289,0.426,0.782,1.138,1.058,1.912C411.664,456.919,411.785,457.767,411.734,458.67z"/></g><g id="change2_1"><path fill="#8eddbe" d="M433.992,459.848c0.277,0.487,0.582,0.962,0.795,1.483c1.032,2.009,1.585,4.238,1.895,6.479 c0.178,1.126,0.169,2.264,0.178,3.404c-0.086,1.134-0.154,2.277-0.396,3.396c-0.441,2.235-1.148,4.454-2.28,6.466 c-1.12,2.01-2.511,3.889-4.19,5.488c-0.408,0.411-0.87,0.76-1.307,1.141l-0.664,0.555l-0.604,0.454l-2.422,1.809l-4.882,3.565 c-3.278,2.345-6.573,4.666-9.911,6.93l-2.501,1.701l-1.25,0.851l-0.625,0.425l-0.717,0.447c-1.903,1.238-4.04,2.083-6.208,2.639 c-1.082,0.303-2.197,0.443-3.301,0.573c-1.116,0.04-2.223,0.101-3.326-0.013c-2.197-0.171-4.366-0.636-6.357-1.509 c-1.999-0.837-3.84-1.984-5.446-3.366c-1.58-1.42-2.903-3.064-3.944-4.836c-4.225-4.824-8.302-9.757-12.32-14.732 c-2.015-2.483-4.018-4.976-5.986-7.494c-1.977-2.511-3.969-5.012-5.905-7.554l-5.841-7.601l-5.76-7.66 c-3.834-5.111-7.582-10.285-11.215-15.544c-7.267-10.517-14.098-21.352-21.522-31.753c-7.414-10.408-15.204-20.541-23.191-30.529 l-2.988-3.751l-1.494-1.875c-0.498-0.623-1.014-1.394-1.517-2.093c-1.884-2.961-3.024-6.423-3.299-9.974 c-0.258-3.556,0.429-7.173,1.868-10.469c1.495-3.276,3.819-6.184,6.673-8.407c5.11-3.915,10.189-7.736,15.299-11.588l3.83-2.879 l1.924-1.428l0.975-0.718l1.146-0.767c0.746-0.541,1.592-0.922,2.404-1.356c0.401-0.229,0.846-0.365,1.268-0.548 c0.43-0.166,0.852-0.353,1.29-0.496l1.328-0.385l0.665-0.188l0.679-0.129l1.359-0.249c0.456-0.062,0.917-0.084,1.375-0.125 c7.342-0.62,14.883,2.721,19.269,8.552c0.599,0.742,1.023,1.377,1.483,2.032l1.374,1.964l2.748,3.927l5.434,7.899 c7.203,10.563,31.899,44.133,36.969,50.41c2.515,3.153,4.985,6.339,7.405,9.562c2.439,3.209,4.791,6.481,7.028,9.839 c4.475,6.713,8.516,13.746,13.148,20.344c4.612,6.613,9.627,12.93,14.817,19.119l3.883,4.649l0.971,1.162l0.996,1.335 C433.443,458.873,433.708,459.365,433.992,459.848z"/></g><g id="change3_1"><path fill="#c6e0f9" d="M306.324,164.829c-0.001,55.366-34.863,101.824-84.069,118.848c-8.808,3.047-18.074,5.151-27.684,6.194 c-4.551,0.494-9.176,0.758-13.868,0.763C91.56,283.681,51.44,242.92,43.278,153.261C37.828,93.385,116.163,25.841,176.88,27.925 c8.604,0.295,17.093,1.549,25.361,3.654c13.154,3.35,25.746,8.862,37.344,16.126C278.577,72.126,306.325,116.35,306.324,164.829z"/></g><g id="change4_1"><path fill="#ffffff" d="M227.357,217.499c-2.925,26.814-4.385,49.304-5.102,66.177c-8.808,3.047-18.074,5.151-27.684,6.194 c5.835-41.971,19.935-73.587,22.817-106.562c2.394-27.381-8.719-108.397-15.147-151.729c13.154,3.35,25.746,8.862,37.344,16.126 C237.09,91.871,232.123,173.808,227.357,217.499z M99.484,90.711c-17.644,25.117-30.719,65.151-14.677,82.123 c10.885,11.516,21.526-18.272,36.789-42.141c19.556-30.582,72.372-59.231,46.254-74.436 C155.162,48.869,117.128,65.594,99.484,90.711z M113.262,210.894c-2.758-10.772-13.306-19.146-21.294-16.653 c-10.226,3.191-15.758,11.156-12.775,23.972c1.931,8.295,11.981,19.988,21.621,16.864 C110.409,231.47,116.456,223.366,113.262,210.894z"/></g></svg>