<?xml version="1.0" encoding="UTF-8"?><svg xmlns="http://www.w3.org/2000/svg" xmlns:xlink="http://www.w3.org/1999/xlink" contentScriptType="text/ecmascript" fill="#000000" width="2141.5" zoomAndPan="magnify" contentStyleType="text/css" viewBox="0.0 0.0 2141.5 2158.4" height="2158.4" preserveAspectRatio="xMidYMid meet" version="1"><defs><clipPath id="a"><path d="M 0 1312 L 1030 1312 L 1030 2158.371094 L 0 2158.371094 Z M 0 1312"/></clipPath><clipPath id="b"><path d="M 1111 1312 L 2141.46875 1312 L 2141.46875 2158.371094 L 1111 2158.371094 Z M 1111 1312"/></clipPath></defs><g><g id="change1_1"><path stroke-linecap="round" transform="matrix(.1 0 0 -.1 0 2158.37)" fill="#ffe97c" stroke-linejoin="round" d="M 15026.796875 3765.809375 L 15013.789062 6693.895313 C 14966.015625 7898.7 13876.914062 9115.184375 12332.109375 9101.2 C 12321.09375 9101.082813 12309.882812 9101.082813 12298.710938 9101.004688 L 9336.210938 9115.184375 C 9330.117188 9114.989063 9323.632812 9115.10625 9317.304688 9115.10625 L 9282.382812 9114.403125 C 7828.398438 9080.614063 6664.140625 8113.309375 6676.796875 6683.817188 L 6685.234375 4281.98125" stroke="#410096" stroke-width="311.209" stroke-miterlimit="10"/></g><g id="change1_2"><path stroke-linecap="round" transform="matrix(.1 0 0 -.1 0 2158.37)" fill="#ffe97c" stroke-linejoin="round" d="M 8590.507812 5725.10625 L 8588.554688 2381.317188 L 13303.984375 2387.29375 L 13303.984375 5725.10625" stroke="#410096" stroke-width="311.209" stroke-miterlimit="10"/></g><g id="change2_1"><path fill="#ffffff" d="M 376.925781 1239.839844 C 492.792969 1239.839844 586.722656 1146.671875 586.722656 1031.738281 C 586.722656 916.800781 492.792969 823.628906 376.925781 823.628906 C 261.058594 823.628906 167.128906 916.800781 167.128906 1031.738281 C 167.128906 1146.671875 261.058594 1239.839844 376.925781 1239.839844"/></g><path stroke-linecap="round" transform="matrix(.1 0 0 -.1 0 2158.37)" fill="none" stroke-linejoin="round" d="M 3769.257812 9185.301563 C 4927.929688 9185.301563 5867.226562 10116.98125 5867.226562 11266.317188 C 5867.226562 12415.692188 4927.929688 13347.410938 3769.257812 13347.410938 C 2610.585938 13347.410938 1671.289062 12415.692188 1671.289062 11266.317188 C 1671.289062 10116.98125 2610.585938 9185.301563 3769.257812 9185.301563 Z M 3769.257812 9185.301563" stroke="#410096" stroke-width="311.209" stroke-miterlimit="10"/><g id="change2_2"><path fill="#ffffff" d="M 375.246094 1765.691406 L 507.839844 1912.25 C 529.316406 1945.300781 908.871094 1923.609375 908.871094 1923.609375 C 972.019531 1915.078125 1020.421875 1892.421875 1013.648438 1829.558594 C 1006.660156 1764.589844 948.339844 1735.070312 880.972656 1735.210938 L 699.808594 1738.589844 C 699.808594 1738.589844 612.652344 1738.921875 591.578125 1682.210938 C 566.105469 1613.679688 540.222656 1472.261719 490.011719 1407.941406 L 489.523438 1407.308594 C 453.546875 1360.980469 397.085938 1332.789062 340.929688 1328.800781 C 149.503906 1315.21875 60.714844 1427.640625 48.855469 1575.871094 L 15.558594 2142.808594 L 842.859375 2142.808594"/></g><g id="change2_3"><path fill="#ffffff" d="M 375.246094 1765.691406 L 507.839844 1912.25 C 529.316406 1945.300781 908.871094 1923.609375 908.871094 1923.609375 C 972.019531 1915.078125 1020.421875 1892.421875 1013.648438 1829.558594 C 1006.660156 1764.589844 948.339844 1735.070312 880.972656 1735.210938 L 699.808594 1738.589844 C 699.808594 1738.589844 612.652344 1738.921875 591.578125 1682.210938 C 566.105469 1613.679688 540.222656 1472.261719 490.011719 1407.941406 L 489.523438 1407.308594 C 453.546875 1360.980469 397.085938 1332.789062 340.929688 1328.800781 C 149.503906 1315.21875 60.714844 1427.640625 48.855469 1575.871094 L 15.558594 2142.808594"/></g><g clip-path="url(#a)"><path stroke-linecap="round" transform="matrix(.1 0 0 -.1 0 2158.37)" fill="none" stroke-linejoin="round" d="M 3752.460938 3926.785938 L 5078.398438 2461.2 C 5293.164062 2130.692188 9088.710938 2347.60625 9088.710938 2347.60625 C 9720.195312 2432.91875 10204.21875 2659.48125 10136.484375 3288.114063 C 10066.601562 3937.801563 9483.398438 4232.996875 8809.726562 4231.590625 L 6998.085938 4197.801563 C 6998.085938 4197.801563 6126.523438 4194.48125 5915.78125 4761.590625 C 5661.054688 5446.903125 5402.226562 6861.082813 4900.117188 7504.285938 L 4895.234375 7510.614063 C 4535.46875 7973.895313 3970.859375 8255.809375 3409.296875 8295.692188 C 1495.039062 8431.5125 607.148438 7307.29375 488.554688 5824.989063 L 155.585938 155.614063" stroke="#410096" stroke-width="311.209" stroke-miterlimit="10"/></g><g id="change2_4"><path fill="#ffffff" d="M 1764.535156 1239.839844 C 1648.667969 1239.839844 1554.734375 1146.671875 1554.734375 1031.742188 C 1554.734375 916.800781 1648.667969 823.632812 1764.535156 823.632812 C 1880.40625 823.632812 1974.335938 916.800781 1974.335938 1031.742188 C 1974.335938 1146.671875 1880.40625 1239.839844 1764.535156 1239.839844"/></g><path stroke-linecap="round" transform="matrix(.12112 0 0 -.12112 0 2158.37)" fill="none" stroke-linejoin="round" d="M 14567.885707 7583.324303 C 13611.29386 7583.324303 12835.784314 8352.5129 12835.784314 9301.364809 C 12835.784314 10250.313467 13611.29386 11019.502064 14567.885707 11019.502064 C 15524.509804 11019.502064 16299.9871 10250.313467 16299.9871 9301.364809 C 16299.9871 8352.5129 15524.509804 7583.324303 14567.885707 7583.324303 Z M 14567.885707 7583.324303" stroke="#410096" stroke-width="256.932" stroke-miterlimit="10"/><g id="change2_5"><path fill="#ffffff" d="M 1766.214844 1765.6875 L 1633.625 1912.25 C 1612.144531 1945.300781 1232.589844 1923.609375 1232.589844 1923.609375 C 1169.449219 1915.078125 1121.050781 1892.417969 1127.820312 1829.558594 C 1134.808594 1764.589844 1193.128906 1735.070312 1260.492188 1735.210938 L 1441.65625 1738.589844 C 1441.65625 1738.589844 1528.816406 1738.917969 1549.894531 1682.210938 C 1575.367188 1613.679688 1601.242188 1472.257812 1651.453125 1407.9375 L 1651.9375 1407.308594 C 1687.921875 1360.980469 1744.382812 1332.789062 1800.542969 1328.800781 C 1991.964844 1315.21875 2080.746094 1427.640625 2092.613281 1575.871094 L 2125.910156 2142.808594 L 1298.609375 2142.808594"/></g><g id="change2_6"><path fill="#ffffff" d="M 1766.214844 1765.6875 L 1633.625 1912.25 C 1612.144531 1945.300781 1232.589844 1923.609375 1232.589844 1923.609375 C 1169.449219 1915.078125 1121.050781 1892.417969 1127.820312 1829.558594 C 1134.808594 1764.589844 1193.128906 1735.070312 1260.492188 1735.210938 L 1441.65625 1738.589844 C 1441.65625 1738.589844 1528.816406 1738.917969 1549.894531 1682.210938 C 1575.367188 1613.679688 1601.242188 1472.257812 1651.453125 1407.9375 L 1651.9375 1407.308594 C 1687.921875 1360.980469 1744.382812 1332.789062 1800.542969 1328.800781 C 1991.964844 1315.21875 2080.746094 1427.640625 2092.613281 1575.871094 L 2125.910156 2142.808594"/></g><g clip-path="url(#b)"><path stroke-linecap="round" transform="matrix(.13042 0 0 -.13042 0 2158.37)" fill="none" stroke-linejoin="round" d="M 13542.099949 3010.814727 L 12525.493774 1887.075998 C 12360.796565 1633.665727 9450.636721 1799.980257 9450.636721 1799.980257 C 8966.518576 1865.391914 8595.433212 2039.134141 8647.337242 2521.095859 C 8700.918495 3019.230788 9148.077856 3245.565904 9664.572375 3244.48769 L 11053.611682 3218.580601 C 11053.611682 3218.580601 11721.894791 3216.064768 11883.50711 3650.854616 C 12078.813619 4176.304304 12277.20502 5260.628316 12662.187366 5753.79148 L 12665.901215 5758.613493 C 12941.804231 6113.825149 13374.707205 6329.977132 13805.303999 6360.556483 C 15272.993036 6464.693998 15953.705558 5602.7217 16044.694851 4466.194153 L 16299.991997 119.313978" stroke="#410096" stroke-width="238.613" stroke-miterlimit="10"/></g><g id="change3_1"><path stroke-linecap="round" transform="matrix(.11086 0 0 -.11086 0 2158.37)" fill="#ffb066" stroke-linejoin="round" d="M 16300.007724 187.337635 L 16213.11682 2270.147132 L 3102.315343 2338.89172 L 3040.406455 187.337635" stroke="#410096" stroke-width="280.721" stroke-miterlimit="10"/></g><g id="change2_7"><path fill="#ffffff" d="M 1085.179688 1175.28125 C 1195.160156 1175.28125 1284.308594 1085.730469 1284.308594 975.261719 C 1284.308594 864.789062 1195.160156 775.238281 1085.179688 775.238281 C 975.191406 775.238281 886.035156 864.789062 886.035156 975.261719 C 886.035156 1085.730469 975.191406 1175.28125 1085.179688 1175.28125"/></g><path stroke-linecap="round" transform="matrix(.1 0 0 -.1 0 2158.37)" fill="none" stroke-linejoin="round" d="M 10851.796875 9830.8875 C 11951.601562 9830.8875 12843.085938 10726.395313 12843.085938 11831.082813 C 12843.085938 12935.809375 11951.601562 13831.317188 10851.796875 13831.317188 C 9751.914062 13831.317188 8860.351562 12935.809375 8860.351562 11831.082813 C 8860.351562 10726.395313 9751.914062 9830.8875 10851.796875 9830.8875 Z M 10851.796875 9830.8875" stroke="#410096" stroke-width="311.209" stroke-miterlimit="10"/><g id="change1_3"><path stroke-linecap="round" transform="matrix(.11234 0 0 -.11234 0 2158.37)" fill="#ffe97c" stroke-linejoin="round" d="M 8734.914791 15021.915696 L 8734.914791 12999.995549 C 8734.914791 12306.584973 9297.133004 11744.401532 9990.543579 11744.401532 L 13661.913004 11744.401532 C 13697.797053 11744.401532 13733.298618 11746.800756 13768.382926 11749.791094 L 14977.105142 10292.90564 L 14916.915908 12987.686486 C 14916.985451 12991.893821 14917.507021 12995.892528 14917.507021 12999.995549 L 14917.507021 15044.41277 C 14917.507021 15737.788575 14355.393122 16300.006787 13661.913004 16300.006787 L 11215.886508 16300.006787" stroke="#410096" stroke-width="277.021" stroke-miterlimit="10"/></g><g id="change4_1"><path fill="#6c9bf8" d="M 563.789062 695.433594 L 565.527344 387.65625 C 565.523438 387.195312 565.453125 386.75 565.453125 386.277344 L 565.453125 156.613281 C 565.453125 78.710938 628.609375 15.554688 706.511719 15.554688 L 1118.960938 15.554688 C 1196.863281 15.554688 1260.011719 78.710938 1260.011719 156.613281 L 1260.011719 386.277344 C 1260.011719 464.179688 1196.863281 527.332031 1118.960938 527.332031 L 706.511719 527.332031 C 702.472656 527.332031 698.5 527.070312 694.542969 526.730469 L 563.789062 695.433594"/></g><path stroke-linecap="round" transform="matrix(.13146 0 0 -.13146 0 2158.37)" fill="none" stroke-linejoin="round" d="M 4288.641213 11128.292089 L 4301.864003 13469.498559 C 4301.834289 13473.004827 4301.299435 13476.392238 4301.299435 13479.987648 L 4301.299435 15227.000546 C 4301.299435 15819.589555 4781.717582 16300.007702 5374.306591 16300.007702 L 8511.733042 16300.007702 C 9104.322052 16300.007702 9584.68077 15819.589555 9584.68077 15227.000546 L 9584.68077 13479.987648 C 9584.68077 12887.398639 9104.322052 12407.010206 8511.733042 12407.010206 L 5374.306591 12407.010206 C 5343.582175 12407.010206 5313.362899 12409.001054 5283.262479 12411.586183 Z M 4288.641213 11128.292089" stroke="#410096" stroke-width="236.732" stroke-miterlimit="10"/></g></svg>