<?xml version="1.0" encoding="UTF-8" standalone="no"?><svg xmlns="http://www.w3.org/2000/svg" xmlns:xlink="http://www.w3.org/1999/xlink" contentScriptType="text/ecmascript" fill="#000000" width="467.3" zoomAndPan="magnify" contentStyleType="text/css" viewBox="-6.9 -0.9 467.3 431.8" height="431.8" preserveAspectRatio="xMidYMid meet" version="1"><defs><clipPath id="a"><path d="M 42 358 L 115 358 L 115 430.839844 L 42 430.839844 Z M 42 358"/></clipPath><clipPath id="b"><path d="M 42 378 L 115 378 L 115 430.839844 L 42 430.839844 Z M 42 378"/></clipPath><clipPath id="c"><path d="M 421 258 L 460.441406 258 L 460.441406 310 L 421 310 Z M 421 258"/></clipPath></defs><g><g><path fill="#b36544" d="M 82.019531 269.105469 C 85.351562 268.207031 90.464844 293.828125 113.671875 311.941406 C 121.222656 317.914062 129.035156 322.359375 136.101562 325.757812 L 135.214844 340.601562 C 126.378906 337.914062 116.21875 333.234375 106.285156 325.507812 C 93.171875 315.167969 85.855469 296.578125 82.929688 286.363281 C 80.011719 276 80.613281 269.347656 82.019531 269.105469"/></g><g><path fill="#c63f52" d="M 117.652344 77.207031 C 117.652344 77.207031 79.800781 70.207031 80.8125 116.878906 C 81.285156 141.890625 11.386719 150.136719 2.261719 124.953125 C -6.859375 99.761719 8.589844 -0.921875 104.75 0.0078125 C 200.910156 0.9375 240.0625 64.222656 228.46875 115.929688 C 216.867188 167.640625 170.960938 203.289062 139.589844 233.449219 C 108.222656 263.609375 100.824219 297.121094 104.394531 311.621094 C 104.574219 326.535156 38.5 336.292969 30.078125 324.589844 C 21.652344 312.882812 10.621094 232.683594 116.027344 159.886719 C 164.785156 126.222656 145.460938 81.597656 117.652344 77.207031"/></g><g><path fill="#d94f59" d="M 200.6875 45.769531 C 181.855469 25.101562 151.792969 10.261719 109.714844 8.851562 C 71.265625 7.5625 46.21875 25.234375 30.761719 47.847656 C 79.222656 11.742188 148.019531 13.769531 200.6875 45.769531"/></g><g><path fill="#aa2442" d="M 146.019531 71.152344 C 130.019531 56.152344 111.6875 54.484375 90.6875 64.484375 C 77.6875 70.484375 65.519531 88.652344 66.769531 115.402344 C 67.480469 130.59375 55.269531 133.402344 33.960938 140.1875 C 56.023438 140.859375 81.09375 131.890625 80.8125 116.878906 C 79.800781 70.207031 117.652344 77.207031 117.652344 77.207031 C 145.460938 81.597656 164.785156 126.222656 116.027344 159.886719 C 103.429688 168.589844 92.511719 177.394531 83.035156 186.175781 C 97.101562 180.867188 111.316406 170.085938 126.019531 164.484375 C 166.019531 149.484375 177.019531 99.152344 146.019531 71.152344"/></g><g><path fill="#aa2442" d="M 90.019531 294.152344 C 83.019531 313.152344 53.4375 324.734375 40.4375 305.734375 C 38.890625 303.570312 37.941406 300.90625 38.8125 296.519531 C 44.992188 289.292969 49.265625 279.9375 51.019531 271.152344 C 53.824219 258.0625 50.507812 244.972656 44.34375 233.515625 C 37.609375 245.105469 33.023438 256.175781 30.011719 266.371094 C 30 266.398438 29.996094 266.425781 29.984375 266.453125 C 29.726562 267.335938 29.476562 268.210938 29.242188 269.078125 C 29.226562 269.132812 29.210938 269.183594 29.199219 269.238281 C 28.957031 270.128906 28.726562 271.011719 28.507812 271.886719 C 28.503906 271.894531 28.503906 271.90625 28.5 271.914062 C 27.375 276.4375 26.558594 280.765625 26 284.859375 C 26 284.875 25.996094 284.894531 25.996094 284.910156 C 25.886719 285.695312 25.789062 286.472656 25.703125 287.238281 C 25.695312 287.289062 25.691406 287.339844 25.683594 287.386719 C 25.601562 288.132812 25.523438 288.871094 25.457031 289.601562 C 25.453125 289.648438 25.445312 289.695312 25.441406 289.742188 C 25.15625 292.835938 25.019531 295.777344 25 298.542969 C 25 298.601562 25 298.65625 25 298.714844 C 25 299.3125 25 299.902344 25.011719 300.484375 C 25.011719 300.644531 25.015625 300.800781 25.019531 300.953125 C 25.027344 301.429688 25.039062 301.902344 25.054688 302.363281 C 25.0625 302.566406 25.070312 302.769531 25.082031 302.96875 C 25.097656 303.371094 25.117188 303.773438 25.140625 304.167969 C 25.152344 304.398438 25.164062 304.628906 25.179688 304.855469 C 25.203125 305.207031 25.226562 305.550781 25.253906 305.894531 C 25.273438 306.144531 25.289062 306.398438 25.3125 306.648438 C 25.316406 306.707031 25.320312 306.769531 25.328125 306.828125 C 26.109375 315.699219 28.15625 321.925781 30.078125 324.589844 C 38.5 336.292969 104.574219 326.535156 104.394531 311.621094 C 100.824219 297.121094 108.222656 263.609375 139.589844 233.449219 C 146.839844 226.480469 154.867188 219.210938 163.070312 211.523438 C 130.269531 229.175781 104.148438 257.410156 90.019531 294.152344"/></g><g clip-path="url(#a)"><path fill="#c63f52" d="M 114.691406 395.488281 C 114.300781 415.402344 97.84375 431.226562 77.929688 430.832031 C 58.015625 430.441406 42.191406 413.984375 42.585938 394.070312 C 42.976562 374.164062 59.433594 358.339844 79.347656 358.730469 C 99.261719 359.121094 115.085938 375.582031 114.691406 395.488281"/></g><g><path fill="#d94f59" d="M 78.804688 362.730469 C 63.769531 362.382812 51.054688 374.800781 48.140625 391.507812 C 54.984375 380.152344 64.28125 374.605469 73.417969 372.152344 C 87.269531 369.152344 93.820312 372.652344 103.269531 377.976562 C 97.832031 368.949219 88.941406 362.964844 78.804688 362.730469"/></g><g clip-path="url(#b)"><path fill="#aa2442" d="M 110.957031 378.792969 C 107.410156 394.664062 94.597656 409.183594 79.019531 412.152344 C 64.453125 414.800781 51.640625 407.359375 42.613281 396.222656 C 43.351562 415.15625 58.738281 430.457031 77.929688 430.832031 C 97.84375 431.226562 114.300781 415.402344 114.691406 395.488281 C 114.8125 389.496094 113.449219 383.816406 110.957031 378.792969"/></g><g><path fill="#b36544" d="M 438.914062 290.460938 C 435.710938 289.171875 427.582031 314 402.382812 329.214844 C 394.171875 334.246094 385.882812 337.726562 378.460938 340.257812 L 377.570312 355.101562 C 386.664062 353.488281 397.3125 350.054688 408.09375 343.566406 C 422.34375 334.863281 431.828125 317.277344 435.953125 307.488281 C 440.085938 297.546875 440.277344 290.867188 438.914062 290.460938"/></g><g clip-path="url(#c)"><path fill="#e7a45d" d="M 458.417969 290.398438 C 453.636719 304.007812 441.90625 312.277344 432.214844 308.875 C 422.527344 305.472656 418.546875 291.683594 423.324219 278.074219 C 428.105469 264.46875 439.835938 256.195312 449.527344 259.601562 C 459.214844 263.003906 463.195312 276.792969 458.417969 290.398438"/></g><g><path fill="#e7a45d" d="M 376.667969 412.152344 C 376.277344 418.644531 370.691406 423.597656 364.191406 423.207031 L 143.253906 409.988281 C 136.757812 409.601562 131.808594 404.019531 132.199219 397.523438 L 139.429688 276.671875 C 139.816406 270.171875 145.398438 265.222656 151.894531 265.609375 L 372.832031 278.832031 C 379.328125 279.21875 384.285156 284.800781 383.898438 291.300781 L 376.667969 412.152344"/></g><g><path fill="#edb468" d="M 279.773438 406.355469 C 279.386719 412.847656 277.980469 418.050781 276.632812 417.96875 L 230.824219 415.226562 C 229.480469 415.148438 228.699219 409.816406 229.089844 403.320312 L 236.320312 282.472656 C 236.710938 275.96875 238.117188 270.769531 239.464844 270.851562 L 285.269531 273.59375 C 286.617188 273.671875 287.394531 279 287.007812 285.503906 L 279.773438 406.355469"/></g><g><path fill="#d79650" d="M 151.894531 265.609375 C 145.398438 265.222656 139.816406 270.171875 139.429688 276.671875 L 132.199219 397.523438 C 131.808594 404.019531 136.757812 409.601562 143.253906 409.988281 L 149.921875 410.386719 L 158.5625 266.011719 L 151.894531 265.609375"/></g><g><path fill="#d79650" d="M 372.832031 278.832031 L 362.355469 278.203125 L 353.714844 422.582031 L 364.191406 423.207031 C 370.691406 423.597656 376.277344 418.644531 376.667969 412.152344 L 383.898438 291.300781 C 384.285156 284.800781 379.328125 279.21875 372.832031 278.832031"/></g><g><path fill="#d79650" d="M 363.011719 333.335938 L 359.304688 329.15625 L 358.835938 337.039062 Z M 363.011719 333.335938"/></g><g><path fill="#d79650" d="M 360.445312 376.25 L 356.738281 372.074219 L 356.265625 379.957031 Z M 360.445312 376.25"/></g><g><path fill="#d79650" d="M 366.722656 423.082031 C 366.570312 423.109375 366.414062 423.121094 366.257812 423.140625 C 366.414062 423.121094 366.570312 423.109375 366.722656 423.082031"/></g><g><path fill="#d79650" d="M 365.628906 423.199219 C 365.503906 423.207031 365.375 423.214844 365.246094 423.21875 C 365.375 423.214844 365.503906 423.207031 365.628906 423.199219"/></g><g><path fill="#d79650" d="M 377.316406 280.011719 C 377.390625 280.046875 377.460938 280.089844 377.53125 280.125 C 377.460938 280.089844 377.390625 280.046875 377.316406 280.011719"/></g><g><path fill="#d79650" d="M 380.625 346.027344 L 382.011719 322.835938 L 369.722656 333.734375 Z M 380.625 346.027344"/></g><g><path fill="#d79650" d="M 372.832031 278.832031 L 362.355469 278.203125 L 361.402344 294.125 L 377.316406 280.011719 C 375.953125 279.34375 374.441406 278.929688 372.832031 278.832031"/></g><g><path fill="#d79650" d="M 378.105469 280.445312 C 378.246094 280.53125 378.394531 280.617188 378.535156 280.710938 L 380.804688 283.265625 L 361 300.835938 L 359.707031 322.449219 L 366.566406 330.183594 L 382.414062 316.125 L 383.898438 291.300781 C 384.171875 286.726562 381.796875 282.621094 378.105469 280.445312"/></g><g><path fill="#d79650" d="M 378.054688 388.945312 L 379.441406 365.75 L 367.152344 376.652344 Z M 378.054688 388.945312"/></g><g><path fill="#d79650" d="M 355.863281 386.664062 L 354.570312 408.28125 L 361.433594 416.011719 L 377.277344 401.957031 L 377.652344 395.652344 L 363.597656 379.808594 L 355.863281 386.664062"/></g><g><path fill="#d79650" d="M 360.714844 423 L 361.308594 423.035156 L 361.03125 422.722656 Z M 360.714844 423"/></g><g><path fill="#d79650" d="M 354.171875 414.988281 L 353.714844 422.582031 L 354.007812 422.597656 L 357.875 419.167969 L 354.171875 414.988281"/></g><g><path fill="#d79650" d="M 367.558594 422.921875 C 372.519531 421.773438 376.347656 417.488281 376.667969 412.152344 L 376.875 408.664062 L 364.585938 419.570312 L 367.558594 422.921875"/></g><g><path fill="#d79650" d="M 358.433594 343.75 L 357.140625 365.367188 L 364 373.097656 L 379.847656 359.039062 L 380.222656 352.734375 L 366.164062 336.890625 L 358.433594 343.75"/></g><g><path fill="#f3be68" d="M 365.246094 423.21875 C 364.898438 423.226562 364.546875 423.230469 364.191406 423.207031 C 364.546875 423.230469 364.898438 423.230469 365.246094 423.21875"/></g><g><path fill="#f3be68" d="M 366.257812 423.140625 C 366.050781 423.164062 365.84375 423.1875 365.628906 423.199219 C 365.84375 423.183594 366.050781 423.167969 366.257812 423.140625"/></g><g><path fill="#f3be68" d="M 344.410156 396.824219 L 355.863281 386.664062 L 356.265625 379.957031 L 341.257812 393.273438 L 324.238281 374.085938 L 343.425781 357.066406 L 356.738281 372.074219 L 357.140625 365.367188 L 346.980469 353.910156 L 358.433594 343.75 L 358.835938 337.039062 L 343.824219 350.355469 L 326.804688 331.167969 L 345.992188 314.148438 L 359.304688 329.15625 L 359.707031 322.449219 L 349.546875 310.992188 L 361 300.835938 L 361.402344 294.125 L 346.394531 307.4375 L 329.371094 288.253906 L 337.890625 280.699219 L 334.734375 277.144531 L 326.222656 284.695312 L 318.664062 276.183594 L 315.113281 279.335938 L 322.664062 287.851562 L 303.480469 304.871094 L 286.457031 285.6875 L 294.972656 278.132812 L 291.820312 274.574219 L 283.304688 282.128906 L 275.75 273.613281 L 272.195312 276.769531 L 279.75 285.28125 L 260.5625 302.304688 L 243.542969 283.117188 L 252.058594 275.5625 L 248.90625 272.007812 L 240.386719 279.5625 L 232.835938 271.046875 L 229.28125 274.199219 L 236.832031 282.714844 L 217.644531 299.734375 L 200.628906 280.550781 L 209.140625 272.996094 L 205.988281 269.441406 L 197.472656 276.992188 L 189.921875 268.480469 L 186.363281 271.632812 L 193.917969 280.148438 L 174.730469 297.167969 L 147.304688 266.246094 C 146.855469 266.40625 146.421875 266.59375 146.003906 266.800781 L 143.449219 269.066406 L 171.175781 300.320312 L 151.988281 317.34375 L 137.941406 301.507812 L 137.539062 308.214844 L 148.433594 320.496094 L 136.15625 331.390625 L 135.753906 338.097656 L 151.589844 324.050781 L 168.609375 343.238281 L 149.421875 360.257812 L 135.375 344.421875 L 134.972656 351.132812 L 145.867188 363.410156 L 133.589844 374.304688 L 133.1875 381.015625 L 149.019531 366.96875 L 166.039062 386.152344 L 146.855469 403.175781 L 132.808594 387.339844 L 132.40625 394.046875 L 143.300781 406.328125 L 139.945312 409.300781 C 140.988281 409.679688 142.09375 409.917969 143.253906 409.988281 L 146.136719 410.160156 L 146.453125 409.882812 L 146.730469 410.195312 L 153.4375 410.597656 L 150.007812 406.726562 L 169.195312 389.707031 L 186.214844 408.894531 L 182.347656 412.328125 L 189.054688 412.730469 L 189.367188 412.449219 L 189.644531 412.765625 L 196.355469 413.164062 L 192.921875 409.296875 L 212.109375 392.277344 L 229.128906 411.464844 L 225.261719 414.894531 L 231.96875 415.296875 L 232.285156 415.019531 L 232.5625 415.332031 L 239.269531 415.734375 L 235.839844 411.863281 L 255.027344 394.84375 L 272.046875 414.03125 L 268.179688 417.464844 L 274.886719 417.863281 L 275.199219 417.585938 L 275.476562 417.898438 L 282.1875 418.300781 L 278.753906 414.433594 L 297.941406 397.414062 L 314.964844 416.597656 L 311.09375 420.03125 L 317.800781 420.433594 L 318.113281 420.15625 L 318.390625 420.46875 L 325.101562 420.867188 L 321.671875 417 L 340.855469 399.980469 L 354.171875 414.988281 L 354.570312 408.28125 Z M 340.269531 353.507812 L 321.085938 370.53125 L 304.0625 351.339844 L 323.25 334.320312 Z M 325.816406 291.40625 L 342.839844 310.59375 L 323.652344 327.613281 L 306.632812 308.425781 Z M 320.097656 330.769531 L 300.910156 347.789062 L 283.890625 328.601562 L 303.078125 311.582031 Z M 297.355469 350.941406 L 278.167969 367.960938 L 261.148438 348.773438 L 280.335938 331.753906 Z M 282.902344 288.839844 L 299.921875 308.023438 L 280.734375 325.046875 L 263.714844 305.859375 Z M 277.183594 328.199219 L 257.996094 345.21875 L 240.976562 326.03125 L 260.160156 309.015625 Z M 254.4375 348.371094 L 235.253906 365.394531 L 218.230469 346.207031 L 237.417969 329.1875 Z M 239.984375 286.273438 L 257.007812 305.457031 L 237.820312 322.476562 L 220.800781 303.289062 Z M 234.265625 325.632812 L 215.078125 342.652344 L 198.058594 323.464844 L 217.246094 306.445312 Z M 211.523438 345.804688 L 192.339844 362.824219 L 175.316406 343.636719 L 194.503906 326.617188 Z M 197.070312 283.703125 L 214.089844 302.890625 L 194.90625 319.910156 L 177.886719 300.722656 Z M 155.144531 320.898438 L 174.328125 303.878906 L 191.351562 323.0625 L 172.164062 340.085938 Z M 152.574219 363.8125 L 171.761719 346.792969 L 188.78125 365.980469 L 169.59375 383 Z M 189.769531 405.742188 L 172.75 386.554688 L 191.9375 369.535156 L 208.953125 388.722656 Z M 195.492188 366.378906 L 214.675781 349.359375 L 231.699219 368.546875 L 212.511719 385.570312 Z M 232.6875 408.308594 L 215.664062 389.121094 L 234.851562 372.101562 L 251.871094 391.289062 Z M 238.40625 368.949219 L 257.59375 351.929688 L 274.613281 371.117188 L 255.429688 388.136719 Z M 275.601562 410.878906 L 258.578125 391.691406 L 277.765625 374.671875 L 294.785156 393.855469 Z M 281.320312 371.515625 L 300.511719 354.496094 L 317.53125 373.683594 L 298.34375 390.703125 Z M 318.515625 413.445312 L 301.492188 394.257812 L 320.683594 377.238281 L 337.703125 396.421875 L 318.515625 413.445312"/></g><g><path fill="#f5cb79" d="M 279.714844 407.230469 L 275.601562 410.878906 L 258.578125 391.691406 L 277.765625 374.671875 L 281.421875 378.792969 L 281.824219 372.082031 L 281.320312 371.515625 L 281.890625 371.011719 L 282.289062 364.304688 L 278.167969 367.960938 L 261.148438 348.773438 L 280.335938 331.753906 L 283.992188 335.878906 L 284.390625 329.167969 L 283.890625 328.601562 L 284.457031 328.097656 L 284.859375 321.390625 L 280.734375 325.046875 L 263.714844 305.859375 L 282.902344 288.839844 L 286.558594 292.960938 L 286.960938 286.253906 L 286.457031 285.6875 L 287.023438 285.183594 C 287.148438 282.855469 287.125 280.6875 286.980469 278.867188 L 283.304688 282.128906 L 275.75 273.613281 L 272.195312 276.769531 L 279.75 285.28125 L 260.5625 302.304688 L 243.542969 283.117188 L 252.058594 275.5625 L 248.90625 272.007812 L 240.386719 279.5625 L 237.136719 275.894531 C 236.773438 277.683594 236.492188 279.835938 236.34375 282.160156 L 236.832031 282.714844 L 236.277344 283.210938 L 235.875 289.917969 L 239.984375 286.273438 L 257.007812 305.457031 L 237.820312 322.476562 L 234.175781 318.363281 L 233.773438 325.074219 L 234.265625 325.632812 L 233.710938 326.125 L 233.308594 332.832031 L 237.417969 329.1875 L 254.4375 348.371094 L 235.253906 365.394531 L 231.605469 361.28125 L 231.203125 367.988281 L 231.699219 368.546875 L 231.140625 369.039062 L 230.738281 375.75 L 234.851562 372.101562 L 251.871094 391.289062 L 232.6875 408.308594 L 229.046875 404.207031 C 228.777344 410.292969 229.542969 415.152344 230.824219 415.226562 L 231.96875 415.296875 L 232.285156 415.019531 L 232.5625 415.332031 L 239.269531 415.734375 L 235.839844 411.863281 L 255.027344 394.84375 L 272.046875 414.03125 L 268.179688 417.464844 L 274.886719 417.863281 L 275.199219 417.585938 L 275.476562 417.898438 L 276.632812 417.96875 C 277.917969 418.046875 279.257812 413.308594 279.714844 407.230469 Z M 240.976562 326.03125 L 260.160156 309.015625 L 277.183594 328.199219 L 257.996094 345.21875 Z M 238.40625 368.949219 L 257.59375 351.929688 L 274.613281 371.117188 L 255.429688 388.136719 L 238.40625 368.949219"/></g><g><path fill="#f3be68" d="M 367.558594 422.921875 C 367.285156 422.984375 367.003906 423.039062 366.722656 423.082031 C 367.003906 423.039062 367.285156 422.984375 367.558594 422.921875"/></g><g><path fill="#f3be68" d="M 377.53125 280.125 C 377.726562 280.230469 377.917969 280.335938 378.105469 280.445312 C 377.917969 280.332031 377.726562 280.226562 377.53125 280.125"/></g><g><path fill="#ebb155" d="M 359.707031 322.449219 L 359.304688 329.15625 L 363.011719 333.335938 L 358.835938 337.039062 L 358.433594 343.75 L 366.164062 336.890625 L 380.222656 352.734375 L 380.625 346.027344 L 369.722656 333.734375 L 382.011719 322.835938 L 382.414062 316.125 L 366.566406 330.183594 L 359.707031 322.449219"/></g><g><path fill="#ebb155" d="M 357.140625 365.367188 L 356.738281 372.074219 L 360.445312 376.25 L 356.265625 379.957031 L 355.863281 386.664062 L 363.597656 379.808594 L 377.652344 395.652344 L 378.054688 388.945312 L 367.152344 376.652344 L 379.441406 365.75 L 379.847656 359.039062 L 364 373.097656 L 357.140625 365.367188"/></g><g><path fill="#f3be68" d="M 380.804688 283.265625 L 378.535156 280.710938 C 378.394531 280.617188 378.246094 280.53125 378.105469 280.445312 C 377.917969 280.335938 377.726562 280.230469 377.53125 280.125 C 377.460938 280.089844 377.390625 280.046875 377.316406 280.011719 L 361.402344 294.125 L 361 300.835938 L 380.804688 283.265625"/></g><g><path fill="#f3be68" d="M 354.570312 408.28125 L 354.171875 414.988281 L 357.875 419.167969 L 354.007812 422.597656 L 360.714844 423 L 361.03125 422.722656 L 361.308594 423.035156 L 364.191406 423.207031 C 364.546875 423.230469 364.898438 423.226562 365.246094 423.21875 C 365.375 423.214844 365.503906 423.207031 365.628906 423.199219 C 365.84375 423.1875 366.050781 423.164062 366.257812 423.140625 C 366.414062 423.121094 366.570312 423.109375 366.722656 423.082031 C 367.003906 423.039062 367.285156 422.984375 367.558594 422.921875 L 364.585938 419.570312 L 376.875 408.664062 L 377.277344 401.957031 L 361.433594 416.011719 L 354.570312 408.28125"/></g><g><path fill="#ebb155" d="M 152.300781 370.664062 L 152.699219 363.953125 L 152.574219 363.8125 L 152.714844 363.6875 L 153.117188 356.980469 L 149.421875 360.257812 L 135.375 344.421875 L 134.972656 351.132812 L 145.867188 363.410156 L 133.589844 374.304688 L 133.1875 381.015625 L 149.019531 366.96875 L 152.300781 370.664062"/></g><g><path fill="#ebb155" d="M 154.867188 327.746094 L 155.269531 321.039062 L 155.144531 320.898438 L 155.285156 320.773438 L 155.6875 314.0625 L 151.988281 317.34375 L 137.941406 301.507812 L 137.539062 308.214844 L 148.433594 320.496094 L 136.15625 331.390625 L 135.753906 338.097656 L 151.589844 324.050781 L 154.867188 327.746094"/></g><g><path fill="#ebb155" d="M 146.855469 403.175781 L 132.808594 387.339844 L 132.40625 394.046875 L 143.300781 406.328125 L 139.949219 409.300781 C 140.214844 409.398438 140.484375 409.488281 140.761719 409.5625 C 140.90625 409.605469 141.058594 409.636719 141.203125 409.675781 C 141.414062 409.722656 141.621094 409.769531 141.828125 409.808594 C 141.953125 409.832031 142.082031 409.851562 142.207031 409.871094 C 142.550781 409.921875 142.898438 409.96875 143.253906 409.988281 L 146.136719 410.160156 L 146.453125 409.882812 L 146.730469 410.195312 L 149.921875 410.386719 L 150.132812 406.871094 L 150.007812 406.726562 L 150.148438 406.605469 L 150.550781 399.894531 L 146.855469 403.175781"/></g><g><path fill="#e7a45d" d="M 376.152344 208.84375 C 376.101562 205.964844 373.121094 202.871094 370.253906 202.699219 C 301.785156 198.605469 233.320312 194.507812 164.859375 190.410156 C 161.089844 190.183594 157.390625 192.214844 156.832031 196.273438 C 153.273438 222.136719 149.714844 248.003906 146.152344 273.859375 C 144.917969 282.84375 158.8125 284.992188 160.046875 276.019531 C 163.320312 252.257812 166.589844 228.492188 169.855469 204.730469 C 234 208.570312 298.148438 212.40625 362.296875 216.246094 C 362.722656 240.152344 363.15625 264.066406 363.582031 287.972656 C 363.746094 297.035156 377.714844 295.34375 377.546875 286.363281 C 377.082031 260.523438 376.621094 234.6875 376.152344 208.84375"/></g><g><path fill="#edb468" d="M 376.152344 208.84375 C 376.101562 205.964844 373.121094 202.871094 370.253906 202.699219 C 301.785156 198.605469 233.320312 194.507812 164.859375 190.410156 C 161.089844 190.183594 157.390625 192.214844 156.832031 196.273438 C 156.746094 196.890625 156.660156 197.507812 156.578125 198.128906 L 376.195312 211.269531 C 376.179688 210.460938 376.167969 209.648438 376.152344 208.84375"/></g><g><path fill="#d09140" d="M 146.152344 273.859375 C 144.917969 282.84375 158.8125 284.992188 160.046875 276.019531 C 161.191406 267.722656 162.328125 259.421875 163.472656 251.121094 L 149.398438 250.28125 C 148.316406 258.140625 147.238281 266 146.152344 273.859375"/></g><g><path fill="#d09140" d="M 377.144531 263.90625 L 363.136719 263.070312 C 363.285156 271.371094 363.4375 279.671875 363.582031 287.972656 C 363.746094 297.035156 377.714844 295.34375 377.546875 286.363281 C 377.410156 278.878906 377.273438 271.394531 377.144531 263.90625"/></g><g><path fill="#b36544" d="M 149.15625 248.765625 C 149.957031 251.949219 152.660156 253.859375 155.625 254.929688 C 158.003906 255.789062 162.015625 256.382812 163.539062 253.816406 C 163.765625 253.429688 163.289062 253.117188 162.957031 253.214844 C 158.597656 254.515625 152.019531 253.628906 150.644531 248.386719 C 150.421875 247.546875 148.941406 247.921875 149.15625 248.765625"/></g><g><path fill="#b36544" d="M 150.589844 237.992188 C 151.398438 241.179688 154.097656 243.082031 157.058594 244.164062 C 159.445312 245.019531 163.453125 245.613281 164.980469 243.039062 C 165.203125 242.660156 164.726562 242.34375 164.394531 242.441406 C 160.035156 243.742188 153.453125 242.859375 152.082031 237.613281 C 151.859375 236.769531 150.378906 237.144531 150.589844 237.992188"/></g><g><path fill="#b36544" d="M 152.027344 227.222656 C 152.832031 230.40625 155.535156 232.3125 158.5 233.386719 C 160.878906 234.25 164.890625 234.84375 166.417969 232.277344 C 166.644531 231.890625 166.160156 231.570312 165.832031 231.667969 C 161.476562 232.96875 154.894531 232.085938 153.523438 226.84375 C 153.296875 226.003906 151.820312 226.378906 152.027344 227.222656"/></g><g><path fill="#b36544" d="M 153.46875 216.449219 C 154.273438 219.636719 156.972656 221.546875 159.941406 222.617188 C 162.316406 223.480469 166.324219 224.074219 167.859375 221.503906 C 168.078125 221.121094 167.601562 220.804688 167.273438 220.902344 C 162.914062 222.199219 156.335938 221.3125 154.960938 216.070312 C 154.738281 215.230469 153.257812 215.605469 153.46875 216.449219"/></g><g><path fill="#b36544" d="M 154.90625 205.683594 C 155.710938 208.863281 158.410156 210.773438 161.378906 211.847656 C 163.757812 212.710938 167.765625 213.300781 169.292969 210.730469 C 169.519531 210.347656 169.039062 210.035156 168.710938 210.132812 C 164.351562 211.429688 157.773438 210.542969 156.398438 205.300781 C 156.175781 204.460938 154.691406 204.839844 154.90625 205.683594"/></g><g><path fill="#b36544" d="M 158.769531 192.546875 C 157.855469 195.992188 159.777344 199.417969 162.058594 201.878906 C 163.875 203.84375 167.316406 206.484375 170.101562 205.035156 C 170.476562 204.835938 170.46875 204.25 169.996094 204.171875 C 165.042969 203.332031 158.835938 198.507812 160.300781 192.785156 C 160.546875 191.808594 159.019531 191.59375 158.769531 192.546875"/></g><g><path fill="#b36544" d="M 363.628906 262.757812 C 364.949219 265.765625 367.929688 267.195312 371.035156 267.761719 C 373.523438 268.210938 377.578125 268.121094 378.65625 265.335938 C 378.816406 264.925781 378.289062 264.691406 377.980469 264.839844 C 373.898438 266.851562 367.261719 267.078125 365.027344 262.136719 C 364.667969 261.34375 363.273438 261.960938 363.628906 262.757812"/></g><g><path fill="#b36544" d="M 363.238281 251.902344 C 364.566406 254.902344 367.550781 256.339844 370.652344 256.902344 C 373.144531 257.351562 377.199219 257.261719 378.273438 254.476562 C 378.429688 254.0625 377.90625 253.828125 377.597656 253.980469 C 373.515625 255.988281 366.878906 256.21875 364.644531 251.277344 C 364.285156 250.484375 362.886719 251.105469 363.238281 251.902344"/></g><g><path fill="#b36544" d="M 362.859375 241.035156 C 364.179688 244.046875 367.164062 245.472656 370.269531 246.039062 C 372.761719 246.488281 376.8125 246.402344 377.890625 243.613281 C 378.050781 243.199219 377.519531 242.96875 377.214844 243.121094 C 373.132812 245.128906 366.496094 245.359375 364.261719 240.417969 C 363.902344 239.628906 362.507812 240.242188 362.859375 241.035156"/></g><g><path fill="#b36544" d="M 362.472656 230.183594 C 363.800781 233.1875 366.78125 234.617188 369.886719 235.179688 C 372.375 235.636719 376.429688 235.542969 377.503906 232.753906 C 377.664062 232.34375 377.140625 232.109375 376.828125 232.257812 C 372.746094 234.273438 366.105469 234.496094 363.882812 229.558594 C 363.519531 228.765625 362.125 229.386719 362.472656 230.183594"/></g><g><path fill="#b36544" d="M 362.089844 219.320312 C 363.414062 222.328125 366.394531 223.757812 369.5 224.320312 C 371.992188 224.773438 376.046875 224.683594 377.117188 221.898438 C 377.28125 221.484375 376.75 221.25 376.441406 221.402344 C 372.363281 223.40625 365.722656 223.640625 363.496094 218.695312 C 363.136719 217.90625 361.738281 218.523438 362.089844 219.320312"/></g><g><path fill="#b36544" d="M 361.371094 204.253906 C 361.042969 207.800781 363.515625 210.863281 366.171875 212.90625 C 368.289062 214.539062 372.128906 216.570312 374.625 214.675781 C 374.96875 214.410156 374.859375 213.832031 374.382812 213.839844 C 369.355469 213.835938 362.429688 210.113281 362.914062 204.234375 C 363 203.230469 361.457031 203.273438 361.371094 204.253906"/></g><g><path fill="#b36544" d="M 173.851562 192.113281 C 173.609375 195.011719 174.0625 197.777344 175.421875 200.363281 C 176.480469 202.390625 178.523438 204.847656 180.945312 205.097656 C 181.3125 205.132812 181.65625 204.695312 181.378906 204.367188 C 180.058594 202.839844 178.367188 201.847656 177.203125 200.121094 C 175.691406 197.886719 175.214844 195.003906 175.386719 192.351562 C 175.445312 191.363281 173.9375 191.113281 173.851562 192.113281"/></g><g><path fill="#b36544" d="M 188.539062 192.992188 C 188.296875 195.890625 188.753906 198.65625 190.109375 201.242188 C 191.171875 203.269531 193.210938 205.726562 195.632812 205.976562 C 195.996094 206.011719 196.34375 205.574219 196.066406 205.246094 C 194.746094 203.71875 193.054688 202.726562 191.890625 201.003906 C 190.375 198.761719 189.898438 195.878906 190.070312 193.230469 C 190.132812 192.242188 188.621094 191.992188 188.539062 192.992188"/></g><g><path fill="#b36544" d="M 203.226562 193.871094 C 202.984375 196.769531 203.4375 199.535156 204.796875 202.121094 C 205.855469 204.148438 207.898438 206.605469 210.316406 206.855469 C 210.683594 206.890625 211.03125 206.453125 210.75 206.125 C 209.429688 204.597656 207.734375 203.605469 206.574219 201.882812 C 205.066406 199.640625 204.589844 196.757812 204.757812 194.109375 C 204.820312 193.121094 203.3125 192.871094 203.226562 193.871094"/></g><g><path fill="#b36544" d="M 217.910156 194.746094 C 217.671875 197.648438 218.121094 200.414062 219.480469 203 C 220.542969 205.027344 222.582031 207.484375 225.003906 207.734375 C 225.371094 207.769531 225.714844 207.328125 225.445312 207.003906 C 224.117188 205.476562 222.425781 204.484375 221.261719 202.761719 C 219.75 200.519531 219.269531 197.636719 219.445312 194.988281 C 219.507812 194 217.996094 193.753906 217.910156 194.746094"/></g><g><path fill="#b36544" d="M 232.601562 195.628906 C 232.355469 198.527344 232.8125 201.292969 234.167969 203.878906 C 235.230469 205.902344 237.269531 208.363281 239.6875 208.613281 C 240.058594 208.648438 240.40625 208.210938 240.121094 207.882812 C 238.804688 206.355469 237.105469 205.363281 235.949219 203.636719 C 234.4375 201.398438 233.957031 198.515625 234.132812 195.867188 C 234.195312 194.878906 232.683594 194.632812 232.601562 195.628906"/></g><g><path fill="#b36544" d="M 247.285156 196.507812 C 247.039062 199.402344 247.496094 202.171875 248.851562 204.757812 C 249.917969 206.78125 251.957031 209.242188 254.375 209.492188 C 254.746094 209.527344 255.09375 209.089844 254.8125 208.761719 C 253.488281 207.234375 251.800781 206.242188 250.636719 204.515625 C 249.125 202.277344 248.648438 199.394531 248.816406 196.746094 C 248.882812 195.757812 247.367188 195.507812 247.285156 196.507812"/></g><g><path fill="#b36544" d="M 261.972656 197.386719 C 261.726562 200.28125 262.183594 203.050781 263.539062 205.636719 C 264.605469 207.660156 266.640625 210.121094 269.0625 210.371094 C 269.433594 210.40625 269.78125 209.96875 269.496094 209.640625 C 268.175781 208.113281 266.484375 207.121094 265.324219 205.394531 C 263.8125 203.15625 263.335938 200.273438 263.503906 197.625 C 263.566406 196.636719 262.054688 196.386719 261.972656 197.386719"/></g><g><path fill="#b36544" d="M 276.660156 198.265625 C 276.414062 201.160156 276.871094 203.929688 278.226562 206.515625 C 279.289062 208.539062 281.332031 211 283.75 211.25 C 284.117188 211.285156 284.46875 210.847656 284.183594 210.519531 C 282.863281 208.992188 281.171875 208 280.007812 206.273438 C 278.5 204.035156 278.019531 201.152344 278.1875 198.503906 C 278.253906 197.515625 276.738281 197.265625 276.660156 198.265625"/></g><g><path fill="#b36544" d="M 291.34375 199.144531 C 291.101562 202.039062 291.554688 204.808594 292.914062 207.394531 C 293.980469 209.421875 296.015625 211.878906 298.4375 212.128906 C 298.804688 212.164062 299.152344 211.726562 298.867188 211.398438 C 297.554688 209.871094 295.855469 208.878906 294.695312 207.152344 C 293.183594 204.914062 292.707031 202.03125 292.878906 199.382812 C 292.941406 198.394531 291.433594 198.144531 291.34375 199.144531"/></g><g><path fill="#b36544" d="M 306.03125 200.023438 C 305.785156 202.917969 306.246094 205.6875 307.597656 208.273438 C 308.664062 210.300781 310.703125 212.757812 313.117188 213.007812 C 313.492188 213.042969 313.839844 212.601562 313.558594 212.277344 C 312.238281 210.75 310.546875 209.757812 309.378906 208.03125 C 307.867188 205.792969 307.394531 202.910156 307.5625 200.261719 C 307.628906 199.273438 306.113281 199.023438 306.03125 200.023438"/></g><g><path fill="#b36544" d="M 320.71875 200.902344 C 320.472656 203.796875 320.929688 206.566406 322.289062 209.152344 C 323.347656 211.175781 325.386719 213.636719 327.8125 213.886719 C 328.179688 213.921875 328.527344 213.480469 328.242188 213.15625 C 326.925781 211.628906 325.226562 210.636719 324.0625 208.910156 C 322.558594 206.671875 322.078125 203.789062 322.25 201.140625 C 322.3125 200.152344 320.800781 199.902344 320.71875 200.902344"/></g><g><path fill="#b36544" d="M 335.398438 201.777344 C 335.15625 204.675781 335.613281 207.445312 336.972656 210.03125 C 338.035156 212.054688 340.078125 214.515625 342.496094 214.765625 C 342.863281 214.800781 343.214844 214.359375 342.929688 214.035156 C 341.605469 212.507812 339.921875 211.515625 338.753906 209.789062 C 337.242188 207.550781 336.761719 204.667969 336.9375 202.019531 C 337 201.027344 335.484375 200.78125 335.398438 201.777344"/></g><g><path fill="#b36544" d="M 350.089844 202.65625 C 349.84375 205.554688 350.304688 208.324219 351.660156 210.910156 C 352.722656 212.933594 354.761719 215.394531 357.183594 215.644531 C 357.554688 215.679688 357.902344 215.238281 357.617188 214.910156 C 356.300781 213.386719 354.601562 212.394531 353.441406 210.667969 C 351.929688 208.429688 351.449219 205.546875 351.621094 202.898438 C 351.6875 201.90625 350.175781 201.660156 350.089844 202.65625"/></g><g><path fill="#d09140" d="M 383.898438 291.300781 C 384.285156 284.800781 379.328125 279.21875 372.832031 278.832031 L 151.894531 265.609375 C 145.398438 265.222656 139.816406 270.171875 139.429688 276.671875 L 138.605469 290.464844 L 383.074219 305.09375 L 383.898438 291.300781"/></g><g><path fill="#f3be68" d="M 132.585938 391.027344 L 132.199219 397.523438 C 131.808594 404.019531 136.757812 409.601562 143.253906 409.988281 L 364.191406 423.207031 C 370.691406 423.597656 376.277344 418.644531 376.667969 412.152344 L 377.054688 405.65625 L 132.585938 391.027344"/></g><g><path fill="#ebb050" d="M 353.714844 422.582031 L 364.191406 423.207031 C 370.691406 423.597656 376.277344 418.644531 376.667969 412.152344 L 377.054688 405.65625 L 354.808594 404.324219 L 353.714844 422.582031"/></g><g><path fill="#ebb050" d="M 132.585938 391.027344 L 132.199219 397.523438 C 131.808594 404.019531 136.757812 409.601562 143.253906 409.988281 L 149.921875 410.386719 L 151.015625 392.128906 L 132.585938 391.027344"/></g><g><path fill="#e7a45d" d="M 376.667969 412.152344 L 376.683594 411.878906 L 132.214844 397.25 L 132.199219 397.523438 C 132.097656 399.234375 132.363281 400.875 132.933594 402.378906 L 375.355469 416.886719 C 376.09375 415.457031 376.5625 413.863281 376.667969 412.152344"/></g><g><path fill="#d79650" d="M 132.214844 397.25 L 132.199219 397.523438 C 132.171875 397.945312 132.171875 398.359375 132.191406 398.765625 C 132.195312 398.871094 132.210938 398.972656 132.21875 399.074219 C 132.238281 399.382812 132.265625 399.6875 132.308594 399.988281 C 132.324219 400.089844 132.351562 400.191406 132.367188 400.292969 C 132.421875 400.589844 132.480469 400.886719 132.554688 401.179688 C 132.578125 401.265625 132.609375 401.351562 132.632812 401.441406 C 132.71875 401.738281 132.808594 402.035156 132.914062 402.324219 C 132.921875 402.34375 132.933594 402.359375 132.941406 402.378906 L 150.339844 403.421875 L 150.640625 398.351562 L 132.214844 397.25"/></g><g><path fill="#d79650" d="M 354.132812 415.617188 L 375.351562 416.882812 C 375.355469 416.871094 375.363281 416.863281 375.371094 416.851562 C 375.535156 416.53125 375.6875 416.199219 375.820312 415.859375 C 375.835938 415.828125 375.851562 415.800781 375.863281 415.769531 C 375.996094 415.429688 376.113281 415.082031 376.214844 414.726562 C 376.226562 414.691406 376.242188 414.648438 376.253906 414.605469 C 376.347656 414.273438 376.417969 413.933594 376.484375 413.585938 C 376.496094 413.523438 376.515625 413.460938 376.527344 413.394531 C 376.59375 412.988281 376.640625 412.574219 376.667969 412.152344 L 376.683594 411.878906 L 354.4375 410.546875 L 354.132812 415.617188"/></g><g><path fill="#e7a45d" d="M 392.394531 288.769531 C 392.09375 293.871094 389.699219 297.878906 383.199219 297.488281 L 139.378906 282.902344 C 132.878906 282.511719 130.976562 278.246094 131.28125 273.144531 L 131.464844 270.058594 C 131.773438 264.953125 134.171875 260.941406 140.671875 261.328125 L 384.488281 275.917969 C 390.988281 276.308594 392.886719 280.578125 392.582031 285.679688 L 392.394531 288.769531"/></g><g><path fill="#b36544" d="M 140.433594 262.871094 C 216.828125 267.445312 293.230469 272.019531 369.636719 276.589844 C 374.507812 276.878906 379.371094 277.171875 384.242188 277.460938 C 386.238281 277.582031 386.738281 274.496094 384.726562 274.375 C 308.324219 269.804688 231.925781 265.234375 155.523438 260.660156 C 150.65625 260.371094 145.78125 260.078125 140.910156 259.785156 C 138.914062 259.667969 138.421875 262.753906 140.433594 262.871094"/></g><g><path fill="#b36544" d="M 383.4375 295.945312 C 307.035156 291.371094 230.632812 286.800781 154.234375 282.230469 C 149.367188 281.9375 144.492188 281.648438 139.621094 281.355469 C 137.625 281.234375 137.132812 284.324219 139.144531 284.445312 C 215.539062 289.015625 291.9375 293.585938 368.34375 298.160156 C 373.214844 298.449219 378.082031 298.742188 382.953125 299.03125 C 384.949219 299.152344 385.445312 296.066406 383.4375 295.945312"/></g><g><path fill="#edb468" d="M 146.175781 268.160156 C 161.109375 270.59375 176.8125 271.5 191.9375 271.601562 C 193.105469 271.605469 193.109375 269.699219 191.980469 269.570312 C 176.96875 267.867188 161.296875 266.921875 146.1875 267.554688 C 145.835938 267.566406 145.84375 268.101562 146.175781 268.160156"/></g><g><path fill="#edb468" d="M 197.660156 272.160156 C 198.824219 272.199219 199.976562 272.292969 201.132812 272.382812 C 202.253906 272.46875 203.433594 272.730469 204.417969 272.097656 C 204.902344 271.78125 204.835938 271.066406 204.433594 270.726562 C 203.636719 270.046875 202.507812 270.097656 201.511719 269.964844 C 200.363281 269.808594 199.226562 269.644531 198.070312 269.53125 C 196.34375 269.367188 195.988281 272.101562 197.660156 272.160156"/></g><g><path fill="#edb468" d="M 321.921875 279.027344 C 339.898438 279.9375 358.648438 283.011719 376.632812 281.871094 C 377.238281 281.824219 377.21875 280.929688 376.652344 280.824219 C 358.960938 277.613281 339.972656 279.480469 322.027344 278.304688 C 321.558594 278.273438 321.449219 279.003906 321.921875 279.027344"/></g><g><path fill="#a82b2c" d="M 279.886719 358.355469 C 279.886719 358.355469 256.921875 375.625 234.335938 353.613281 C 234.335938 353.613281 236.832031 390.359375 252.757812 393.667969 C 268.679688 396.980469 279.886719 358.355469 279.886719 358.355469"/></g><g><path fill="#e05c60" d="M 258.871094 375.792969 C 263.320312 372.421875 269.039062 371.765625 274.160156 373.417969 C 269.355469 383.855469 261.820312 395.554688 252.757812 393.667969 C 248.097656 392.699219 244.617188 388.84375 241.988281 383.914062 C 249.394531 371.371094 256.699219 374.917969 258.871094 375.792969"/></g><g><path fill="#eb9090" d="M 254.234375 389.136719 C 256.351562 383.867188 257.628906 380.777344 261.273438 376.972656 C 263.144531 376.570312 265.96875 374.839844 267.839844 375.289062 C 267.582031 381.746094 259.625 384.355469 254.234375 389.136719"/></g><g><path fill="#462a37" d="M 275.734375 372.722656 L 274.515625 372.324219 C 269.089844 370.578125 263.367188 371.519531 258.914062 374.578125 C 256.191406 373.464844 248.511719 370.597656 241 383.332031 L 240.671875 383.886719 L 240.980469 384.457031 C 244.140625 390.375 248.027344 393.855469 252.523438 394.785156 C 260.3125 396.414062 268.15625 389.183594 275.195312 373.894531 Z M 243.367188 383.90625 C 249.867188 373.40625 255.898438 375.8125 258.199219 376.746094 L 254.332031 383.601562 L 259.566406 376.695312 C 263.132812 373.996094 267.84375 373.335938 272.414062 374.386719 C 267.824219 383.933594 260.949219 394.210938 252.988281 392.5625 C 249.34375 391.789062 246.125 388.820312 243.367188 383.90625"/></g><g><path fill="#462a37" d="M 281.933594 355.382812 L 279.195312 357.4375 C 278.277344 358.113281 256.730469 373.839844 235.132812 352.800781 L 232.992188 350.707031 L 233.195312 353.695312 C 233.296875 355.230469 235.941406 391.339844 252.523438 394.785156 C 269.289062 398.269531 280.511719 360.289062 280.980469 358.664062 Z M 235.746094 356.234375 C 253.507812 371.601562 271.242188 364.617188 277.851562 360.953125 C 277.261719 362.710938 276.394531 365.144531 275.289062 367.894531 C 270.910156 378.796875 262.773438 394.589844 252.988281 392.5625 C 240.421875 389.9375 236.648438 364.414062 235.746094 356.234375"/></g><g><path fill="#ffffff" d="M 335.378906 329.109375 C 331.144531 345.070312 316.140625 354.9375 301.859375 351.164062 C 287.582031 347.375 279.433594 331.359375 283.667969 315.398438 C 287.902344 299.417969 302.90625 289.558594 317.1875 293.34375 C 331.460938 297.128906 339.605469 313.136719 335.378906 329.109375"/></g><g><path fill="#462a37" d="M 317.621094 291.714844 C 330.894531 295.300781 336.839844 308 337.332031 316.011719 C 338.089844 324.429688 335.632812 329.257812 335.378906 329.109375 C 334.765625 328.996094 336.285156 324.046875 334.984375 316.339844 C 333.90625 308.910156 328.207031 298.03125 316.757812 294.96875 C 305.292969 291.949219 294.953125 298.578125 290.335938 304.503906 C 285.386719 310.554688 284.261719 315.605469 283.667969 315.398438 C 283.378906 315.40625 283.632812 309.996094 288.453125 303.050781 C 292.851562 296.339844 304.308594 288.253906 317.621094 291.714844"/></g><g><path fill="#462a37" d="M 319.265625 329.757812 C 315.007812 337.332031 305.414062 340.027344 297.839844 335.761719 C 290.261719 331.503906 287.566406 321.910156 291.832031 314.339844 C 296.09375 306.765625 305.679688 304.074219 313.253906 308.320312 C 320.832031 312.589844 323.523438 322.175781 319.265625 329.757812"/></g><g><path fill="#ffffff" d="M 313.863281 320.554688 C 312.3125 323.335938 308.800781 324.308594 306.03125 322.753906 C 303.265625 321.207031 302.269531 317.691406 303.828125 314.914062 C 305.386719 312.148438 308.894531 311.160156 311.683594 312.726562 C 314.425781 314.269531 315.421875 317.789062 313.863281 320.554688"/></g><g><path fill="#ffffff" d="M 183.496094 318.785156 C 185.535156 335.175781 199.066406 346.984375 213.726562 345.175781 C 228.386719 343.355469 238.625 328.585938 236.582031 312.199219 C 234.550781 295.800781 221.019531 284 206.359375 285.816406 C 191.703125 287.640625 181.464844 302.394531 183.496094 318.785156"/></g><g><path fill="#462a37" d="M 206.148438 284.144531 C 192.507812 285.902344 184.902344 297.683594 183.328125 305.554688 C 181.445312 313.792969 183.226562 318.902344 183.496094 318.785156 C 184.121094 318.765625 183.28125 313.65625 185.617188 306.199219 C 187.691406 298.980469 194.808594 288.964844 206.5625 287.484375 C 218.328125 286.046875 227.679688 294.011719 231.453125 300.503906 C 235.539062 307.164062 235.972656 312.328125 236.582031 312.199219 C 236.867188 312.238281 237.355469 306.851562 233.515625 299.316406 C 230.066406 292.070312 219.804688 282.511719 206.148438 284.144531"/></g><g><path fill="#462a37" d="M 200.566406 321.671875 C 203.765625 329.753906 212.90625 333.722656 220.988281 330.515625 C 229.074219 327.324219 233.039062 318.183594 229.839844 310.105469 C 226.640625 302.023438 217.503906 298.066406 209.425781 301.246094 C 201.339844 304.453125 197.378906 313.589844 200.566406 321.671875"/></g><g><path fill="#ffffff" d="M 214.953125 313.816406 C 216.121094 316.78125 219.472656 318.21875 222.421875 317.058594 C 225.371094 315.886719 226.832031 312.542969 225.664062 309.585938 C 224.496094 306.632812 221.148438 305.179688 218.183594 306.355469 C 215.25 307.515625 213.789062 310.863281 214.953125 313.816406"/></g><g><path fill="#462a37" d="M 212.410156 272.671875 C 206.523438 271.4375 202.789062 275.441406 202.136719 275.027344 C 200.8125 274.882812 204.835938 267.761719 213.167969 269.394531 C 221.023438 271.027344 222.933594 278.382812 221.816406 278.296875 C 220.96875 278.648438 218.476562 273.816406 212.410156 272.671875"/></g><g><path fill="#462a37" d="M 314.183594 279.8125 C 308.246094 278.871094 304.710938 283.0625 304.042969 282.679688 C 302.707031 282.601562 306.371094 275.292969 314.773438 276.5 C 322.703125 277.734375 324.984375 284.984375 323.863281 284.953125 C 323.03125 285.347656 320.296875 280.644531 314.183594 279.8125"/></g><g><path fill="#ef706e" d="M 203.730469 351.421875 C 203.539062 357.332031 195.164062 361.871094 185.027344 361.539062 C 174.886719 361.210938 166.820312 356.15625 167.015625 350.246094 C 167.203125 344.328125 175.578125 339.796875 185.714844 340.121094 C 195.855469 340.449219 203.921875 345.507812 203.730469 351.421875"/></g><g><path fill="#ef706e" d="M 347.421875 362.964844 C 347.230469 368.972656 338.714844 373.589844 328.410156 373.257812 C 318.101562 372.921875 309.894531 367.777344 310.085938 361.761719 C 310.285156 355.746094 318.800781 351.144531 329.101562 351.472656 C 339.414062 351.804688 347.617188 356.945312 347.421875 362.964844"/></g><g><path fill="#b36544" d="M 136.441406 350.988281 C 135.394531 368.914062 134.179688 385.207031 133.324219 396.863281 C 132.550781 402.859375 135.617188 406.394531 138.714844 407.675781 C 141.574219 409.164062 143.335938 409.753906 143.253906 409.988281 C 143.210938 410.132812 141.371094 409.929688 138.226562 408.699219 C 136.699219 408.054688 134.679688 407.105469 133.144531 404.964844 C 131.585938 402.8125 131.257812 399.785156 131.261719 396.832031 C 131.597656 384.960938 132.480469 368.777344 133.53125 350.8125 C 135.679688 314.925781 138.074219 285.875 138.875 285.921875 C 139.679688 285.972656 138.589844 315.101562 136.441406 350.988281"/></g><g><path fill="#b36544" d="M 376.136719 365.328125 C 375.039062 383.25 374.304688 399.574219 373.761719 411.25 C 373.8125 417.296875 370.351562 420.441406 367.117188 421.34375 C 364.105469 422.480469 362.285156 422.855469 362.339844 423.097656 C 362.363281 423.246094 364.210938 423.265625 367.480469 422.414062 C 369.078125 421.957031 371.195312 421.257812 372.972656 419.3125 C 374.777344 417.363281 375.464844 414.398438 375.8125 411.464844 C 376.894531 399.640625 377.945312 383.464844 379.046875 365.503906 C 381.191406 329.617188 382.28125 300.488281 381.480469 300.441406 C 380.675781 300.390625 378.28125 329.445312 376.136719 365.328125"/></g><g><path fill="#b36544" d="M 251.761719 415.019531 C 309.578125 418.480469 356.410156 421.9375 356.363281 422.738281 C 356.316406 423.542969 309.40625 421.390625 251.585938 417.929688 C 193.769531 414.46875 146.9375 411.011719 146.984375 410.210938 C 147.03125 409.410156 193.941406 411.5625 251.761719 415.019531"/></g><g><path fill="#b36544" d="M 362.296875 216.246094 C 362.347656 215.304688 306.792969 211.507812 238.214844 207.761719 C 221.070312 206.824219 204.734375 205.980469 189.871094 205.257812 C 186.15625 205.074219 182.535156 204.902344 179.015625 204.734375 L 173.8125 204.492188 L 171.269531 204.375 L 170.019531 204.316406 L 169.859375 204.3125 L 169.820312 204.308594 C 171.132812 203.21875 167.984375 205.789062 168.3125 205.542969 L 168.300781 205.621094 L 168.183594 206.546875 C 167.34375 213.109375 166.570312 219.222656 165.882812 224.808594 C 163.121094 247.144531 161.644531 260.992188 162.109375 261.054688 C 162.570312 261.117188 164.890625 247.386719 168.261719 225.136719 C 169.089844 219.65625 169.984375 213.65625 170.929688 207.222656 L 171.117188 207.234375 L 173.652344 207.394531 L 178.851562 207.71875 C 182.371094 207.9375 185.988281 208.15625 189.703125 208.382812 C 204.554688 209.277344 220.882812 210.21875 238.03125 211.152344 C 306.609375 214.898438 362.246094 217.175781 362.296875 216.246094"/></g><g><path fill="#b36544" d="M 174.71875 189.433594 C 170.402344 189.320312 166.746094 188.726562 162.191406 189.027344 C 159.957031 189.234375 157.4375 190.675781 156.410156 192.867188 C 155.316406 194.953125 155.3125 197.222656 155.09375 198.890625 C 154.175781 206.246094 153.179688 213.140625 152.324219 219.414062 C 148.835938 244.53125 146.8125 260.097656 147.285156 260.167969 C 147.738281 260.238281 150.601562 244.808594 154.699219 219.769531 C 158.605469 209.1875 152.460938 184.667969 174.53125 192.558594 C 191.265625 193.644531 209.664062 194.792969 228.984375 195.949219 C 306.253906 200.574219 368.9375 203.558594 368.992188 202.625 C 369.046875 201.691406 306.453125 197.179688 229.1875 192.558594 C 209.867188 191.402344 191.464844 190.347656 174.71875 189.433594"/></g><g><path fill="#b36544" d="M 362.308594 216.929688 C 361.683594 216.945312 361.394531 229.261719 361.671875 244.445312 C 361.941406 259.632812 362.671875 271.929688 363.296875 271.917969 C 363.921875 271.90625 364.207031 259.589844 363.933594 244.40625 C 363.660156 229.222656 362.933594 216.921875 362.308594 216.929688"/></g><g><path fill="#b36544" d="M 377.804688 237.652344 C 377.628906 227.820312 377.339844 218.917969 377.019531 212.476562 C 377.4375 205.355469 372.25 202.78125 372.402344 203.34375 C 372.078125 203.519531 376.226562 205.925781 375.417969 212.507812 C 375.328125 218.953125 375.363281 227.859375 375.539062 237.695312 C 375.894531 257.363281 376.6875 273.300781 377.3125 273.289062 C 377.9375 273.277344 378.160156 257.324219 377.804688 237.652344"/></g><g><path fill="#e7a45d" d="M 17.773438 245.34375 C 8.890625 256.710938 8.25 271.046875 16.34375 277.371094 C 24.433594 283.695312 38.191406 279.613281 47.074219 268.25 C 55.957031 256.886719 56.59375 242.546875 48.503906 236.222656 C 40.410156 229.898438 26.652344 233.984375 17.773438 245.34375"/></g></g></svg>