<?xml version="1.0" encoding="UTF-8"?><svg xmlns="http://www.w3.org/2000/svg" xmlns:xlink="http://www.w3.org/1999/xlink" contentScriptType="text/ecmascript" fill="#000000" width="2691" zoomAndPan="magnify" contentStyleType="text/css" viewBox="0.0 -0.8 2691.0 2680.7" height="2680.7" preserveAspectRatio="xMidYMid meet" version="1"><defs><clipPath id="a"><path d="M 0 1302 L 1223 1302 L 1223 2679.859375 L 0 2679.859375 Z M 0 1302"/></clipPath><clipPath id="b"><path d="M 1468 1302 L 2690.960938 1302 L 2690.960938 2679.859375 L 1468 2679.859375 Z M 1468 1302"/></clipPath></defs><g><g id="change1_1"><path fill="#ffffff" d="M 1858.902344 731.425781 C 1858.902344 1013.148438 1630.527344 1241.527344 1348.804688 1241.527344 C 1067.082031 1241.527344 838.695312 1013.148438 838.695312 731.425781 C 838.695312 449.703125 1067.082031 221.316406 1348.804688 221.316406 C 1630.527344 221.316406 1858.902344 449.703125 1858.902344 731.425781"/></g><g id="change2_1"><path fill="#ffd664" d="M 1592.410156 548.003906 C 1618.097656 570.480469 1619.882812 609.832031 1596.347656 634.539062 L 1321.558594 922.992188 C 1318.804688 926.480469 1313.867188 926.773438 1310.804688 923.640625 L 1117.1875 759.59375 C 1092.144531 738.371094 1088.796875 700.976562 1109.675781 675.660156 C 1130.886719 649.921875 1169.027344 646.433594 1194.554688 667.890625 L 1303.644531 759.566406 C 1306.714844 762.710938 1311.65625 762.40625 1314.40625 758.933594 L 1508.34375 551.53125 C 1530.4375 527.894531 1567.316406 526.042969 1591.671875 547.355469 L 1592.410156 548.003906"/></g><path stroke-linecap="round" transform="matrix(.13214 0 0 -.13214 0 2679.86)" fill="none" stroke-linejoin="round" d="M 12051.296817 16133.802247 C 12245.698797 15963.700515 12259.208789 15665.889453 12081.095661 15478.907622 L 10001.50295 13295.905828 C 9980.661496 13269.506654 9943.294693 13267.289478 9920.117814 13290.998479 L 8454.830629 14532.498713 C 8265.306436 14693.110933 8239.971507 14976.11126 8397.98224 15167.704817 C 8558.505772 15362.491108 8847.152508 15388.890282 9040.342431 15226.504321 L 9865.930036 14532.70565 C 9889.166039 14508.907962 9926.562405 14511.213825 9947.374296 14537.49475 L 11415.085594 16107.10745 C 11582.290216 16285.989199 11861.388314 16300.00175 12045.709534 16138.709597 Z M 12051.296817 16133.802247" stroke="#582d68" stroke-width="292.764" stroke-miterlimit="10"/><path stroke-linecap="round" transform="matrix(.1502 0 0 -.1502 0 2679.86)" fill="none" stroke-linejoin="round" d="M 9703.001 16300.006616 C 9909.805836 16254.989115 10109.692905 16191.090789 10300.607682 16110.210125 C 10706.701434 15938.098153 11072.796967 15689.110539 11380.195503 15381.712003 C 11687.698067 15074.20944 11936.711687 14708.191927 12108.797652 14301.994148 C 12280.805598 13895.900396 12375.989917 13449.496345 12375.989917 12981.402753 C 12375.989917 12513.205134 12280.805598 12066.905109 12108.797652 11660.707331 C 11936.711687 11254.587572 11687.698067 10888.596066 11380.195503 10581.093502 C 11072.796967 10273.590939 10706.701434 10024.603326 10300.607682 9852.543367 C 9894.409903 9680.509414 9448.083872 9585.247076 8979.91226 9585.247076 C 8957.286479 9585.247076 8950.420725 9584.830969 8927.924978 9585.247076" stroke="#582d68" stroke-width="257.552" stroke-miterlimit="10"/><path stroke-linecap="round" transform="matrix(.15092 0 0 -.15092 0 2679.86)" fill="none" stroke-linejoin="round" d="M 8286.817046 9602.769504 C 8056.349434 9647.91051 7834.242227 9716.502061 7623.006134 9805.929913 C 7218.807772 9977.227605 6854.496044 10225.011347 6548.474193 10531.007315 C 6242.452341 10837.003283 5994.668599 11201.289128 5823.422674 11605.591024 C 5652.150865 12009.789386 5557.365107 12454.0038 5557.365107 12920.012209 C 5557.365107 13385.891199 5652.150865 13830.105613 5823.422674 14234.40751 C 5994.668599 14638.605872 6242.452341 15002.891716 6548.474193 15308.887684 C 6854.496044 15614.909536 7218.807772 15862.693278 7623.006134 16033.99097 C 8027.256263 16205.211011 8471.470677 16299.99677 8937.427319 16299.99677" stroke="#582d68" stroke-width="256.334" stroke-miterlimit="10"/><path stroke-linecap="round" transform="matrix(.14574 0 0 -.14574 0 2679.86)" fill="none" stroke-linejoin="round" d="M 13758.087017 13378.908528 L 14445.504892 13378.908528 C 15469.703117 13378.908528 16300.008062 12548.710795 16300.008062 11524.51257 L 16300.008062 9434.410573" stroke="#582d68" stroke-width="265.44" stroke-miterlimit="10"/><g id="change3_1"><path stroke-linecap="round" transform="matrix(.12301 0 0 -.12301 0 2679.86)" fill="#ff8b7b" stroke-linejoin="round" d="M 15111.584642 15850.688093 C 15111.584642 15279.097517 14995.297715 14734.085902 14785.301688 14238.199322 C 14575.115131 13742.185722 14271.092454 13295.297156 13895.684466 12919.889167 C 13520.308232 12544.385914 13073.292646 12240.490257 12577.406066 12030.3037 C 12081.487731 11820.307673 11536.507871 11703.893726 10964.790275 11703.893726 C 10937.195152 11703.893726 10928.811823 11703.385645 10901.311965 11703.893726 L 10901.311965 12205.400947 L 8965.652233 11087.909615 L 10901.311965 9970.354772 L 10901.311965 10515.588672 L 10964.790275 10515.588672 C 11701.411753 10515.588672 12403.19796 10664.805568 13041.505859 10934.78685 C 13679.813758 11204.799887 14254.611593 11595.513801 14737.4151 12078.190288 C 15220.091587 12560.89853 15610.710236 13135.696365 15880.691518 13774.004264 C 16150.704555 14412.312163 16299.984961 15114.09837 16299.984961 15850.688093" stroke="#582d68" stroke-width="314.481" stroke-miterlimit="10"/></g><path stroke-linecap="round" transform="matrix(.11962 0 0 -.11962 0 2679.86)" fill="none" stroke-linejoin="round" d="M 5789.182606 16299.98861 L 4951.674194 16299.98861 C 3703.885605 16299.98861 2692.357529 15288.493189 2692.357529 14040.7046 L 2692.357529 11494.315902" stroke="#582d68" stroke-width="323.394" stroke-miterlimit="10"/><g id="change3_2"><path stroke-linecap="round" transform="matrix(.16322 0 0 -.16322 0 2679.86)" fill="#ff8b7b" stroke-linejoin="round" d="M 4242.759669 11945.893668 C 4242.759669 12500.999406 4355.264609 13029.899462 4558.71164 13510.911328 C 4762.182603 13991.99499 5056.619589 14425.190461 5420.411885 14789.00669 C 5784.228114 15152.798987 6217.423586 15447.188109 6698.483316 15650.706936 C 7179.543046 15854.201831 7708.395238 15966.706771 8263.596704 15966.706771 L 8263.596704 16300.009535 L 9722.403575 15457.790042 L 8263.596704 14615.498753 L 8263.596704 15070.998969 C 7832.770513 15070.998969 7422.047311 14983.407376 7048.251385 14825.096341 C 6674.527254 14666.689578 6337.682535 14437.611237 6054.756903 14154.709537 C 5771.807339 13871.688176 5542.705066 13534.891321 5384.346167 13161.191123 C 5225.987267 12787.395196 5138.371742 12376.695926 5138.371742 11945.893668" stroke="#582d68" stroke-width="237.007" stroke-miterlimit="10"/></g><g id="change1_2"><path fill="#ffffff" d="M 876.175781 2660.519531 L 876.175781 2443.648438 L 954.957031 2443.570312 C 1016.988281 2443.511719 1067.25 2393.199219 1067.25 2331.171875 L 1067.25 2149.300781 L 1066.429688 2149.300781 L 1168.199219 2149.300781 C 1191.21875 2149.300781 1208.050781 2127.570312 1202.289062 2105.28125 L 1098.949219 1705.71875 L 1098.949219 1705.730469 C 1025.070312 1475.058594 804.007812 1310.269531 546.171875 1322.171875 C 268.453125 1334.988281 40.5625 1556.761719 20.789062 1834.070312 C 5.46875 2048.96875 113.089844 2239.980469 280.375 2344.21875 L 280.375 2660.519531"/></g><g clip-path="url(#a)"><path stroke-linecap="round" transform="matrix(.1 0 0 -.1 0 2679.86)" fill="none" stroke-linejoin="round" d="M 8761.757812 193.404688 L 8761.757812 2362.115625 L 9549.570312 2362.896875 C 10169.882812 2363.482813 10672.5 2866.607813 10672.5 3486.88125 L 10672.5 5305.592188 L 10664.296875 5305.592188 L 11681.992188 5305.592188 C 11912.1875 5305.592188 12080.507812 5522.896875 12022.890625 5745.7875 L 10989.492188 9741.4125 L 10989.492188 9741.295313 C 10250.703125 12048.014063 8040.078125 13695.904688 5461.71875 13576.88125 C 2684.53125 13448.717188 405.625 11230.982813 207.890625 8457.896875 C 54.6875 6308.9125 1130.898438 4398.795313 2803.75 3356.4125 L 2803.75 193.404688" stroke="#582d68" stroke-width="386.848" stroke-miterlimit="10"/></g><g id="change3_3"><path stroke-linecap="round" transform="matrix(.1 0 0 -.1 0 2679.86)" fill="#ff8b7b" stroke-linejoin="round" d="M 4564.53125 4822.81875 L 4564.53125 4602.310938 C 4564.53125 4290.084375 4817.617188 4037.115625 5129.765625 4037.115625 L 5714.882812 4037.115625 C 6027.03125 4037.115625 6280.078125 4290.084375 6280.078125 4602.310938 L 6280.078125 4822.81875" stroke="#582d68" stroke-width="386.848" stroke-miterlimit="10"/></g><g id="change1_3"><path fill="#ffffff" d="M 777.695312 1796.261719 C 777.695312 1660.648438 663.0625 1551.820312 525.414062 1561.378906 C 408.167969 1569.519531 313.738281 1665.339844 307.148438 1782.679688 C 302.117188 1872.28125 347.25 1951.679688 417 1995.570312 C 436.21875 2007.671875 448.324219 2028.351562 448.324219 2051.058594 L 448.324219 2077.449219 L 636.136719 2077.449219 L 636.136719 2051.011719 C 636.136719 2028.589844 647.800781 2007.859375 666.820312 1995.96875 C 733.382812 1954.390625 777.695312 1880.53125 777.695312 1796.261719"/></g><path stroke-linecap="round" transform="matrix(.1 0 0 -.1 0 2679.86)" fill="none" stroke-linejoin="round" d="M 7776.953125 8835.982813 C 7776.953125 10192.115625 6630.625 11280.396875 5254.140625 11184.810938 C 4081.679688 11103.404688 3137.382812 10145.201563 3071.484375 8971.803125 C 3021.171875 8075.7875 3472.5 7281.803125 4170 6842.896875 C 4362.1875 6721.88125 4483.242188 6515.084375 4483.242188 6288.014063 L 4483.242188 6024.107813 L 6361.367188 6024.107813 L 6361.367188 6288.482813 C 6361.367188 6512.701563 6478.007812 6720.00625 6668.203125 6838.9125 C 7333.828125 7254.69375 7776.953125 7993.2875 7776.953125 8835.982813 Z M 7776.953125 8835.982813" stroke="#582d68" stroke-width="386.848" stroke-miterlimit="10"/><g id="change4_1"><path fill="#73e0d8" d="M 656.023438 2197.578125 L 428.4375 2197.578125 C 418.984375 2197.578125 411.320312 2189.910156 411.320312 2180.460938 L 411.320312 2094.570312 C 411.320312 2085.109375 418.984375 2077.449219 428.4375 2077.449219 L 656.023438 2077.449219 C 665.476562 2077.449219 673.140625 2085.109375 673.140625 2094.570312 L 673.140625 2180.460938 C 673.140625 2189.910156 665.476562 2197.578125 656.023438 2197.578125"/></g><path stroke-linecap="round" transform="matrix(.1 0 0 -.1 0 2679.86)" fill="none" stroke-linejoin="round" d="M 6560.234375 4822.81875 L 4284.375 4822.81875 C 4189.84375 4822.81875 4113.203125 4899.498438 4113.203125 4993.990625 L 4113.203125 5852.896875 C 4113.203125 5947.50625 4189.84375 6024.107813 4284.375 6024.107813 L 6560.234375 6024.107813 C 6654.765625 6024.107813 6731.40625 5947.50625 6731.40625 5852.896875 L 6731.40625 4993.990625 C 6731.40625 4899.498438 6654.765625 4822.81875 6560.234375 4822.81875 Z M 6560.234375 4822.81875" stroke="#582d68" stroke-width="386.848" stroke-miterlimit="10"/><path stroke-linecap="round" transform="matrix(.1 0 0 -.1 0 2679.86)" fill="none" stroke-linejoin="round" d="M 4097.148438 9140.709375 L 4759.0625 8510.00625 L 5421.5625 9140.709375 L 6084.492188 8510.00625 L 6747.460938 9140.709375" stroke="#582d68" stroke-width="386.848" stroke-miterlimit="10"/><path stroke-linecap="round" transform="matrix(.1 0 0 -.1 0 2679.86)" fill="none" stroke-linejoin="round" d="M 5422.304688 6024.107813 L 5422.304688 8033.717188" stroke="#582d68" stroke-width="386.848" stroke-miterlimit="10"/><g id="change1_4"><path fill="#ffffff" d="M 1814.78125 2660.519531 L 1814.78125 2443.652344 L 1735.996094 2443.570312 C 1673.964844 2443.507812 1623.710938 2393.199219 1623.710938 2331.167969 L 1623.710938 2149.300781 L 1624.53125 2149.300781 L 1522.761719 2149.300781 C 1499.730469 2149.300781 1482.910156 2127.570312 1488.667969 2105.28125 L 1592.007812 1705.71875 L 1592.007812 1705.730469 C 1665.894531 1475.058594 1886.945312 1310.269531 2144.785156 1322.171875 C 2422.511719 1334.988281 2650.398438 1556.761719 2670.167969 1834.070312 C 2685.488281 2048.96875 2577.871094 2239.980469 2410.582031 2344.21875 L 2410.582031 2660.519531"/></g><g clip-path="url(#b)"><path stroke-linecap="round" transform="matrix(.16475 0 0 -.16475 0 2679.86)" fill="none" stroke-linejoin="round" d="M 11015.09675 117.38998 L 11015.09675 1433.699068 L 10536.898004 1434.196969 C 10160.389695 1434.576323 9855.365803 1739.932149 9855.365803 2116.440458 L 9855.365803 3220.311609 L 9860.344817 3220.311609 L 9242.638836 3220.311609 C 9102.847086 3220.311609 9000.753586 3352.208065 9035.701523 3487.494993 L 9662.93876 5912.701664 L 9662.93876 5912.630536 C 10111.405679 7312.729319 11453.107739 8312.942136 13018.10673 8240.699012 C 14703.81125 8162.907843 16087.005095 6816.819508 16206.999337 5133.651914 C 16299.988354 3829.29246 15646.789114 2669.917157 14631.402159 2037.226714 L 14631.402159 117.38998" stroke="#582d68" stroke-width="234.803" stroke-miterlimit="10"/></g><g id="change3_4"><path stroke-linecap="round" transform="matrix(.13505 0 0 -.13505 0 2679.86)" fill="#ff8b7b" stroke-linejoin="round" d="M 15029.805428 3397.571231 L 15029.805428 3234.20944 C 15029.805428 3003.108039 15217.202922 2815.710545 15448.304323 2815.710545 L 15881.496524 2815.710545 C 16112.71362 2815.710545 16299.995418 3003.108039 16299.995418 3234.20944 L 16299.995418 3397.571231" stroke="#582d68" stroke-width="286.442" stroke-miterlimit="10"/></g><g id="change2_2"><path fill="#ffd664" d="M 2351.046875 1819.691406 C 2351.046875 1684.089844 2236.421875 1575.261719 2098.761719 1584.820312 C 1981.527344 1592.960938 1887.097656 1688.769531 1880.503906 1806.121094 C 1875.472656 1895.722656 1920.601562 1975.121094 1990.355469 2019.011719 C 2009.582031 2031.101562 2021.683594 2051.789062 2021.683594 2074.5 L 2021.683594 2100.890625 L 2209.492188 2100.890625 L 2209.492188 2074.449219 C 2209.492188 2052.019531 2221.164062 2031.289062 2240.171875 2019.410156 C 2306.738281 1977.820312 2351.046875 1903.972656 2351.046875 1819.691406"/></g><path stroke-linecap="round" transform="matrix(.14424 0 0 -.14424 0 2679.86)" fill="none" stroke-linejoin="round" d="M 16300.00052 5963.619303 C 16300.00052 6903.75604 15505.296008 7658.270343 14550.886871 7591.99983 C 13738.091349 7535.56021 13083.402592 6871.311384 13037.687583 6057.703391 C 13002.805515 5436.48842 13315.687918 4886.012551 13799.297462 4581.715253 C 13932.596794 4497.895376 14016.497918 4354.467245 14016.497918 4197.010455 L 14016.497918 4014.042091 L 15318.590279 4014.042091 L 15318.590279 4197.362526 C 15318.590279 4352.869386 15399.512344 4496.595423 15531.295065 4578.952853 C 15992.805411 4867.298646 16300.00052 5379.290494 16300.00052 5963.619303 Z M 16300.00052 5963.619303" stroke="#582d68" stroke-width="268.205" stroke-miterlimit="10"/><g id="change4_2"><path fill="#73e0d8" d="M 2229.382812 2221.011719 L 2001.796875 2221.011719 C 1992.339844 2221.011719 1984.679688 2213.351562 1984.679688 2203.890625 L 1984.679688 2118 C 1984.679688 2108.550781 1992.339844 2100.890625 2001.796875 2100.890625 L 2229.382812 2100.890625 C 2238.835938 2100.890625 2246.5 2108.550781 2246.5 2118 L 2246.5 2203.890625 C 2246.5 2213.351562 2238.835938 2221.011719 2229.382812 2221.011719"/></g><path stroke-linecap="round" transform="matrix(.13782 0 0 -.13782 0 2679.86)" fill="none" stroke-linejoin="round" d="M 16175.81237 3329.281836 L 14524.508968 3329.281836 C 14455.891249 3329.281836 14400.31118 3384.861905 14400.31118 3453.507967 L 14400.31118 4076.707637 C 14400.31118 4145.268671 14455.891249 4200.84874 14524.508968 4200.84874 L 16175.81237 4200.84874 C 16244.401746 4200.84874 16300.010158 4145.268671 16300.010158 4076.707637 L 16300.010158 3453.507967 C 16300.010158 3384.861905 16244.401746 3329.281836 16175.81237 3329.281836 Z M 16175.81237 3329.281836" stroke="#582d68" stroke-width="280.686" stroke-miterlimit="10"/><path stroke-linecap="round" transform="matrix(.13792 0 0 -.13792 0 2679.86)" fill="none" stroke-linejoin="round" d="M 14378.410038 6457.637353 L 14858.392773 6000.284359 L 15338.602088 6457.637353 L 15819.406177 6000.284359 L 16300.012009 6457.637353" stroke="#582d68" stroke-width="280.487" stroke-miterlimit="10"/><path stroke-linecap="round" transform="matrix(.1298 0 0 -.1298 0 2679.86)" fill="none" stroke-linejoin="round" d="M 16300.003467 4460.812239 L 16300.003467 6009.124766" stroke="#582d68" stroke-width="298.055" stroke-miterlimit="10"/><path stroke-linecap="round" transform="matrix(.1298 0 0 -.1298 0 2679.86)" fill="none" stroke-linejoin="round" d="M 16300.003467 8940.0086 L 16300.003467 9449.601908" stroke="#582d68" stroke-width="298.055" stroke-miterlimit="10"/><path stroke-linecap="round" transform="matrix(.12058 0 0 -.12058 0 2679.86)" fill="none" stroke-linejoin="round" d="M 16300.008345 9289.087962 L 16025.690033 9764.12383" stroke="#582d68" stroke-width="320.814" stroke-miterlimit="10"/><path stroke-linecap="round" transform="matrix(.11384 0 0 -.11384 0 2679.86)" fill="none" stroke-linejoin="round" d="M 16299.997584 8874.068893 L 15796.803218 9164.559415" stroke="#582d68" stroke-width="339.808" stroke-miterlimit="10"/><path stroke-linecap="round" transform="matrix(.11138 0 0 -.11138 0 2679.86)" fill="none" stroke-linejoin="round" d="M 16300.007969 7723.10546 L 15706.193154 7723.10546" stroke="#582d68" stroke-width="347.335" stroke-miterlimit="10"/><path stroke-linecap="round" transform="matrix(.11384 0 0 -.11384 0 2679.86)" fill="none" stroke-linejoin="round" d="M 16299.997584 6237.453939 L 15796.803218 5946.963417" stroke="#582d68" stroke-width="339.808" stroke-miterlimit="10"/><path stroke-linecap="round" transform="matrix(.14925 0 0 -.14925 0 2679.86)" fill="none" stroke-linejoin="round" d="M 15916.296348 4757.661329 L 16300.006658 4536.087665" stroke="#582d68" stroke-width="259.191" stroke-miterlimit="10"/><path stroke-linecap="round" transform="matrix(.15226 0 0 -.15226 0 2679.86)" fill="none" stroke-linejoin="round" d="M 15865.589063 5649.229253 L 16299.99881 5649.229253" stroke="#582d68" stroke-width="254.065" stroke-miterlimit="10"/><path stroke-linecap="round" transform="matrix(.14925 0 0 -.14925 0 2679.86)" fill="none" stroke-linejoin="round" d="M 15916.296348 6768.757705 L 16300.006658 6990.331369" stroke="#582d68" stroke-width="259.191" stroke-miterlimit="10"/><path stroke-linecap="round" transform="matrix(.14103 0 0 -.14103 0 2679.86)" fill="none" stroke-linejoin="round" d="M 16065.490784 7942.521645 L 16299.987104 8348.693867" stroke="#582d68" stroke-width="274.308" stroke-miterlimit="10"/></g></svg>