<svg width="392.8" height="307" viewBox="0 0 392.8 307" xmlns="http://www.w3.org/2000/svg" xmlns:xlink="http://www.w3.org/1999/xlink" overflow="hidden"><defs><clipPath id="a"><path d="M0 60 392.789 60 392.789 269 0 269Z"/></clipPath><clipPath id="b"><path d="M0 0 392.789 0 392.789 59 0 59Z"/></clipPath></defs><g><g id="change1_2" clip-path="url(#a)"><path d="M0 235.02C0 253.363 14.8711 268.238 33.2188 268.238L155.828 268.238C155.969 245.984 174.109 227.922 196.395 227.922 218.68 227.922 236.816 245.984 236.957 268.238L359.566 268.238C377.914 268.238 392.785 253.363 392.785 235.02L392.785 60.1758 0 60.1758 0 235.02" fill="#FCE5CD"/></g><g id="change1_3" clip-path="url(#b)"><path d="M359.566 0 33.2188 0C14.8711 0 0 14.8711 0 33.2188L0 58.1055 392.785 58.1055 392.785 33.2188C392.785 14.8711 377.914 0 359.566 0" fill="#FCE5CD"/></g><g id="change1_1"><path d="M196.355 282.68C195.656 283.086 190.719 279.176 189.953 278.617 188.473 277.535 186.992 276.395 185.645 275.145 182.461 272.199 180.059 267.516 181.621 263.152 181.77 262.734 182.836 259.891 185.711 258.566 189 257.059 193.32 258.156 196.355 261.395 199.387 258.156 203.711 257.059 206.996 258.566 209.875 259.891 210.941 262.734 211.09 263.152 214.352 272.273 202.684 278.98 196.355 282.68ZM196.395 229.992C175.16 229.992 157.891 247.266 157.891 268.496 157.891 289.727 175.16 307 196.395 307 217.625 307 234.895 289.727 234.895 268.496 234.895 247.266 217.625 229.992 196.395 229.992" fill="#FCE5CD"/></g><g id="change2_1"><path d="M211.09 263.152C210.941 262.734 209.875 259.891 206.996 258.566 203.711 257.059 199.387 258.156 196.355 261.395 193.32 258.156 189 257.059 185.711 258.566 182.836 259.891 181.77 262.734 181.621 263.152 180.059 267.516 182.461 272.199 185.645 275.145 186.992 276.395 188.473 277.535 189.953 278.617 190.719 279.176 195.656 283.086 196.355 282.68 202.684 278.98 214.352 272.273 211.09 263.152" fill="#FCE5CD"/></g></g></svg>